<svg xmlns="http://www.w3.org/2000/svg" viewBox="0 0 28.53 28.53"><defs><style>.cls-1{fill:#7c9aac;}</style></defs><title>ajuda</title><g id="Camada_2" data-name="Camada 2"><g id="Camada_1-2" data-name="Camada 1"><path class="cls-1" d="M14.26,1.78A12.48,12.48,0,1,1,1.78,14.26,12.5,12.5,0,0,1,14.26,1.78m0-1.78A14.26,14.26,0,1,0,28.53,14.26,14.26,14.26,0,0,0,14.26,0Z"/><path class="cls-1" d="M7,10.1a5,5,0,0,1,.84-2.66,6.49,6.49,0,0,1,2.46-2.23A7.74,7.74,0,0,1,14,4.33a8.06,8.06,0,0,1,3.54.74,5.74,5.74,0,0,1,2.37,2,4.93,4.93,0,0,1,.84,2.76,4.27,4.27,0,0,1-.48,2.06,6.3,6.3,0,0,1-1.13,1.53q-.66.64-2.36,2.16a9.58,9.58,0,0,0-.75.75,3.05,3.05,0,0,0-.42.59,2.9,2.9,0,0,0-.21.54q-.08.27-.23.95a1.54,1.54,0,0,1-1.64,1.44,1.68,1.68,0,0,1-1.21-.47,1.84,1.84,0,0,1-.49-1.4,4.9,4.9,0,0,1,1.31-3.5A21.83,21.83,0,0,1,14.78,13q.88-.77,1.28-1.17a4,4,0,0,0,.66-.88,2.12,2.12,0,0,0,.27-1A2.44,2.44,0,0,0,16.17,8,3,3,0,0,0,14,7.24,2.93,2.93,0,0,0,11.81,8a6.11,6.11,0,0,0-1.22,2.26q-.47,1.56-1.78,1.56a1.75,1.75,0,0,1-1.31-.55A1.67,1.67,0,0,1,7,10.1Zm6.74,15.14a2.17,2.17,0,0,1-1.47-.55,1.91,1.91,0,0,1-.63-1.53,2,2,0,0,1,.61-1.46,2.05,2.05,0,0,1,1.49-.59,2,2,0,0,1,2.06,2.06,1.93,1.93,0,0,1-.62,1.52A2.1,2.1,0,0,1,13.71,25.25Z"/></g></g></svg>