<svg xmlns="http://www.w3.org/2000/svg" viewBox="0 0 161.24 161.24"><defs><style>.cls-1{fill:#7c9aac;}</style></defs><title>ajudasico</title><g id="Camada_2" data-name="Camada 2"><g id="Camada_1-2" data-name="Camada 1"><path class="cls-1" d="M80.62,10.08A70.54,70.54,0,1,1,10.08,80.62,70.63,70.63,0,0,1,80.62,10.08M80.62,0a80.62,80.62,0,1,0,80.62,80.62A80.63,80.63,0,0,0,80.62,0Z"/><path class="cls-1" d="M112.36,46.1c-21.86,0-33.2,21.29-39,29.59S59.84,96.31,48.88,96.31c-7.88,0-14.28-7-14.28-15.69S41,64.93,48.88,64.93c6.67,0,13.56,6.24,18.45,12.14C70.07,73.42,73.1,68.77,78,62l0,0c-6.94-7.76-17-15.85-29.11-15.85-17.33,0-31.42,15.49-31.42,34.52s14.09,34.52,31.42,34.52c21.86,0,31.28-19,39-29.59s13.94-20.62,24.44-20.62c7.88,0,14.28,7,14.28,15.69s-6.4,15.69-14.28,15.69c-6.77,0-16.62-9.28-21.53-15.26,0,0-7.42,10.72-10.5,15.2l-.07,0c6.94,7.81,20,18.86,32.1,18.86,17.32,0,31.42-15.49,31.42-34.52S129.68,46.1,112.36,46.1Z"/></g></g></svg>