<svg xmlns="http://www.w3.org/2000/svg" viewBox="0 0 101.8 101.8"><defs><style>.cls-1{fill:#fff;stroke:#fff;stroke-miterlimit:10;}</style></defs><title>ajudabreve</title><g id="Camada_2" data-name="Camada 2"><g id="Camada_1-2" data-name="Camada 1"><path class="cls-1" d="M50.9.5a50.4,50.4,0,1,0,50.4,50.4A50.41,50.41,0,0,0,50.9.5Zm0,96.33A45.93,45.93,0,1,1,96.82,50.9,46,46,0,0,1,50.9,96.83Z"/><path class="cls-1" d="M65.78,14.65V52.71l2.88-2.88A3.63,3.63,0,0,1,73.8,55L64.72,64h0l-2.56,2.56-2.57-2.56h0L51.1,55.57a3.63,3.63,0,0,1,5.14-5.14l2.27,2.28V13.19a3.55,3.55,0,0,1,.08-.73,39.79,39.79,0,0,0-7.69-.76A39.17,39.17,0,0,0,34,86.19V49.13L31.07,52a3.63,3.63,0,0,1-5.14-5.13L35,37.8h0l2.57-2.56,2.57,2.56h0l8.48,8.47a3.63,3.63,0,1,1-5.14,5.14l-2.27-2.28V88.65c0,.06,0,.12,0,.19a38.84,38.84,0,0,0,9.7,1.26A39.19,39.19,0,0,0,65.78,14.65Z"/></g></g></svg>