<svg xmlns="http://www.w3.org/2000/svg" viewBox="0 0 100.8 100.8"><defs><style>.cls-1{fill:#fff;}</style></defs><title>ajudacons</title><g id="Camada_2" data-name="Camada 2"><g id="Camada_1-2" data-name="Camada 1"><path class="cls-1" d="M50.4,6.3A44.1,44.1,0,1,1,6.3,50.4,44.15,44.15,0,0,1,50.4,6.3m0-6.3a50.4,50.4,0,1,0,50.4,50.4A50.41,50.41,0,0,0,50.4,0Z"/><path class="cls-1" d="M60.23,16.47A23.58,23.58,0,0,0,41.33,54.2c-.6.44-1.21.89-1.81,1.36l-3.76,2.88c-1.26,1-2.6,1.86-3.94,2.72a23.62,23.62,0,0,0-3.67,2.76,18.27,18.27,0,0,0-2.7,3.32,27.53,27.53,0,0,0-2,3.44,26.55,26.55,0,0,0-1.32,3.23,22.61,22.61,0,0,0-.76,2.76,17.32,17.32,0,0,0-.33,1.93c-.06.47-.07.74-.07.74l.88.88s.27,0,.74-.07a17.32,17.32,0,0,0,1.93-.33,25.54,25.54,0,0,0,2.76-.75,28.42,28.42,0,0,0,3.23-1.33,26.74,26.74,0,0,0,3.43-2,18.25,18.25,0,0,0,3.33-2.7,24.27,24.27,0,0,0,2.76-3.67c.86-1.34,1.74-2.68,2.72-3.93s1.93-2.53,2.88-3.77c.51-.65,1-1.31,1.47-2A23.62,23.62,0,1,0,60.23,16.47Zm0,38.54a14.88,14.88,0,0,1-8-2.37,15.2,15.2,0,0,1-3.77-3.47A14.9,14.9,0,1,1,60.23,55Zm5.41-14.92a5.39,5.39,0,0,1-8.2,4.63,5.49,5.49,0,0,1-1.08-.84,5.42,5.42,0,1,1,9.28-3.79Z"/></g></g></svg>