<svg xmlns="http://www.w3.org/2000/svg" viewBox="0 0 100.8 100.8"><defs><style>.cls-1{fill:#fff;}</style></defs><title>ajudareg</title><g id="Camada_2" data-name="Camada 2"><g id="Camada_1-2" data-name="Camada 1"><path class="cls-1" d="M50.4,6.3A44.1,44.1,0,1,1,6.3,50.4,44.15,44.15,0,0,1,50.4,6.3m0-6.3a50.4,50.4,0,1,0,50.4,50.4A50.41,50.41,0,0,0,50.4,0Z"/><path class="cls-1" d="M89.62,51.43l-9.86-9.86a3.26,3.26,0,0,0-4.62,0l-2,2V19.94a3.26,3.26,0,0,0-3.26-3.26H28.57a3.26,3.26,0,0,0-3.26,3.26V72.16a3.26,3.26,0,0,0,3.26,3.26H47.06v5.44a3.27,3.27,0,0,0,3.27,3.26h9.86a3.26,3.26,0,0,0,2.31-1L89.62,56A3.27,3.27,0,0,0,89.62,51.43ZM31.84,23.21h34.8V50.07L48,68.69a1.8,1.8,0,0,0-.19.2h-16Zm27,54.39H53.59V72.35L77.45,48.49l5.25,5.25Z"/></g></g></svg>