<svg xmlns="http://www.w3.org/2000/svg" viewBox="0 0 29.97 41.32"><defs><style>.cls-1{fill:#fff;}</style></defs><title>alert</title><g id="Camada_2" data-name="Camada 2"><g id="Camada_1-2" data-name="Camada 1"><path class="cls-1" d="M29.69,33.51l-2-3.78V20.38A12.71,12.71,0,0,0,18.5,8.19V3.52a3.52,3.52,0,1,0-7,0V8.19A12.71,12.71,0,0,0,2.29,20.38v9.34l-2,3.78a2.33,2.33,0,0,0,2.06,3.42h8a4.66,4.66,0,0,0,9.3,0h8a2.33,2.33,0,0,0,2.06-3.42Zm-16.36-30a1.66,1.66,0,1,1,3.32,0V7.8a12.75,12.75,0,0,0-3.32,0V3.52ZM4.16,20.38a10.83,10.83,0,1,1,21.65,0V29H4.16ZM15,39.46a2.8,2.8,0,0,1-2.78-2.53h5.56A2.8,2.8,0,0,1,15,39.46ZM28,34.84a.46.46,0,0,1-.4.23H2.33a.47.47,0,0,1-.41-.69l1.9-3.57H26.14L28,34.38A.46.46,0,0,1,28,34.84Z"/><path class="cls-1" d="M15,12a8.35,8.35,0,0,0-8.34,8.34.93.93,0,1,0,1.86,0A6.49,6.49,0,0,1,15,13.9.93.93,0,1,0,15,12Z"/></g></g></svg>