<svg xmlns="http://www.w3.org/2000/svg" viewBox="0 0 28.53 28.53"><defs><style>.cls-1{fill:#fff;}</style></defs><title>Alterar</title><g id="Layer_2" data-name="Layer 2"><g id="Camada_1" data-name="Camada 1"><path class="cls-1" d="M14.26,1.78A12.48,12.48,0,1,1,1.78,14.26,12.5,12.5,0,0,1,14.26,1.78m0-1.78A14.27,14.27,0,1,0,28.53,14.26,14.27,14.27,0,0,0,14.26,0Z"/><path class="cls-1" d="M12.16,14.81a11,11,0,0,1-1.29,1.68A5.19,5.19,0,0,1,6.59,18c-1.46-.08-1.45,2.18,0,2.26a7.79,7.79,0,0,0,6.93-3.41c-.28-.37-.55-.74-.78-1.1S12.35,15.11,12.16,14.81Z"/><path class="cls-1" d="M15.11,13l.47.73a10.16,10.16,0,0,1,.93-1.13,4.46,4.46,0,0,1,2.95-1.37l-.21.25a1.16,1.16,0,0,0,0,1.6,1.13,1.13,0,0,0,1.6,0c.61-.73,1.2-1.48,1.81-2.21a1.12,1.12,0,0,0,.06-1.6l-2-2.2c-1-1.08-2.59.53-1.6,1.6l.27.28a6.58,6.58,0,0,0-3.17,1,8.25,8.25,0,0,0-1.91,1.77q.17.22.33.48Z"/><path class="cls-1" d="M20.85,15.44a1,1,0,0,0-.76-.33,1.21,1.21,0,0,0-.84.33,1.16,1.16,0,0,0,0,1.6l.21.25a4.51,4.51,0,0,1-2.95-1.37,11.6,11.6,0,0,1-1.3-1.66c-.38-.56-.73-1.14-1.11-1.71a3.62,3.62,0,0,0-.22-.32C12.2,9.81,10.09,8.31,7.07,8.31H6.59c-1.43.07-1.46,2.26-.07,2.26h.54A5,5,0,0,1,10.88,12a14.88,14.88,0,0,1,1.64,2.23c.23.37.47.75.71,1.11s.43.63.65.93a9.15,9.15,0,0,0,2.3,2.26,6.57,6.57,0,0,0,3.17,1l-.27.29a1.18,1.18,0,0,0,.85,2,1,1,0,0,0,.75-.36l2-2.21a1.12,1.12,0,0,0-.06-1.6C22.05,16.91,21.46,16.16,20.85,15.44Z"/></g></g></svg>