<svg xmlns="http://www.w3.org/2000/svg" xmlns:xlink="http://www.w3.org/1999/xlink" viewBox="0 0 261.77 88.25"><defs><style>.cls-1{fill:#575756;}.cls-2{fill:url(#linear-gradient);}</style><linearGradient id="linear-gradient" x1="49.09" y1="35.61" x2="8" y2="58.43" gradientUnits="userSpaceOnUse"><stop offset="0" stop-color="#e21626"/><stop offset="0.07" stop-color="#e31f25"/><stop offset="0.18" stop-color="#e73721"/><stop offset="0.32" stop-color="#ed5f1a"/><stop offset="0.48" stop-color="#f69611"/><stop offset="0.6" stop-color="#fdc40a"/><stop offset="0.66" stop-color="#ceb816"/><stop offset="0.75" stop-color="#88a628"/><stop offset="0.84" stop-color="#519837"/><stop offset="0.91" stop-color="#298e41"/><stop offset="0.97" stop-color="#118748"/><stop offset="1" stop-color="#08854a"/></linearGradient></defs><title>Ativo3</title><g id="Camada_2" data-name="Camada 2"><g id="Layer_1" data-name="Layer 1"><path class="cls-1" d="M108,67.36a3.16,3.16,0,0,0,2.19-.69,2.7,2.7,0,0,0,.76-2.08,3.08,3.08,0,0,0-.27-1.38,2.9,2.9,0,0,0-.71-.91,4.06,4.06,0,0,0-1-.59c-.37-.15-.74-.3-1.13-.43s-.77-.29-1.14-.45a3.82,3.82,0,0,1-1-.61,2.54,2.54,0,0,1-.7-.93,3.87,3.87,0,0,1,.09-3,2.76,2.76,0,0,1,.91-1,3.51,3.51,0,0,1,1.23-.5,5.74,5.74,0,0,1,1.27-.14,7.77,7.77,0,0,1,1.09.08,6,6,0,0,1,1,.23,2.77,2.77,0,0,1,.69.35.51.51,0,0,1,.27.39.7.7,0,0,1-.12.35.35.35,0,0,1-.31.19.74.74,0,0,1-.3-.11l-.5-.24a4.75,4.75,0,0,0-.75-.24,4.16,4.16,0,0,0-1.06-.11,5,5,0,0,0-1,.1,2.46,2.46,0,0,0-.91.37,2.11,2.11,0,0,0-.65.71,2.36,2.36,0,0,0-.25,1.13,2,2,0,0,0,.47,1.42,3.44,3.44,0,0,0,1.14.82,11.83,11.83,0,0,0,1.49.55,5.93,5.93,0,0,1,1.49.68,3.61,3.61,0,0,1,1.15,1.18,3.87,3.87,0,0,1,.46,2,4.56,4.56,0,0,1-.29,1.69,3.16,3.16,0,0,1-.78,1.17,3,3,0,0,1-1.2.68,5.13,5.13,0,0,1-1.5.21,5.4,5.4,0,0,1-1.58-.21,4.73,4.73,0,0,1-1.15-.52,2.36,2.36,0,0,1-.71-.64,1,1,0,0,1-.25-.55.56.56,0,0,1,.14-.35.41.41,0,0,1,.29-.17.46.46,0,0,1,.34.24,4.61,4.61,0,0,0,.5.54,3.24,3.24,0,0,0,.87.53A3.65,3.65,0,0,0,108,67.36Z"/><path class="cls-1" d="M117,59.3a3.27,3.27,0,0,1,1.27.25,3.23,3.23,0,0,1,1.07.69A3.32,3.32,0,0,1,120,61.3a3.23,3.23,0,0,1,.28,1.35,1.93,1.93,0,0,1-.13.8.89.89,0,0,1-.35.43,1.09,1.09,0,0,1-.51.16,5.49,5.49,0,0,1-.58,0h-4.29v.78a2.5,2.5,0,0,0,.22,1.07,2.25,2.25,0,0,0,.62.81,2.52,2.52,0,0,0,.94.51,3.82,3.82,0,0,0,1.2.18,3.38,3.38,0,0,0,.93-.11,3.07,3.07,0,0,0,.59-.25,2.74,2.74,0,0,0,.38-.26.48.48,0,0,1,.3-.12.36.36,0,0,1,.29.15.44.44,0,0,1,.13.29.56.56,0,0,1-.18.35,2.12,2.12,0,0,1-.53.37,4.31,4.31,0,0,1-.84.29,4.72,4.72,0,0,1-1.11.12,4.56,4.56,0,0,1-1.56-.25,3.6,3.6,0,0,1-1.21-.69,3.2,3.2,0,0,1-.79-1.07,3.38,3.38,0,0,1-.29-1.41v-2.2a3.11,3.11,0,0,1,.27-1.29,3.36,3.36,0,0,1,.73-1.05,3.64,3.64,0,0,1,1.08-.72A3.29,3.29,0,0,1,117,59.3Zm1.44,4a1.88,1.88,0,0,0,.83-.12c.14-.08.2-.26.2-.54a2.77,2.77,0,0,0-.17-.93,2.42,2.42,0,0,0-.51-.81,2.57,2.57,0,0,0-.79-.58,2.33,2.33,0,0,0-1-.22,2.47,2.47,0,0,0-1,.2,2.41,2.41,0,0,0-.79.52,2.5,2.5,0,0,0-.53.78,2.32,2.32,0,0,0-.19.94v.76Z"/><path class="cls-1" d="M125.63,60.15a2.39,2.39,0,0,0-.92.18,2.57,2.57,0,0,0-.8.54,2.79,2.79,0,0,0-.56.85,2.71,2.71,0,0,0-.22,1.13v4.88A.37.37,0,0,1,123,68a.42.42,0,0,1-.33.13.41.41,0,0,1-.32-.13.39.39,0,0,1-.12-.28v-8a.34.34,0,0,1,.12-.27.47.47,0,0,1,.32-.1.51.51,0,0,1,.32.1.35.35,0,0,1,.13.27v.94a3.2,3.2,0,0,1,.94-1,2.69,2.69,0,0,1,1.57-.44h.67a.38.38,0,0,1,.28.12.41.41,0,0,1,.12.3.41.41,0,0,1-.12.31.38.38,0,0,1-.28.12Z"/><path class="cls-1" d="M127.31,60.09a1.11,1.11,0,0,1,0-.13.5.5,0,0,1,0-.14.36.36,0,0,1,.16-.31.56.56,0,0,1,.36-.12.46.46,0,0,1,.22.06.29.29,0,0,1,.15.16l2.53,7,2.54-6.89a.9.9,0,0,1,.12-.24c0-.06.12-.09.25-.09a.74.74,0,0,1,.35.11.34.34,0,0,1,.18.3.78.78,0,0,1,0,.16l-.05.13L131.11,68a.47.47,0,0,1-.45.26.41.41,0,0,1-.42-.26Z"/><path class="cls-1" d="M136.1,55.32a.62.62,0,0,1,.48.2.58.58,0,0,1,.21.45.66.66,0,0,1-.21.48.62.62,0,0,1-.48.2.66.66,0,0,1-.51-.2.68.68,0,0,1-.19-.48.6.6,0,0,1,.19-.45A.66.66,0,0,1,136.1,55.32Zm0,4.09a.48.48,0,0,1,.33.1.32.32,0,0,1,.13.27v8a.37.37,0,0,1-.13.28.42.42,0,0,1-.33.13.41.41,0,0,1-.32-.13.39.39,0,0,1-.12-.28v-8a.34.34,0,0,1,.12-.27A.47.47,0,0,1,136.1,59.41Z"/><path class="cls-1" d="M144.78,67.11a.57.57,0,0,1-.16.36,1.62,1.62,0,0,1-.46.35,3.46,3.46,0,0,1-.74.29,3.68,3.68,0,0,1-1,.12l-.26,1.09a1.86,1.86,0,0,1,1.35.41,1.21,1.21,0,0,1,.41.88,1.38,1.38,0,0,1-.4,1,1.53,1.53,0,0,1-1.18.43l-.4,0a3.55,3.55,0,0,1-.47-.08,1.88,1.88,0,0,1-.38-.14c-.1-.06-.15-.12-.15-.19a.56.56,0,0,1,.07-.25.22.22,0,0,1,.19-.14.94.94,0,0,1,.33.12,1.6,1.6,0,0,0,.7.12,1.08,1.08,0,0,0,.78-.23.73.73,0,0,0,.22-.53.65.65,0,0,0-.33-.61,1.93,1.93,0,0,0-.91-.19h-.61l.39-1.63a3.27,3.27,0,0,1-1.38-.26,2.73,2.73,0,0,1-1-.73,2.86,2.86,0,0,1-.57-1.06,4.23,4.23,0,0,1-.19-1.31V62.73a4.24,4.24,0,0,1,.21-1.35,2.77,2.77,0,0,1,.63-1.09,3.24,3.24,0,0,1,1.09-.72,4.09,4.09,0,0,1,1.55-.27,4.18,4.18,0,0,1,1,.12,3.35,3.35,0,0,1,.78.29,1.7,1.7,0,0,1,.5.36.56.56,0,0,1,.18.36.44.44,0,0,1-.12.3.4.4,0,0,1-.31.14.45.45,0,0,1-.25-.11,3.56,3.56,0,0,0-.36-.25,2.55,2.55,0,0,0-.57-.25,3.12,3.12,0,0,0-.87-.11,2.6,2.6,0,0,0-1.94.68,2.66,2.66,0,0,0-.65,1.89v2.11a2.66,2.66,0,0,0,.65,1.89,2.62,2.62,0,0,0,2,.68,3.28,3.28,0,0,0,.91-.11,2.55,2.55,0,0,0,.59-.25,2.24,2.24,0,0,0,.38-.26.48.48,0,0,1,.28-.12.36.36,0,0,1,.29.15A.48.48,0,0,1,144.78,67.11Z"/><path class="cls-1" d="M149.44,59.3a3.19,3.19,0,0,1,1.3.27,3.92,3.92,0,0,1,1.08.72,3.56,3.56,0,0,1,.75,1.07,3.25,3.25,0,0,1,.27,1.32v2.15a3.25,3.25,0,0,1-.27,1.29,3.92,3.92,0,0,1-.75,1.09,4,4,0,0,1-1.08.75,2.91,2.91,0,0,1-1.3.29,3,3,0,0,1-1.29-.28,3.38,3.38,0,0,1-1.08-.75,3.62,3.62,0,0,1-.74-1.09,3.2,3.2,0,0,1-.28-1.3V62.68a3.17,3.17,0,0,1,.27-1.29,3.63,3.63,0,0,1,.73-1.07,3.52,3.52,0,0,1,1.08-.74A3,3,0,0,1,149.44,59.3Zm2.5,3.38a2.32,2.32,0,0,0-.2-.93,2.7,2.7,0,0,0-1.33-1.39,2.35,2.35,0,0,0-1.94,0,2.65,2.65,0,0,0-.79.58,2.88,2.88,0,0,0-.52.81,2.32,2.32,0,0,0-.2.93v2.15a2.46,2.46,0,0,0,.2,1,2.84,2.84,0,0,0,.52.83,2.61,2.61,0,0,0,.79.57,2.35,2.35,0,0,0,1.94,0,2.58,2.58,0,0,0,1.33-1.4,2.46,2.46,0,0,0,.2-1Z"/><path class="cls-1" d="M157.16,67.44a2.29,2.29,0,0,0,1.57-.43,1.29,1.29,0,0,0,.46-1,1.44,1.44,0,0,0-.34-1,2.49,2.49,0,0,0-.85-.59,8,8,0,0,0-1.11-.36,6.07,6.07,0,0,1-1.11-.41,2.37,2.37,0,0,1-.85-.68,1.85,1.85,0,0,1-.35-1.2,2.66,2.66,0,0,1,.16-.86,2.3,2.3,0,0,1,.5-.79,2.74,2.74,0,0,1,.87-.57,3.28,3.28,0,0,1,1.29-.22,5,5,0,0,1,.85.07,4.52,4.52,0,0,1,.75.2,2.58,2.58,0,0,1,.55.26q.21.15.21.3a.58.58,0,0,1-.12.31.35.35,0,0,1-.28.17.63.63,0,0,1-.26-.07l-.4-.18a4.21,4.21,0,0,0-.56-.17,3.2,3.2,0,0,0-.73-.08,2.26,2.26,0,0,0-.92.16,1.94,1.94,0,0,0-.61.39,1.18,1.18,0,0,0-.34.52,1.58,1.58,0,0,0-.11.54,1.12,1.12,0,0,0,.35.88,2.46,2.46,0,0,0,.86.49c.34.12.71.24,1.11.34a5.35,5.35,0,0,1,1.11.44,2.4,2.4,0,0,1,.86.76,2.24,2.24,0,0,1,.34,1.33,2.06,2.06,0,0,1-.75,1.68,3.29,3.29,0,0,1-2.14.61,4.49,4.49,0,0,1-1.15-.13,4.09,4.09,0,0,1-.88-.31,1.75,1.75,0,0,1-.57-.41.63.63,0,0,1-.19-.41.46.46,0,0,1,.1-.28.31.31,0,0,1,.23-.14.51.51,0,0,1,.3.14,3.34,3.34,0,0,0,.42.29,3.26,3.26,0,0,0,.67.3A3.4,3.4,0,0,0,157.16,67.44Z"/><path class="cls-1" d="M165.89,55q0-.36.42-.39h3.33a4.91,4.91,0,0,1,1.46.21,3,3,0,0,1,1.19.67,3.09,3.09,0,0,1,.78,1.19,5,5,0,0,1,.29,1.79v.21a5,5,0,0,1-.29,1.79,3.15,3.15,0,0,1-.79,1.21,3.21,3.21,0,0,1-1.2.67,4.91,4.91,0,0,1-1.46.21h-2.81v5.16a.37.37,0,0,1-.14.31.51.51,0,0,1-.32.1A.55.55,0,0,1,166,68a.37.37,0,0,1-.14-.31Zm.92.5v6.21h2.81A2.84,2.84,0,0,0,171.7,61a3.11,3.11,0,0,0,.74-2.28V58.5a3.07,3.07,0,0,0-.74-2.27,2.87,2.87,0,0,0-2.08-.72Z"/><path class="cls-1" d="M177.36,59.3a3.47,3.47,0,0,1,1.49.29,2.71,2.71,0,0,1,1,.8,3,3,0,0,1,.55,1.14,5.19,5.19,0,0,1,.17,1.32v4.88a.38.38,0,0,1-.12.29.45.45,0,0,1-.33.12.43.43,0,0,1-.31-.12.36.36,0,0,1-.13-.29v-.88a5.7,5.7,0,0,1-1.17,1,2.91,2.91,0,0,1-1.61.43,3.27,3.27,0,0,1-1-.15,2.31,2.31,0,0,1-.81-.45,1.92,1.92,0,0,1-.54-.76,2.7,2.7,0,0,1-.2-1.08,2.19,2.19,0,0,1,.32-1.22,2.23,2.23,0,0,1,.87-.76,4.86,4.86,0,0,1,1.36-.39,13.5,13.5,0,0,1,1.76-.11h1v-.48a3.65,3.65,0,0,0-.13-1,2.64,2.64,0,0,0-.41-.88,2,2,0,0,0-.72-.63,2.2,2.2,0,0,0-1.07-.24,3.44,3.44,0,0,0-.77.08c-.21.06-.4.12-.55.18a3.72,3.72,0,0,0-.38.17.51.51,0,0,1-.24.09.33.33,0,0,1-.31-.18.6.6,0,0,1-.1-.32c0-.1.07-.2.21-.31a2.25,2.25,0,0,1,.56-.27,4.8,4.8,0,0,1,1.62-.27Zm2.29,4.77h-.91c-.45,0-.89,0-1.31.05a4.12,4.12,0,0,0-1.12.22,1.82,1.82,0,0,0-.78.52,1.38,1.38,0,0,0-.28.91,1.51,1.51,0,0,0,.51,1.27,2,2,0,0,0,1.26.4,2.54,2.54,0,0,0,1-.2,3,3,0,0,0,.84-.5,3.26,3.26,0,0,0,.6-.64,1.22,1.22,0,0,0,.23-.66Z"/><path class="cls-1" d="M186.33,60.15a2.48,2.48,0,0,0-.93.18,2.64,2.64,0,0,0-.79.54,2.82,2.82,0,0,0-.57.85,2.88,2.88,0,0,0-.21,1.13v4.88a.37.37,0,0,1-.13.28.43.43,0,0,1-.33.13A.42.42,0,0,1,183,68a.39.39,0,0,1-.12-.28v-8a.34.34,0,0,1,.12-.27.48.48,0,0,1,.33-.1.46.46,0,0,1,.31.1.32.32,0,0,1,.13.27v.94a3.37,3.37,0,0,1,.95-1,2.69,2.69,0,0,1,1.57-.44H187a.38.38,0,0,1,.28.12.41.41,0,0,1,.12.3.41.41,0,0,1-.12.31.38.38,0,0,1-.28.12Z"/><path class="cls-1" d="M189.7,65.5a1.86,1.86,0,0,0,.42,1.39,2.15,2.15,0,0,0,1.48.4h.46a.42.42,0,0,1,.32.12.46.46,0,0,1,0,.6.39.39,0,0,1-.32.13h-.46a3.1,3.1,0,0,1-2.1-.63,2.57,2.57,0,0,1-.71-2V55.56a.35.35,0,0,1,.15-.28.5.5,0,0,1,.29-.11.55.55,0,0,1,.33.11.37.37,0,0,1,.14.28v3.85h2.46a.33.33,0,0,1,.25.12.48.48,0,0,1,.1.29.44.44,0,0,1-.1.26.34.34,0,0,1-.25.13H189.7Z"/><path class="cls-1" d="M194.53,55.32a.65.65,0,0,1,.48.2.61.61,0,0,1,.2.45.69.69,0,0,1-.2.48.71.71,0,0,1-1,0,.69.69,0,0,1-.2-.48.61.61,0,0,1,.2-.45A.66.66,0,0,1,194.53,55.32Zm0,4.09a.52.52,0,0,1,.33.1.35.35,0,0,1,.13.27v8a.41.41,0,0,1-.13.28.44.44,0,0,1-.33.13.42.42,0,0,1-.33-.13.39.39,0,0,1-.12-.28v-8a.34.34,0,0,1,.12-.27A.48.48,0,0,1,194.53,59.41Z"/><path class="cls-1" d="M198,54a.53.53,0,0,1,.34.11.37.37,0,0,1,.13.28V67.73a.41.41,0,0,1-.13.28.45.45,0,0,1-.34.13.41.41,0,0,1-.32-.13.39.39,0,0,1-.12-.28V54.36a.36.36,0,0,1,.12-.28A.48.48,0,0,1,198,54Z"/><path class="cls-1" d="M202,67.73a.41.41,0,0,1-.13.28.45.45,0,0,1-.34.13.41.41,0,0,1-.32-.13.39.39,0,0,1-.12-.28V54.36a.36.36,0,0,1,.12-.28.48.48,0,0,1,.32-.11.53.53,0,0,1,.34.11.37.37,0,0,1,.13.28v6.35a2.85,2.85,0,0,1,.9-1,2.64,2.64,0,0,1,1.56-.43,3,3,0,0,1,1.26.27,3.68,3.68,0,0,1,1.06.72,3.47,3.47,0,0,1,.72,1.07,3.25,3.25,0,0,1,.27,1.32v5.05a.35.35,0,0,1-.15.31.53.53,0,0,1-.32.1.47.47,0,0,1-.3-.1.37.37,0,0,1-.14-.31V62.68a2.31,2.31,0,0,0-.19-.93,2.73,2.73,0,0,0-.54-.81,2.57,2.57,0,0,0-.8-.58,2.23,2.23,0,0,0-.95-.21,2.45,2.45,0,0,0-.87.17,2.75,2.75,0,0,0-.77.5,2.4,2.4,0,0,0-.54.8,2.57,2.57,0,0,0-.2,1.06Z"/><path class="cls-1" d="M212.51,59.3a3.55,3.55,0,0,1,1.5.29,2.71,2.71,0,0,1,1,.8,3.18,3.18,0,0,1,.55,1.14,5.19,5.19,0,0,1,.16,1.32v4.88a.38.38,0,0,1-.12.29.42.42,0,0,1-.32.12A.43.43,0,0,1,215,68a.36.36,0,0,1-.13-.29v-.88a6,6,0,0,1-1.17,1,2.94,2.94,0,0,1-1.61.43,3.22,3.22,0,0,1-1-.15,2.14,2.14,0,0,1-.81-.45,1.94,1.94,0,0,1-.55-.76,2.71,2.71,0,0,1-.19-1.08,2,2,0,0,1,1.19-2,4.86,4.86,0,0,1,1.36-.39,13.5,13.5,0,0,1,1.76-.11h1v-.48a4.11,4.11,0,0,0-.13-1,2.64,2.64,0,0,0-.41-.88,2.19,2.19,0,0,0-.72-.63,2.27,2.27,0,0,0-1.08-.24,3.34,3.34,0,0,0-.76.08c-.22.06-.4.12-.56.18l-.38.17a.51.51,0,0,1-.24.09.32.32,0,0,1-.3-.18.62.62,0,0,1-.11-.32c0-.1.08-.2.22-.31a2.17,2.17,0,0,1,.55-.27,5.07,5.07,0,0,1,.77-.2A4.88,4.88,0,0,1,212.51,59.3Zm2.3,4.77h-.91c-.46,0-.89,0-1.31.05a4,4,0,0,0-1.12.22,1.76,1.76,0,0,0-.78.52,1.38,1.38,0,0,0-.29.91,1.51,1.51,0,0,0,.51,1.27,2,2,0,0,0,1.27.4,2.45,2.45,0,0,0,.95-.2,2.71,2.71,0,0,0,.84-.5,3,3,0,0,0,.61-.64,1.22,1.22,0,0,0,.23-.66Z"/><path class="cls-1" d="M224,54a.49.49,0,0,1,.33.11.36.36,0,0,1,.12.28V67.73a.39.39,0,0,1-.12.28.46.46,0,0,1-.64,0,.37.37,0,0,1-.13-.28v-.88a2.76,2.76,0,0,1-1,1,2.92,2.92,0,0,1-1.53.41,2.7,2.7,0,0,1-1.25-.29,3.59,3.59,0,0,1-1-.75,3.83,3.83,0,0,1-.72-1.09,3.25,3.25,0,0,1-.27-1.29V62.68a3.25,3.25,0,0,1,.27-1.32,3.47,3.47,0,0,1,.72-1.07,3.43,3.43,0,0,1,1.06-.72,3.06,3.06,0,0,1,1.28-.27,2.59,2.59,0,0,1,1.54.43,3.26,3.26,0,0,1,.92,1V54.36a.34.34,0,0,1,.13-.28A.52.52,0,0,1,224,54Zm-5.34,10.86a2.45,2.45,0,0,0,.19,1,2.71,2.71,0,0,0,1.32,1.4,2.23,2.23,0,0,0,1,.21,2.11,2.11,0,0,0,1-.22,3.09,3.09,0,0,0,.77-.53,2.76,2.76,0,0,0,.51-.64,1.21,1.21,0,0,0,.18-.55V62.68A2.48,2.48,0,0,0,222,60.32a2.5,2.5,0,0,0-.88-.17,2.25,2.25,0,0,0-1,.21,2.42,2.42,0,0,0-.79.58,2.91,2.91,0,0,0-.53.81,2.31,2.31,0,0,0-.19.93Z"/><path class="cls-1" d="M229.92,59.3a3.19,3.19,0,0,1,1.3.27,3.64,3.64,0,0,1,1.08.72,3.23,3.23,0,0,1,.75,1.07,3.1,3.1,0,0,1,.28,1.32v2.15a3.09,3.09,0,0,1-.28,1.29,3.54,3.54,0,0,1-.75,1.09,3.73,3.73,0,0,1-1.08.75,2.91,2.91,0,0,1-1.3.29,3,3,0,0,1-1.29-.28,3.23,3.23,0,0,1-1.07-.75,3.45,3.45,0,0,1-.74-1.09,3,3,0,0,1-.28-1.3V62.68a3.17,3.17,0,0,1,.27-1.29,3.56,3.56,0,0,1,1.8-1.81A3.08,3.08,0,0,1,229.92,59.3Zm2.5,3.38a2.31,2.31,0,0,0-.19-.93,2.73,2.73,0,0,0-.54-.81,2.65,2.65,0,0,0-.79-.58,2.33,2.33,0,0,0-1-.21,2.29,2.29,0,0,0-1,.21,2.48,2.48,0,0,0-.78.58,2.7,2.7,0,0,0-.53.81,2.31,2.31,0,0,0-.19.93v2.15a2.45,2.45,0,0,0,.19,1,2.67,2.67,0,0,0,.53.83,2.46,2.46,0,0,0,.78.57,2.29,2.29,0,0,0,1,.21,2.33,2.33,0,0,0,1-.21,2.61,2.61,0,0,0,.79-.57,2.7,2.7,0,0,0,.54-.83,2.45,2.45,0,0,0,.19-1Z"/><path class="cls-1" d="M237.64,67.44a2.27,2.27,0,0,0,1.57-.43,1.29,1.29,0,0,0,.46-1,1.44,1.44,0,0,0-.34-1,2.49,2.49,0,0,0-.85-.59,8,8,0,0,0-1.11-.36,6.07,6.07,0,0,1-1.11-.41,2.46,2.46,0,0,1-.85-.68,1.84,1.84,0,0,1-.34-1.2,2.64,2.64,0,0,1,.15-.86,2.46,2.46,0,0,1,.5-.79,2.74,2.74,0,0,1,.87-.57,3.28,3.28,0,0,1,1.29-.22,4.88,4.88,0,0,1,.85.07,4.65,4.65,0,0,1,.76.2,2.73,2.73,0,0,1,.54.26c.15.1.22.2.22.3a.58.58,0,0,1-.12.31.36.36,0,0,1-.29.17.67.67,0,0,1-.26-.07l-.4-.18a4,4,0,0,0-.55-.17,3.26,3.26,0,0,0-.73-.08,2.32,2.32,0,0,0-.93.16,2.06,2.06,0,0,0-.61.39,1.27,1.27,0,0,0-.34.52,1.55,1.55,0,0,0-.1.54,1.11,1.11,0,0,0,.34.88,2.55,2.55,0,0,0,.86.49c.35.12.71.24,1.11.34a5.14,5.14,0,0,1,1.11.44,2.32,2.32,0,0,1,.86.76,2.24,2.24,0,0,1,.34,1.33,2.06,2.06,0,0,1-.75,1.68,3.28,3.28,0,0,1-2.13.61,4.52,4.52,0,0,1-1.16-.13,4.29,4.29,0,0,1-.88-.31,1.69,1.69,0,0,1-.56-.41.65.65,0,0,1-.2-.41.53.53,0,0,1,.1-.28.31.31,0,0,1,.24-.14.51.51,0,0,1,.29.14,3.53,3.53,0,0,0,.43.29,2.93,2.93,0,0,0,.66.3A3.44,3.44,0,0,0,237.64,67.44Z"/><path class="cls-1" d="M252.05,54a.46.46,0,0,1,.32.11.36.36,0,0,1,.12.28V67.73a.43.43,0,0,1-.44.41.4.4,0,0,1-.31-.13.37.37,0,0,1-.13-.28v-.88a2.76,2.76,0,0,1-1,1,2.92,2.92,0,0,1-1.53.41,2.77,2.77,0,0,1-1.26-.29,3.68,3.68,0,0,1-1-.75,3.45,3.45,0,0,1-.72-1.09,3.25,3.25,0,0,1-.27-1.29V62.68a3.25,3.25,0,0,1,.27-1.32,3.16,3.16,0,0,1,.72-1.07,3.5,3.5,0,0,1,1.05-.72,3.11,3.11,0,0,1,1.29-.27,2.56,2.56,0,0,1,1.53.43,3.18,3.18,0,0,1,.93,1V54.36a.34.34,0,0,1,.13-.28A.49.49,0,0,1,252.05,54ZM246.7,64.83a2.46,2.46,0,0,0,.2,1,2.87,2.87,0,0,0,.53.83,2.61,2.61,0,0,0,.79.57,2.19,2.19,0,0,0,.94.21,2.13,2.13,0,0,0,1-.22,3,3,0,0,0,.76-.53,2.32,2.32,0,0,0,.51-.64,1.13,1.13,0,0,0,.19-.55V62.68a2.42,2.42,0,0,0-.22-1.06,2.56,2.56,0,0,0-.54-.8,2.49,2.49,0,0,0-.77-.5,2.46,2.46,0,0,0-.88-.17,2.29,2.29,0,0,0-1,.21,2.65,2.65,0,0,0-.79.58,2.88,2.88,0,0,0-.52.81,2.32,2.32,0,0,0-.2.93Z"/><path class="cls-1" d="M258,59.3a3.11,3.11,0,0,1,1.29.27,3.83,3.83,0,0,1,1.09.72,3.56,3.56,0,0,1,.75,1.07,3.25,3.25,0,0,1,.27,1.32v2.15a3.25,3.25,0,0,1-.27,1.29A3.64,3.64,0,0,1,259.26,68a2.84,2.84,0,0,1-1.29.29,3,3,0,0,1-1.3-.28,3.45,3.45,0,0,1-1.07-.75,3.62,3.62,0,0,1-.74-1.09,3.2,3.2,0,0,1-.28-1.3V62.68a3.17,3.17,0,0,1,.27-1.29,3.63,3.63,0,0,1,.73-1.07,3.52,3.52,0,0,1,1.08-.74A3,3,0,0,1,258,59.3Zm2.5,3.38a2.32,2.32,0,0,0-.2-.93,2.91,2.91,0,0,0-.53-.81,2.69,2.69,0,0,0-.8-.58,2.35,2.35,0,0,0-1.94,0,2.53,2.53,0,0,0-.79.58,2.67,2.67,0,0,0-.52.81,2.32,2.32,0,0,0-.2.93v2.15a2.46,2.46,0,0,0,.2,1,2.65,2.65,0,0,0,.52.83,2.5,2.5,0,0,0,.79.57,2.35,2.35,0,0,0,1.94,0,2.66,2.66,0,0,0,.8-.57,2.87,2.87,0,0,0,.53-.83,2.46,2.46,0,0,0,.2-1Z"/><path class="cls-1" d="M110.16,83a.89.89,0,0,1-.23.29.29.29,0,0,1-.19.09c-.16,0-.3-.12-.43-.38L106,76.71v11a.37.37,0,0,1-.14.31.51.51,0,0,1-.32.1.55.55,0,0,1-.32-.1.34.34,0,0,1-.14-.31V75.06a.39.39,0,0,1,.13-.35.6.6,0,0,1,.33-.09.54.54,0,0,1,.44.26,2.69,2.69,0,0,1,.33.5L109.74,82l3.4-6.62a4.29,4.29,0,0,1,.33-.5.54.54,0,0,1,.45-.26.57.57,0,0,1,.32.09.37.37,0,0,1,.14.35V87.73a.37.37,0,0,1-.14.31.55.55,0,0,1-.32.1.51.51,0,0,1-.32-.1.34.34,0,0,1-.14-.31v-11Z"/><path class="cls-1" d="M117.42,75.32a.65.65,0,0,1,.48.2.61.61,0,0,1,.2.45.69.69,0,0,1-.2.48.71.71,0,0,1-1,0,.69.69,0,0,1-.2-.48.61.61,0,0,1,.2-.45A.66.66,0,0,1,117.42,75.32Zm0,4.09a.52.52,0,0,1,.33.1.32.32,0,0,1,.13.27v8a.37.37,0,0,1-.13.28.44.44,0,0,1-.33.13.42.42,0,0,1-.33-.13.39.39,0,0,1-.12-.28v-8a.34.34,0,0,1,.12-.27A.48.48,0,0,1,117.42,79.41Z"/><path class="cls-1" d="M121.23,87.73a.41.41,0,0,1-.13.28.44.44,0,0,1-.33.13.42.42,0,0,1-.33-.13.39.39,0,0,1-.12-.28v-8a.34.34,0,0,1,.12-.27.56.56,0,0,1,.64,0,.32.32,0,0,1,.13.27v.93a3,3,0,0,1,.91-1,2.69,2.69,0,0,1,1.57-.43,3.12,3.12,0,0,1,1.27.27,3.42,3.42,0,0,1,1.77,1.79,3.25,3.25,0,0,1,.27,1.32v5a.35.35,0,0,1-.15.31.53.53,0,0,1-.62,0,.37.37,0,0,1-.14-.31v-5a2.31,2.31,0,0,0-.19-.93,2.73,2.73,0,0,0-.54-.81,2.65,2.65,0,0,0-.79-.58,2.28,2.28,0,0,0-1-.21,2.35,2.35,0,0,0-.86.17,2.62,2.62,0,0,0-.77.5,2.42,2.42,0,0,0-.55.8,2.74,2.74,0,0,0-.2,1.06Z"/><path class="cls-1" d="M129.79,75.32a.66.66,0,0,1,.49.2.61.61,0,0,1,.2.45.69.69,0,0,1-.2.48.66.66,0,0,1-.49.2.62.62,0,0,1-.5-.2.69.69,0,0,1-.2-.48.61.61,0,0,1,.2-.45A.62.62,0,0,1,129.79,75.32Zm0,4.09a.53.53,0,0,1,.34.1.35.35,0,0,1,.13.27v8a.41.41,0,0,1-.13.28.45.45,0,0,1-.34.13.41.41,0,0,1-.32-.13.39.39,0,0,1-.12-.28v-8a.34.34,0,0,1,.12-.27A.47.47,0,0,1,129.79,79.41Z"/><path class="cls-1" d="M134.92,87.44a2.27,2.27,0,0,0,1.57-.43,1.29,1.29,0,0,0,.46-1,1.44,1.44,0,0,0-.34-1,2.49,2.49,0,0,0-.85-.59,8,8,0,0,0-1.11-.36,6.07,6.07,0,0,1-1.11-.41,2.46,2.46,0,0,1-.85-.68,1.84,1.84,0,0,1-.34-1.2,2.64,2.64,0,0,1,.15-.86,2.46,2.46,0,0,1,.5-.79,2.74,2.74,0,0,1,.87-.57,3.28,3.28,0,0,1,1.29-.22,4.88,4.88,0,0,1,.85.07,4.65,4.65,0,0,1,.76.2,2.73,2.73,0,0,1,.54.26c.15.1.22.2.22.3a.58.58,0,0,1-.12.31.36.36,0,0,1-.29.17.67.67,0,0,1-.26-.07l-.4-.18a4,4,0,0,0-.55-.17,3.26,3.26,0,0,0-.73-.08,2.32,2.32,0,0,0-.93.16,2.06,2.06,0,0,0-.61.39,1.27,1.27,0,0,0-.34.52,1.55,1.55,0,0,0-.1.54,1.11,1.11,0,0,0,.34.88,2.55,2.55,0,0,0,.86.49c.35.12.72.24,1.11.34a4.94,4.94,0,0,1,1.11.44,2.32,2.32,0,0,1,.86.76,2.24,2.24,0,0,1,.34,1.33,2.06,2.06,0,0,1-.75,1.68,3.28,3.28,0,0,1-2.13.61,4.52,4.52,0,0,1-1.16-.13,4.29,4.29,0,0,1-.88-.31,1.81,1.81,0,0,1-.56-.41.65.65,0,0,1-.2-.41.47.47,0,0,1,.11-.28.28.28,0,0,1,.23-.14.51.51,0,0,1,.29.14,3.53,3.53,0,0,0,.43.29,2.93,2.93,0,0,0,.66.3A3.44,3.44,0,0,0,134.92,87.44Z"/><path class="cls-1" d="M140.58,85.5a1.86,1.86,0,0,0,.42,1.39,2.15,2.15,0,0,0,1.48.4H143a.4.4,0,0,1,.31.12.46.46,0,0,1,0,.6.37.37,0,0,1-.31.13h-.47a3.1,3.1,0,0,1-2.1-.63,2.57,2.57,0,0,1-.71-2V75.56a.35.35,0,0,1,.15-.28.53.53,0,0,1,.3-.11.52.52,0,0,1,.32.11.37.37,0,0,1,.14.28v3.85H143a.32.32,0,0,1,.25.12.43.43,0,0,1,.1.29.39.39,0,0,1-.1.26.33.33,0,0,1-.25.13h-2.46Z"/><path class="cls-1" d="M147.85,79.3a3.32,3.32,0,0,1,1.28.25,3.32,3.32,0,0,1,1.81,1.75,3.4,3.4,0,0,1,.28,1.35,2.11,2.11,0,0,1-.13.8,1,1,0,0,1-.35.43,1.09,1.09,0,0,1-.51.16,5.68,5.68,0,0,1-.59,0h-4.29v.78a2.66,2.66,0,0,0,.22,1.07,2.37,2.37,0,0,0,.62.81,2.56,2.56,0,0,0,.95.51,3.76,3.76,0,0,0,1.19.18,3.38,3.38,0,0,0,.93-.11,2.71,2.71,0,0,0,1-.51.44.44,0,0,1,.29-.12.4.4,0,0,1,.3.15.5.5,0,0,1,.13.29.53.53,0,0,1-.19.35,2,2,0,0,1-.52.37,4.19,4.19,0,0,1-.85.29,4.72,4.72,0,0,1-1.11.12,4.54,4.54,0,0,1-1.55-.25,3.51,3.51,0,0,1-1.21-.69,3.23,3.23,0,0,1-.8-1.07,3.38,3.38,0,0,1-.28-1.41v-2.2a3.27,3.27,0,0,1,.26-1.29,3.53,3.53,0,0,1,.73-1,3.57,3.57,0,0,1,1.09-.72A3.25,3.25,0,0,1,147.85,79.3Zm1.44,4a1.85,1.85,0,0,0,.83-.12q.21-.12.21-.54a2.56,2.56,0,0,0-.18-.93,2.15,2.15,0,0,0-.51-.81,2.65,2.65,0,0,0-.78-.58,2.37,2.37,0,0,0-1-.22,2.47,2.47,0,0,0-1,.2,2.64,2.64,0,0,0-.79.52,2.48,2.48,0,0,0-.52.78,2.33,2.33,0,0,0-.2.94v.76Zm-2.18-6.25a.33.33,0,0,1-.19.06.39.39,0,0,1-.28-.13.44.44,0,0,1-.12-.3.27.27,0,0,1,.16-.28l2-1.13a.4.4,0,0,1,.15,0,.29.29,0,0,1,.26.13.55.55,0,0,1,.09.29.42.42,0,0,1-.2.37Z"/><path class="cls-1" d="M156.53,80.15a2.48,2.48,0,0,0-.93.18,2.62,2.62,0,0,0-1.36,1.39,2.88,2.88,0,0,0-.21,1.13v4.88a.37.37,0,0,1-.13.28.44.44,0,0,1-.33.13.42.42,0,0,1-.33-.13.39.39,0,0,1-.12-.28v-8a.34.34,0,0,1,.12-.27.56.56,0,0,1,.64,0,.32.32,0,0,1,.13.27v.94a3.32,3.32,0,0,1,.94-1,2.73,2.73,0,0,1,1.58-.44h.66a.4.4,0,0,1,.29.12.41.41,0,0,1,.12.3.41.41,0,0,1-.12.31.4.4,0,0,1-.29.12Z"/><path class="cls-1" d="M159.47,75.32a.65.65,0,0,1,.48.2.61.61,0,0,1,.2.45.69.69,0,0,1-.2.48.71.71,0,0,1-1,0,.69.69,0,0,1-.2-.48.61.61,0,0,1,.2-.45A.66.66,0,0,1,159.47,75.32Zm0,4.09a.52.52,0,0,1,.33.1.32.32,0,0,1,.13.27v8a.37.37,0,0,1-.13.28.44.44,0,0,1-.33.13.42.42,0,0,1-.33-.13.39.39,0,0,1-.12-.28v-8a.34.34,0,0,1,.12-.27A.48.48,0,0,1,159.47,79.41Z"/><path class="cls-1" d="M165.41,79.3a3.17,3.17,0,0,1,1.29.27,3.64,3.64,0,0,1,1.08.72,3.23,3.23,0,0,1,.75,1.07,3.1,3.1,0,0,1,.28,1.32v2.15a3.09,3.09,0,0,1-.28,1.29,3.54,3.54,0,0,1-.75,1.09,3.73,3.73,0,0,1-1.08.75,2.9,2.9,0,0,1-1.29.29,3,3,0,0,1-1.3-.28,3.34,3.34,0,0,1-1.07-.75,3.45,3.45,0,0,1-.74-1.09,3,3,0,0,1-.28-1.3V82.68a3.17,3.17,0,0,1,.27-1.29,3.56,3.56,0,0,1,1.8-1.81A3.1,3.1,0,0,1,165.41,79.3Zm2.49,3.38a2.31,2.31,0,0,0-.19-.93,2.73,2.73,0,0,0-.54-.81,2.65,2.65,0,0,0-.79-.58,2.37,2.37,0,0,0-1.95,0,2.48,2.48,0,0,0-.78.58,2.91,2.91,0,0,0-.53.81,2.31,2.31,0,0,0-.19.93v2.15a2.45,2.45,0,0,0,.19,1,2.87,2.87,0,0,0,.53.83,2.46,2.46,0,0,0,.78.57,2.37,2.37,0,0,0,1.95,0,2.61,2.61,0,0,0,.79-.57,2.7,2.7,0,0,0,.54-.83,2.45,2.45,0,0,0,.19-1Z"/><path class="cls-1" d="M180.52,74a.46.46,0,0,1,.32.11.36.36,0,0,1,.12.28V87.73a.43.43,0,0,1-.44.41.4.4,0,0,1-.31-.13.37.37,0,0,1-.13-.28v-.88a2.76,2.76,0,0,1-1,1,2.92,2.92,0,0,1-1.53.41A2.77,2.77,0,0,1,176.3,88a3.68,3.68,0,0,1-1-.75,3.45,3.45,0,0,1-.72-1.09,3.25,3.25,0,0,1-.27-1.29V82.68a3.25,3.25,0,0,1,.27-1.32,3.16,3.16,0,0,1,.72-1.07,3.5,3.5,0,0,1,1.05-.72,3.11,3.11,0,0,1,1.29-.27,2.56,2.56,0,0,1,1.53.43,3.18,3.18,0,0,1,.93,1V74.36a.34.34,0,0,1,.13-.28A.49.49,0,0,1,180.52,74Zm-5.35,10.86a2.46,2.46,0,0,0,.2,1,2.87,2.87,0,0,0,.53.83,2.61,2.61,0,0,0,.79.57,2.19,2.19,0,0,0,.94.21,2.13,2.13,0,0,0,1-.22,3,3,0,0,0,.76-.53,2.32,2.32,0,0,0,.51-.64,1.13,1.13,0,0,0,.19-.55V82.68a2.42,2.42,0,0,0-.22-1.06,2.56,2.56,0,0,0-.54-.8,2.49,2.49,0,0,0-.77-.5,2.46,2.46,0,0,0-.88-.17,2.29,2.29,0,0,0-1,.21,2.65,2.65,0,0,0-.79.58,2.88,2.88,0,0,0-.52.81,2.32,2.32,0,0,0-.2.93Z"/><path class="cls-1" d="M185.81,79.3a3.55,3.55,0,0,1,1.5.29,2.71,2.71,0,0,1,1,.8,3.36,3.36,0,0,1,.55,1.14,5.19,5.19,0,0,1,.16,1.32v4.88a.38.38,0,0,1-.12.29.44.44,0,0,1-.32.12.45.45,0,0,1-.32-.12.39.39,0,0,1-.13-.29v-.88a5.91,5.91,0,0,1-1.16,1,2.94,2.94,0,0,1-1.61.43,3.22,3.22,0,0,1-1-.15,2.14,2.14,0,0,1-.81-.45,1.94,1.94,0,0,1-.55-.76,2.71,2.71,0,0,1-.19-1.08,2,2,0,0,1,1.19-2,4.86,4.86,0,0,1,1.36-.39,13.38,13.38,0,0,1,1.76-.11h1v-.48a4.11,4.11,0,0,0-.13-1,2.85,2.85,0,0,0-.41-.88,2.19,2.19,0,0,0-.72-.63,2.27,2.27,0,0,0-1.08-.24,3.34,3.34,0,0,0-.76.08c-.22.06-.4.12-.56.18l-.38.17a.51.51,0,0,1-.24.09.32.32,0,0,1-.3-.18.62.62,0,0,1-.11-.32c0-.1.08-.2.22-.31a2.17,2.17,0,0,1,.55-.27,5.07,5.07,0,0,1,.77-.2A4.88,4.88,0,0,1,185.81,79.3Zm2.3,4.77h-.91c-.46,0-.9,0-1.31.05a4,4,0,0,0-1.12.22,1.76,1.76,0,0,0-.78.52,1.38,1.38,0,0,0-.29.91,1.51,1.51,0,0,0,.51,1.27,2,2,0,0,0,1.27.4,2.45,2.45,0,0,0,1-.2,2.71,2.71,0,0,0,.84-.5,2.76,2.76,0,0,0,.6-.64,1.17,1.17,0,0,0,.24-.66Z"/><path class="cls-1" d="M198.17,87.36a3.16,3.16,0,0,0,2.19-.69,2.7,2.7,0,0,0,.75-2.08,3.23,3.23,0,0,0-.26-1.38,2.9,2.9,0,0,0-.71-.91,4.06,4.06,0,0,0-1-.59c-.37-.15-.75-.3-1.14-.43s-.76-.29-1.13-.45a3.82,3.82,0,0,1-1-.61,2.56,2.56,0,0,1-.71-.93,3.87,3.87,0,0,1,.09-3.05,2.78,2.78,0,0,1,.92-1,3.54,3.54,0,0,1,1.22-.5,5.83,5.83,0,0,1,1.28-.14,7.88,7.88,0,0,1,1.09.08,5.64,5.64,0,0,1,1,.23,2.68,2.68,0,0,1,.7.35.51.51,0,0,1,.27.39.7.7,0,0,1-.12.35.36.36,0,0,1-.31.19.74.74,0,0,1-.3-.11l-.5-.24a4.75,4.75,0,0,0-.75-.24,4.16,4.16,0,0,0-1.06-.11,5.14,5.14,0,0,0-1,.1,2.41,2.41,0,0,0-.9.37,2.11,2.11,0,0,0-.65.71,2.25,2.25,0,0,0-.25,1.13,2,2,0,0,0,.46,1.42,3.48,3.48,0,0,0,1.15.82,11.28,11.28,0,0,0,1.49.55,5.93,5.93,0,0,1,1.49.68,3.61,3.61,0,0,1,1.15,1.18,3.87,3.87,0,0,1,.46,2,4.56,4.56,0,0,1-.29,1.69,3.16,3.16,0,0,1-.78,1.17,3,3,0,0,1-1.2.68,5.15,5.15,0,0,1-1.51.21,5.38,5.38,0,0,1-1.57-.21,4.81,4.81,0,0,1-1.16-.52,2.49,2.49,0,0,1-.71-.64,1,1,0,0,1-.24-.55.56.56,0,0,1,.14-.35.39.39,0,0,1,.29-.17c.11,0,.22.08.34.24a3.88,3.88,0,0,0,.5.54,3,3,0,0,0,.87.53A3.65,3.65,0,0,0,198.17,87.36Z"/><path class="cls-1" d="M206.5,79.3a3.55,3.55,0,0,1,1.5.29,2.89,2.89,0,0,1,1,.8,3.16,3.16,0,0,1,.54,1.14,5.19,5.19,0,0,1,.17,1.32v4.88a.38.38,0,0,1-.12.29.44.44,0,0,1-.32.12.45.45,0,0,1-.32-.12.36.36,0,0,1-.13-.29v-.88a5.91,5.91,0,0,1-1.16,1,3,3,0,0,1-1.61.43,3.22,3.22,0,0,1-1-.15,2.27,2.27,0,0,1-.82-.45,2,2,0,0,1-.54-.76,2.7,2.7,0,0,1-.2-1.08,2,2,0,0,1,1.2-2,4.76,4.76,0,0,1,1.36-.39,13.34,13.34,0,0,1,1.75-.11h1v-.48a3.65,3.65,0,0,0-.13-1,2.62,2.62,0,0,0-.4-.88,2.19,2.19,0,0,0-.72-.63,2.27,2.27,0,0,0-1.08-.24,3.5,3.5,0,0,0-.77.08c-.21.06-.4.12-.55.18l-.38.17a.51.51,0,0,1-.24.09.33.33,0,0,1-.31-.18.7.7,0,0,1-.1-.32c0-.1.07-.2.22-.31a2.17,2.17,0,0,1,.55-.27,4.8,4.8,0,0,1,1.62-.27Zm2.29,4.77h-.9c-.46,0-.9,0-1.32.05a4.12,4.12,0,0,0-1.12.22,1.78,1.78,0,0,0-.77.52,1.38,1.38,0,0,0-.29.91A1.51,1.51,0,0,0,204.9,87a2,2,0,0,0,1.27.4,2.49,2.49,0,0,0,1-.2,3,3,0,0,0,.84-.5,2.76,2.76,0,0,0,.6-.64,1.15,1.15,0,0,0,.23-.66Z"/><path class="cls-1" d="M215.36,88.25A3.1,3.1,0,0,1,214,88a3.36,3.36,0,0,1-1.07-.74,3.27,3.27,0,0,1-.73-1.08,3.33,3.33,0,0,1-.26-1.28V79.8a.35.35,0,0,1,.13-.27.45.45,0,0,1,.33-.12.48.48,0,0,1,.31.12.35.35,0,0,1,.13.27v5.07a2.41,2.41,0,0,0,.2.94,2.63,2.63,0,0,0,.53.82,2.59,2.59,0,0,0,.78.56,2.29,2.29,0,0,0,1,.21,2.25,2.25,0,0,0,1-.21,2.51,2.51,0,0,0,.79-.56,2.91,2.91,0,0,0,.53-.81,2.37,2.37,0,0,0,.19-.95V79.78a.33.33,0,0,1,.14-.26.55.55,0,0,1,.33-.11.48.48,0,0,1,.32.11.34.34,0,0,1,.12.26v5.09a3.17,3.17,0,0,1-.27,1.29,3.33,3.33,0,0,1-.73,1.07,3.52,3.52,0,0,1-1.08.74A3.12,3.12,0,0,1,215.36,88.25Zm-.7-11.19a.33.33,0,0,1-.19.06.39.39,0,0,1-.28-.13.44.44,0,0,1-.12-.3.27.27,0,0,1,.16-.28l2-1.13a.4.4,0,0,1,.15,0,.29.29,0,0,1,.26.13.55.55,0,0,1,.09.29.4.4,0,0,1-.2.37Z"/><path class="cls-1" d="M227,74a.46.46,0,0,1,.32.11.36.36,0,0,1,.12.28V87.73a.43.43,0,0,1-.44.41.4.4,0,0,1-.31-.13.37.37,0,0,1-.13-.28v-.88a2.76,2.76,0,0,1-1,1,2.92,2.92,0,0,1-1.53.41A2.77,2.77,0,0,1,222.8,88a3.68,3.68,0,0,1-1-.75,3.45,3.45,0,0,1-.72-1.09,3.25,3.25,0,0,1-.27-1.29V82.68a3.25,3.25,0,0,1,.27-1.32,3.16,3.16,0,0,1,.72-1.07,3.5,3.5,0,0,1,1.05-.72,3.11,3.11,0,0,1,1.29-.27,2.56,2.56,0,0,1,1.53.43,3.18,3.18,0,0,1,.93,1V74.36a.34.34,0,0,1,.13-.28A.49.49,0,0,1,227,74Zm-5.35,10.86a2.46,2.46,0,0,0,.2,1,2.87,2.87,0,0,0,.53.83,2.61,2.61,0,0,0,.79.57,2.19,2.19,0,0,0,.94.21,2.13,2.13,0,0,0,1-.22,3,3,0,0,0,.76-.53,2.32,2.32,0,0,0,.51-.64,1.13,1.13,0,0,0,.19-.55V82.68a2.42,2.42,0,0,0-.22-1.06,2.56,2.56,0,0,0-.54-.8,2.49,2.49,0,0,0-.77-.5,2.46,2.46,0,0,0-.88-.17,2.29,2.29,0,0,0-1,.21,2.65,2.65,0,0,0-.79.58,2.88,2.88,0,0,0-.52.81,2.32,2.32,0,0,0-.2.93Z"/><path class="cls-1" d="M233,79.3a3.23,3.23,0,0,1,1.27.25,3.38,3.38,0,0,1,1.08.69,3.66,3.66,0,0,1,.74,1.06,3.39,3.39,0,0,1,.27,1.35,1.93,1.93,0,0,1-.13.8.89.89,0,0,1-.35.43,1,1,0,0,1-.51.16,5.49,5.49,0,0,1-.58,0h-4.29v.78a2.5,2.5,0,0,0,.22,1.07,2.37,2.37,0,0,0,.62.81,2.56,2.56,0,0,0,1,.51,3.76,3.76,0,0,0,1.19.18,3.38,3.38,0,0,0,.93-.11,3.07,3.07,0,0,0,.59-.25,2.24,2.24,0,0,0,.38-.26.48.48,0,0,1,.3-.12.4.4,0,0,1,.3.15.5.5,0,0,1,.13.29.58.58,0,0,1-.19.35,2,2,0,0,1-.53.37,4.31,4.31,0,0,1-.84.29,4.72,4.72,0,0,1-1.11.12,4.5,4.5,0,0,1-1.55-.25,3.51,3.51,0,0,1-1.21-.69,3.23,3.23,0,0,1-.8-1.07,3.38,3.38,0,0,1-.29-1.41v-2.2a3.11,3.11,0,0,1,.27-1.29,3.36,3.36,0,0,1,.73-1,3.57,3.57,0,0,1,1.09-.72A3.25,3.25,0,0,1,233,79.3Zm1.44,4a1.85,1.85,0,0,0,.83-.12q.21-.12.21-.54a2.56,2.56,0,0,0-.18-.93,2.42,2.42,0,0,0-.51-.81,2.65,2.65,0,0,0-.78-.58,2.41,2.41,0,0,0-1-.22,2.47,2.47,0,0,0-1,.2,2.43,2.43,0,0,0-1.32,1.3,2.32,2.32,0,0,0-.19.94v.76Z"/><path class="cls-1" d="M242.33,39.69h2.19a.33.33,0,0,1,.3.16.6.6,0,0,1,.1.35.62.62,0,0,1-.09.32.35.35,0,0,1-.31.15h-2.19v3.57h4.34a.34.34,0,0,1,.3.16.71.71,0,0,1,.11.39.65.65,0,0,1-.1.36.35.35,0,0,1-.31.16h-5a.66.66,0,0,1-.36-.11.33.33,0,0,1-.17-.31v-9.4a.33.33,0,0,1,.17-.31.66.66,0,0,1,.36-.11h5a.35.35,0,0,1,.31.16.65.65,0,0,1,.1.36A.71.71,0,0,1,247,36a.34.34,0,0,1-.3.16h-4.34Z"/><path class="cls-1" d="M248.35,35.48a.41.41,0,0,1,.13-.28.48.48,0,0,1,.35-.13h2.65a4.39,4.39,0,0,1,1.16.16,2.4,2.4,0,0,1,.94.52,2.36,2.36,0,0,1,.63.94,3.72,3.72,0,0,1,.23,1.41v.12a3.63,3.63,0,0,1-.23,1.4,2.38,2.38,0,0,1-.64.94,2.62,2.62,0,0,1-1,.53,3.78,3.78,0,0,1-1.18.17h-1.89v3.63a.33.33,0,0,1-.18.31.81.81,0,0,1-.41.11.77.77,0,0,1-.4-.11.33.33,0,0,1-.19-.31Zm1.18.66v4.14h1.89a1.83,1.83,0,0,0,1.36-.49,2.08,2.08,0,0,0,.49-1.5v-.16a2.06,2.06,0,0,0-.49-1.51,1.87,1.87,0,0,0-1.36-.48Z"/><path class="cls-1" d="M257,39.69h2.18a.33.33,0,0,1,.3.16.61.61,0,0,1,.11.35.55.55,0,0,1-.1.32.34.34,0,0,1-.31.15H257v3.57h4.34a.35.35,0,0,1,.3.16.71.71,0,0,1,.11.39.75.75,0,0,1-.1.36.36.36,0,0,1-.31.16h-5a.7.7,0,0,1-.37-.11.34.34,0,0,1-.17-.31v-9.4a.34.34,0,0,1,.17-.31.7.7,0,0,1,.37-.11h5a.36.36,0,0,1,.31.16.75.75,0,0,1,.1.36.71.71,0,0,1-.11.39.35.35,0,0,1-.3.16H257Z"/><path class="cls-1" d="M116.6,41.11a9.66,9.66,0,0,0,6.26-1.9c1.57-1.25,2.35-3.19,2.35-5.79a7.36,7.36,0,0,0-1.51-4.9,12.51,12.51,0,0,0-3.79-3,39.08,39.08,0,0,0-4.89-2.1,25.4,25.4,0,0,1-4.9-2.33,12.72,12.72,0,0,1-3.79-3.59,10.44,10.44,0,0,1-1.51-6,11.26,11.26,0,0,1,1.27-5.64,10,10,0,0,1,3.25-3.53,12.91,12.91,0,0,1,4.4-1.83A22.32,22.32,0,0,1,118.46,0,26.69,26.69,0,0,1,122,.25a20.76,20.76,0,0,1,3.5.74,9.41,9.41,0,0,1,2.7,1.27,2.25,2.25,0,0,1,1.09,1.83,3.88,3.88,0,0,1-.59,1.8,1.82,1.82,0,0,1-1.65,1.05,2.4,2.4,0,0,1-1.2-.37,17.55,17.55,0,0,0-1.62-.8A15.49,15.49,0,0,0,121.9,5a13.5,13.5,0,0,0-3.44-.37,14.69,14.69,0,0,0-3.26.34A8.26,8.26,0,0,0,112.54,6a5.39,5.39,0,0,0-1.83,2,6.16,6.16,0,0,0-.69,3,5.48,5.48,0,0,0,1.52,4.09,13.1,13.1,0,0,0,3.79,2.51c1.5.68,3.14,1.33,4.89,1.95a21.09,21.09,0,0,1,4.9,2.48,12.94,12.94,0,0,1,3.78,4.09,13,13,0,0,1,1.52,6.76,15,15,0,0,1-1,5.8,11,11,0,0,1-2.82,4.06,11.44,11.44,0,0,1-4.28,2.39,18.42,18.42,0,0,1-5.46.77,19.54,19.54,0,0,1-5.42-.71,16.29,16.29,0,0,1-4.15-1.8,10.17,10.17,0,0,1-2.64-2.29,3.76,3.76,0,0,1-.93-2.2,3.21,3.21,0,0,1,.71-1.89,1.71,1.71,0,0,1,3-.19,18.31,18.31,0,0,0,1.86,1.74,12.19,12.19,0,0,0,2.88,1.73A11,11,0,0,0,116.6,41.11Z"/><path class="cls-1" d="M137.18,1.92a1.73,1.73,0,0,1,.56-1.24,2.1,2.1,0,0,1,1.55-.56H151a17.94,17.94,0,0,1,5.14.72,10.76,10.76,0,0,1,4.19,2.29,10.81,10.81,0,0,1,2.79,4.16,16.9,16.9,0,0,1,1,6.23v.55a16.66,16.66,0,0,1-1,6.2,10.9,10.9,0,0,1-2.85,4.16A11.39,11.39,0,0,1,156,26.78a17.84,17.84,0,0,1-5.24.75h-8.37V43.59a1.5,1.5,0,0,1-.81,1.39,3.53,3.53,0,0,1-1.8.47A3.49,3.49,0,0,1,138,45a1.5,1.5,0,0,1-.81-1.39Zm5.21,2.92V23.19h8.37a8.14,8.14,0,0,0,6-2.17q2.17-2.18,2.17-6.64v-.74q0-4.53-2.17-6.67a8.2,8.2,0,0,0-6-2.13Z"/><path class="cls-1" d="M188.83,28.64a2.82,2.82,0,0,1-1,1.12,2.07,2.07,0,0,1-1.08.31,1.82,1.82,0,0,1-1-.31,2.93,2.93,0,0,1-.93-1.12l-9.3-17.85v32.8a1.5,1.5,0,0,1-.81,1.39,3.55,3.55,0,0,1-1.8.47,3.49,3.49,0,0,1-1.79-.47,1.5,1.5,0,0,1-.81-1.39V2.67a2.3,2.3,0,0,1,.77-2A3.08,3.08,0,0,1,173,.12a3.39,3.39,0,0,1,2.36.84,9.2,9.2,0,0,1,1.8,2.45l9.73,18.66,9.8-18.66A9.2,9.2,0,0,1,198.44,1a3.37,3.37,0,0,1,2.35-.84,3,3,0,0,1,1.83.56,2.28,2.28,0,0,1,.78,2V43.59a1.5,1.5,0,0,1-.81,1.39A3.66,3.66,0,0,1,199,45a1.5,1.5,0,0,1-.81-1.39V11Z"/><path class="cls-1" d="M222.75,41.11a9.66,9.66,0,0,0,6.26-1.9c1.57-1.25,2.36-3.19,2.36-5.79a7.37,7.37,0,0,0-1.52-4.9,12.59,12.59,0,0,0-3.78-3,39.24,39.24,0,0,0-4.9-2.1,25.4,25.4,0,0,1-4.9-2.33,12.72,12.72,0,0,1-3.79-3.59,10.44,10.44,0,0,1-1.52-6,11.26,11.26,0,0,1,1.28-5.64,10,10,0,0,1,3.25-3.53A13,13,0,0,1,219.9.53,22.15,22.15,0,0,1,224.61,0a26.69,26.69,0,0,1,3.56.25,21.1,21.1,0,0,1,3.51.74,9.47,9.47,0,0,1,2.69,1.27,2.23,2.23,0,0,1,1.09,1.83,3.88,3.88,0,0,1-.59,1.8,1.81,1.81,0,0,1-1.64,1.05A2.41,2.41,0,0,1,232,6.57a17.24,17.24,0,0,0-1.61-.8A16.05,16.05,0,0,0,228.05,5a13.5,13.5,0,0,0-3.44-.37,14.76,14.76,0,0,0-3.26.34A8.26,8.26,0,0,0,218.69,6a5.39,5.39,0,0,0-1.83,2,6.16,6.16,0,0,0-.69,3,5.48,5.48,0,0,0,1.52,4.09,13.1,13.1,0,0,0,3.79,2.51q2.27,1,4.9,1.95a21.22,21.22,0,0,1,4.89,2.48,13.08,13.08,0,0,1,3.79,4.09,13.15,13.15,0,0,1,1.51,6.76,15,15,0,0,1-1,5.8,11,11,0,0,1-2.82,4.06,11.36,11.36,0,0,1-4.28,2.39,18.4,18.4,0,0,1-5.45.77,19.56,19.56,0,0,1-5.43-.71,16.53,16.53,0,0,1-4.16-1.8,10.28,10.28,0,0,1-2.63-2.29,3.76,3.76,0,0,1-.93-2.2,3.14,3.14,0,0,1,.71-1.89,1.71,1.71,0,0,1,3-.19,18.31,18.31,0,0,0,1.86,1.74,12.4,12.4,0,0,0,2.88,1.73A11,11,0,0,0,222.75,41.11Z"/><rect class="cls-1" x="84.82" y="0.12" width="1" height="88.01"/><path class="cls-2" d="M66.86,34.21l-.09-.2-11-16L44.85,11.92l-9.12-1.81-8.46.57-9.71,3.45-4.94,3.3L6,24.41l-3,4.4L.7,34,0,39.58l.52,8.06.26,5.14,3.45,6.43,3.15,6.55.09.14,7.91,7,6.37,3.21,7.88,2,9-.09,9.23-2.7,9.18-6.11,7.31-9.84.08-.17,3.35-12.31,0-.25ZM51.14,35.62l-.25-7.48,8,7.86Zm8,1.33-5.33,6.71-2.5-7.09Zm-8.2-10,3.7-5.26c.79,2.55,2.94,9.45,4.17,13Zm-.24-1.27-.39-4.8L54,21Zm-.11,11.69,2.48,7-6.88,3.31Zm2.59,8V56.69l-7.13-7.9ZM38.59,31.64,31.21,29l6.1-3.69Zm-.43-7.79L38.59,19l9.34,1.5Zm.07,1.27,10.68,2.06-9.36,4.5Zm-7.58,4.64,7.91,2.86L31.88,46.18ZM31,47.33,24.81,46l5-14.59Zm.16-19.44,1.51-3.33,3.47.31Zm6-3.87-3.74-.33,4.12-4Zm-4.84-.56-5.9-4.32L37,19Zm-2.54,5.15-8.58.19,10.27-3.89Zm-.36.94L24.2,44.84l-5-15.05Zm-6.4,14.86-5.8-6.24,1.38-7Zm-.79.51C18,43,11.47,40.11,9.7,39.53l-.12-4,6.9,3.15Zm.16,1.1L9.1,47.49c.11-3.34.3-6.23.42-7.05C11,40.93,16.78,43.48,22.44,46Zm.79.86-4.52,6.53-8.65-5.09Zm.69.64,1.81,11.32-6.25-4.91Zm.85-.61,6.12,1.35-4.3,10Zm7,1.6,5.32,1.77-9.53,8Zm.83-.71,15.52-9.61L37.92,49.56Zm0-1.13,6.78-13.74L49.58,36.2Zm7.79-14.4,9.47-4.55.25,7.7Zm-1-7.87,10-3.4.43,5.41ZM39,18.15l3.11-3.85,6.16,5.35Zm-.92-.35-4.95-4.71,8,.91ZM37,18l-10.74.17,5.55-5.1Zm-5.58,5.9L19.65,28.41l5.55-9Zm-13,4.73-4-2.7,9.22-5.81Zm-.38.88L16.7,36.22,14.31,27Zm-2,7.93L9.73,34.59l3.67-7.32Zm-3.87-9.87L8.81,34.33,4,34.05ZM4.44,32.5l4.73-7.83,3.45,1.41Zm4.2,2.75.1,3.62L4.1,35ZM9,48.8l8.75,5.14L8.41,57.51Zm8.29,6.31-7.25,8.54-1.6-5.16Zm1.25,0,1.31,7.34-8.82,1.49ZM20,63.36v1l-5.18-.11Zm-.44-8.21,6,4.69-4.73,2.28ZM23.09,62,20.9,63.85V63.1Zm3.13-1.36,3.55,7.39-8.42-3.38Zm1.63,1.25,9.06,8.3L31,68.56Zm.63-.7,16.75,6.32-6.47,3.11Zm-1.19-1.45L37.9,50.85l7.59,15.79Zm11.45-9.34,6.15-1.23.93,15.95ZM45,48.23l-5.64,1.14,9.8-10.9Zm8.09,9.7L46.81,66.2l-.94-16.26Zm.75.56L58.92,61,48,66.23Zm.93-.58,8.25-4-3.22,6.4Zm-.61-.75,0-11.57,9,7.24Zm6-19.86L66.35,46,54.57,44.27ZM56,22.68l9.62,11.4L60.35,36C59.75,34.55,57.83,28.6,56,22.68Zm-.32-3.17,5,7.23-5.26-6.23Zm-.73-.86-.33,1.16-5.44-4.4Zm-1.48,1.43-3.33-.17-3.53-5.38Zm-5.83-2.27L42.9,13.72l1.5-.82ZM43.2,12.5l-1.13.61-2.86-1.39Zm-7.43-1.41,3.65,1.77-5.92-.67Zm-2.39.12L31.8,12,30,11.44Zm-6.07.43,2.33.68-7.19,1Zm3.09,1.51-5.4,5-5.78-3.33Zm-12.46,2,5.87,3.38L13.52,20.92ZM13.4,18l2.36-1.57L13.1,19.94Zm9,1.77-8.63,5.43L12.94,22Zm-9.61,5.37L9.94,24l2.14-1.52Zm-.68-5.25-.23,1.5-1.3.92Zm-2.09,1.56-1.38,2.2-.93.23ZM6.61,25.15,7.37,25,5.63,26.58Zm-3,4.39,3.22-2.78L3.26,32.62Zm-.53,5.81,5.48,4.57L1.62,46.39Zm-1.7-1L3,30.14l-.81,4.19L1,37.74ZM.91,39.84l.9-2.1L1.13,43ZM1.7,52.6l-.07-1.45,1,3.22Zm-.18-4.84,7-6.55c-.22,2.17-.35,6-.37,6.71L4.67,57.54Zm6.39,3.57-.46,6.5-2.07.5Zm-.34,7.43,1.25,4L5.53,59.25ZM6.4,61.56l2.69,2.89L8,65ZM8.65,65.7l1.07-.51,3,4.14Zm2.15-.61,8.82.19-3.94,6.45Zm5.58,7.29,3.78-6.19,1.17,8.67Zm5.95,2.91-1.17-8.68,7.37,10.22Zm7,1.06L21.77,65.86l8.44,3.39Zm1.77-6.8,6.5,1.85-7.36,5.2ZM38.55,77l-7.4.08,7.54-5.33,4.85,3.1Zm1.09-5.76,6.08-2.92-1.48,5.87Zm7.18-3.45,10.47-5L45.37,73.58Zm.83,6.51-.91,0,3.44-1.74Zm9.16-6.92c-.24.6-.37.9-.43,1.07l-.37.18L47.42,73,58.77,62.71Zm1.79-1.88c.6-1.43,1.27-3,1.76-4.22l2.14-1Zm4.94-6.79L61,60l2.54-5Zm1-3.28V53l1.32-2.48Zm-.6-3.25-8.56-6.88L66.65,47Zm-3-15.45L66,34.94,66.78,45Z"/></g></g></svg>