<svg xmlns="http://www.w3.org/2000/svg" viewBox="0 0 125 125"><defs><style>.cls-1{fill:#e6e6e6;}.cls-2{fill:#333;}</style></defs><title>bic</title><g id="Camada_2" data-name="Camada 2"><g id="Camada_1-2" data-name="Camada 1"><rect class="cls-1" width="125" height="125"/><path class="cls-2" d="M55.4,67.74a6.63,6.63,0,0,1-.7,3.08,7,7,0,0,1-1.88,2.3A8.47,8.47,0,0,1,50,74.56a11.32,11.32,0,0,1-3.4.5H33.08V46.66H47.72a5.62,5.62,0,0,1,2.68.64,6.7,6.7,0,0,1,2,1.66,7.59,7.59,0,0,1,1.3,2.32,7.82,7.82,0,0,1,.46,2.62,7.62,7.62,0,0,1-1.06,3.9,6.47,6.47,0,0,1-3,2.7A7.22,7.22,0,0,1,54,63.12,7.51,7.51,0,0,1,55.4,67.74ZM37.56,50.54V58.9H45.8a3.65,3.65,0,0,0,1.54-.32,4.23,4.23,0,0,0,1.24-.86,3.78,3.78,0,0,0,.84-1.3,4.53,4.53,0,0,0,.3-1.68,4.4,4.4,0,0,0-1-3A3.37,3.37,0,0,0,46,50.54ZM50.8,66.9a4.87,4.87,0,0,0-1.1-3.08,3.76,3.76,0,0,0-1.22-1,3.45,3.45,0,0,0-1.56-.36H37.56v8.68h9.08a4,4,0,0,0,1.64-.34,4.19,4.19,0,0,0,1.32-.92,4.33,4.33,0,0,0,1.2-3Z"/><path class="cls-2" d="M60.08,75.06V46.66h4.48v28.4Z"/><path class="cls-2" d="M69.16,60.66a14.89,14.89,0,0,1,.92-5.1A14.08,14.08,0,0,1,72.78,51a13.6,13.6,0,0,1,4.34-3.26,13.13,13.13,0,0,1,5.8-1.24,12.31,12.31,0,0,1,6.64,1.72,11.17,11.17,0,0,1,4.16,4.48L90.2,55.06a8.07,8.07,0,0,0-1.44-2.16,7,7,0,0,0-1.84-1.4,7.92,7.92,0,0,0-2.08-.74,10.43,10.43,0,0,0-2.08-.22,8.18,8.18,0,0,0-3.92.9A8.73,8.73,0,0,0,76,53.82a10.64,10.64,0,0,0-1.72,3.32,12.18,12.18,0,0,0-.58,3.68,11.56,11.56,0,0,0,.68,4,10.7,10.7,0,0,0,1.9,3.32,9.31,9.31,0,0,0,2.9,2.3,7.94,7.94,0,0,0,3.68.86A9.26,9.26,0,0,0,85,71a8,8,0,0,0,2.12-.84A8.49,8.49,0,0,0,89,68.7a7.34,7.34,0,0,0,1.42-2.12l3.72,2.12a8.68,8.68,0,0,1-1.92,2.82,12.24,12.24,0,0,1-2.8,2.06,14.38,14.38,0,0,1-3.3,1.28,13.89,13.89,0,0,1-3.42.44A11.76,11.76,0,0,1,77.24,74,14.35,14.35,0,0,1,73,70.68,15.38,15.38,0,0,1,70.16,66,14.87,14.87,0,0,1,69.16,60.66Z"/></g></g></svg>