<svg xmlns="http://www.w3.org/2000/svg" viewBox="0 0 320 51"><defs><style>.cls-1{fill:#f2f2f2;}.cls-2{fill:#567485;}</style></defs><title>Botaopesquisar</title><g id="Layer_2" data-name="Layer 2"><g id="Camada_1" data-name="Camada 1"><rect class="cls-1" width="320" height="51"/><path class="cls-2" d="M140.9,30.81V20.16h4.47a3,3,0,0,1,1.33.3,3.26,3.26,0,0,1,1,.79,3.71,3.71,0,0,1,.69,1.11,3.45,3.45,0,0,1,.24,1.27,3.55,3.55,0,0,1-.23,1.29,3.42,3.42,0,0,1-.65,1.11,3.08,3.08,0,0,1-1,.78,2.9,2.9,0,0,1-1.32.29h-2.88v3.71Zm1.68-5.19h2.78a1.38,1.38,0,0,0,.65-.15,1.44,1.44,0,0,0,.5-.42,2.1,2.1,0,0,0,.33-.63,2.47,2.47,0,0,0,.12-.79,2.31,2.31,0,0,0-.13-.82,2,2,0,0,0-.38-.62,1.72,1.72,0,0,0-.54-.4,1.46,1.46,0,0,0-.64-.15h-2.69Z"/><path class="cls-2" d="M157.55,29.32v1.49h-7.3V20.16h7.17v1.48h-5.49v3h4.75v1.4h-4.75v3.25Z"/><path class="cls-2" d="M165.37,22.67a2.17,2.17,0,0,0-.44-.36,5,5,0,0,0-.66-.35,5.16,5.16,0,0,0-.84-.27,4.24,4.24,0,0,0-.94-.11,2.55,2.55,0,0,0-1.57.39,1.28,1.28,0,0,0-.5,1.08,1.13,1.13,0,0,0,.16.64,1.29,1.29,0,0,0,.48.44,4.47,4.47,0,0,0,.83.33l1.15.3a13.66,13.66,0,0,1,1.47.44,4.22,4.22,0,0,1,1.1.58,2.5,2.5,0,0,1,.7.85,2.85,2.85,0,0,1,.24,1.22,3,3,0,0,1-.3,1.4,2.66,2.66,0,0,1-.84.95,3.57,3.57,0,0,1-1.24.54,6.15,6.15,0,0,1-1.52.18,7.64,7.64,0,0,1-2.34-.37,6.81,6.81,0,0,1-2.05-1.08L159,28a3.21,3.21,0,0,0,.56.44,5.31,5.31,0,0,0,.86.44,7.75,7.75,0,0,0,1.06.35,5.08,5.08,0,0,0,1.18.14,2.75,2.75,0,0,0,1.53-.35,1.13,1.13,0,0,0,.54-1,1,1,0,0,0-.2-.67,1.64,1.64,0,0,0-.58-.47,4.64,4.64,0,0,0-.91-.37c-.36-.11-.77-.23-1.23-.35a11.52,11.52,0,0,1-1.39-.44,3.27,3.27,0,0,1-1-.56,2.18,2.18,0,0,1-.59-.77,2.54,2.54,0,0,1-.21-1.08,3,3,0,0,1,.3-1.38,2.94,2.94,0,0,1,.82-1,3.53,3.53,0,0,1,1.22-.63,5.34,5.34,0,0,1,1.53-.21,5.64,5.64,0,0,1,2,.35,6.56,6.56,0,0,1,1.6.85Z"/><path class="cls-2" d="M175.43,30a5.15,5.15,0,0,1-1.29.63,4.82,4.82,0,0,1-1.48.22,4.63,4.63,0,0,1-2.08-.46A5.24,5.24,0,0,1,169,29.2a5.18,5.18,0,0,1-1-1.72,5.56,5.56,0,0,1,0-4A5.73,5.73,0,0,1,169,21.72a5.15,5.15,0,0,1,1.62-1.19,4.7,4.7,0,0,1,2.05-.45,4.52,4.52,0,0,1,2.08.48,5.11,5.11,0,0,1,1.6,1.23,5.67,5.67,0,0,1,1,1.74,5.58,5.58,0,0,1,.36,2,5.49,5.49,0,0,1-.37,2,5.63,5.63,0,0,1-1.05,1.7l1.39,1.59h-1.62Zm-2.76-.66a3.12,3.12,0,0,0,.93-.14,3.08,3.08,0,0,0,.8-.37l-1.52-1.76h1.62l.77.89a3.71,3.71,0,0,0,.58-1.18,4.61,4.61,0,0,0,.2-1.33,4.47,4.47,0,0,0-.24-1.46,4.14,4.14,0,0,0-.68-1.24,3.44,3.44,0,0,0-1.07-.86,3,3,0,0,0-1.39-.32,3,3,0,0,0-1.44.34,3.35,3.35,0,0,0-1.06.88,4.17,4.17,0,0,0-.67,1.25,4.5,4.5,0,0,0,0,2.87,4,4,0,0,0,.68,1.24,3.47,3.47,0,0,0,1.07.87A3.11,3.11,0,0,0,172.67,29.37Z"/><path class="cls-2" d="M183.92,29.37a2.71,2.71,0,0,0,1.4-.33,2.62,2.62,0,0,0,.89-.86,3.46,3.46,0,0,0,.48-1.22,6.46,6.46,0,0,0,.14-1.4v-5.4h1.7v5.4a8,8,0,0,1-.26,2.06,4.78,4.78,0,0,1-.81,1.7A3.85,3.85,0,0,1,186,30.46a5.49,5.49,0,0,1-4.26,0,3.91,3.91,0,0,1-1.42-1.18,5,5,0,0,1-.78-1.71,8.1,8.1,0,0,1-.24-2v-5.4H181v5.4a6.64,6.64,0,0,0,.15,1.42,3.41,3.41,0,0,0,.48,1.21,2.48,2.48,0,0,0,.9.86A2.76,2.76,0,0,0,183.92,29.37Z"/><path class="cls-2" d="M190.76,30.81V20.16h1.68V30.81Z"/><path class="cls-2" d="M201.14,22.67a2.08,2.08,0,0,0-.43-.36A5.19,5.19,0,0,0,200,22a4.87,4.87,0,0,0-.84-.27,4.17,4.17,0,0,0-.94-.11,2.52,2.52,0,0,0-1.56.39,1.28,1.28,0,0,0-.51,1.08,1.21,1.21,0,0,0,.16.64,1.41,1.41,0,0,0,.49.44,4.35,4.35,0,0,0,.82.33l1.16.3a12.8,12.8,0,0,1,1.46.44,4.22,4.22,0,0,1,1.1.58,2.39,2.39,0,0,1,.7.85,2.71,2.71,0,0,1,.25,1.22,2.92,2.92,0,0,1-.31,1.4,2.49,2.49,0,0,1-.84.95,3.49,3.49,0,0,1-1.24.54,6.07,6.07,0,0,1-1.51.18,7.7,7.7,0,0,1-2.35-.37A6.93,6.93,0,0,1,194,29.47L194.8,28a3.21,3.21,0,0,0,.56.44,5.2,5.2,0,0,0,.85.44,7.75,7.75,0,0,0,1.06.35,5.17,5.17,0,0,0,1.19.14,2.75,2.75,0,0,0,1.53-.35,1.13,1.13,0,0,0,.54-1,1.11,1.11,0,0,0-.2-.67,1.73,1.73,0,0,0-.58-.47,4.75,4.75,0,0,0-.92-.37c-.36-.11-.77-.23-1.23-.35a12.12,12.12,0,0,1-1.39-.44,3.4,3.4,0,0,1-1-.56,2.3,2.3,0,0,1-.59-.77,2.54,2.54,0,0,1-.2-1.08,3,3,0,0,1,.3-1.38,2.83,2.83,0,0,1,.82-1,3.45,3.45,0,0,1,1.22-.63,5.34,5.34,0,0,1,1.53-.21,5.58,5.58,0,0,1,2,.35,6.63,6.63,0,0,1,1.61.85Z"/><path class="cls-2" d="M207,20.16h1.47l4.2,10.65h-1.77l-1.12-2.89h-4.11l-1.11,2.89h-1.79Zm2.45,6.51-1.71-4.58-1.77,4.58Z"/><path class="cls-2" d="M214,30.81V20.16h4.64a3,3,0,0,1,1.33.3,3.38,3.38,0,0,1,1,.79,3.49,3.49,0,0,1,.68,1.11,3.27,3.27,0,0,1,.25,1.27,3.56,3.56,0,0,1-.57,1.94,2.88,2.88,0,0,1-.66.73,2.65,2.65,0,0,1-.86.46l2.51,4H220.4l-2.31-3.71h-2.46v3.71Zm1.68-5.19h2.94a1.34,1.34,0,0,0,.66-.16,1.57,1.57,0,0,0,.5-.43,2.28,2.28,0,0,0,.33-.64,2.42,2.42,0,0,0,.12-.76,2.15,2.15,0,0,0-.14-.77,2.21,2.21,0,0,0-.38-.63,1.86,1.86,0,0,0-.54-.43,1.44,1.44,0,0,0-.64-.16h-2.85Z"/><path class="cls-2" d="M109.69,22a.63.63,0,1,0,1.25,0,.63.63,0,0,0-1.25,0Z"/><path class="cls-2" d="M97.69,39a2.51,2.51,0,0,0,2.5,2.5,2.49,2.49,0,0,0,1.77-.73l6-6h0l2.3-2.3a12.56,12.56,0,1,0-3.53-3.54l-8.35,8.34A2.49,2.49,0,0,0,97.69,39Zm10.39-10.4a11.31,11.31,0,1,1,2.52,2.51h0A11.54,11.54,0,0,1,108.08,28.6Zm-.57,4.85a15.57,15.57,0,0,1-1.77-1.77l1.78-1.77a12.27,12.27,0,0,0,1.77,1.76ZM98.94,39a1.22,1.22,0,0,1,.37-.88l5.55-5.55a15.49,15.49,0,0,0,1.77,1.76l-5.55,5.55a1.24,1.24,0,0,1-.89.37A1.26,1.26,0,0,1,98.94,39Z"/><path class="cls-2" d="M107.19,22a10,10,0,1,0,10-10A10,10,0,0,0,107.19,22Zm1.25,0a8.75,8.75,0,1,1,8.75,8.75A8.77,8.77,0,0,1,108.44,22Z"/><path class="cls-2" d="M110.55,20.12a.59.59,0,0,0,.22.05.65.65,0,0,0,.59-.4,6.27,6.27,0,0,1,5.83-4,.63.63,0,1,0,0-1.25,7.49,7.49,0,0,0-7,4.82A.61.61,0,0,0,110.55,20.12Z"/></g></g></svg>