<svg xmlns="http://www.w3.org/2000/svg" viewBox="0 0 40.11 40.11"><defs><style>.cls-1{fill:#567485;}</style></defs><title>calendarclick</title><g id="Camada_2" data-name="Camada 2"><g id="Camada_1-2" data-name="Camada 1"><path class="cls-1" d="M20.05,2.51A17.55,17.55,0,1,1,2.51,20.05,17.57,17.57,0,0,1,20.05,2.51m0-2.51A20.05,20.05,0,1,0,40.11,20.05,20.05,20.05,0,0,0,20.05,0Z"/><path class="cls-1" d="M16.79,21.3a.55.55,0,0,0-.55-.55H14.33a.55.55,0,0,0-.55.55V23.2a.55.55,0,0,0,.55.55h1.91a.55.55,0,0,0,.55-.55V21.3Z"/><path class="cls-1" d="M21.55,21.3a.55.55,0,0,0-.55-.55H19.1a.55.55,0,0,0-.55.55V23.2a.55.55,0,0,0,.55.55H21a.55.55,0,0,0,.55-.55Z"/><path class="cls-1" d="M26.32,21.3a.55.55,0,0,0-.55-.55H23.87a.55.55,0,0,0-.55.55V23.2a.55.55,0,0,0,.55.55h1.91a.55.55,0,0,0,.55-.55Z"/><path class="cls-1" d="M16.79,26.06a.55.55,0,0,0-.55-.55H14.33a.55.55,0,0,0-.55.55V28a.55.55,0,0,0,.55.55h1.91a.55.55,0,0,0,.55-.55V26.06Z"/><path class="cls-1" d="M21.55,26.06a.55.55,0,0,0-.55-.55H19.1a.55.55,0,0,0-.55.55V28a.55.55,0,0,0,.55.55H21a.55.55,0,0,0,.55-.55Z"/><path class="cls-1" d="M26.32,26.06a.55.55,0,0,0-.55-.55H23.87a.55.55,0,0,0-.55.55V28a.55.55,0,0,0,.55.55h1.91a.55.55,0,0,0,.55-.55V26.06Z"/><path class="cls-1" d="M29.73,10.7v2.91A2.38,2.38,0,0,1,27.35,16h-1.5a2.39,2.39,0,0,1-2.4-2.38V10.69H16.66v2.92A2.39,2.39,0,0,1,14.27,16h-1.5a2.38,2.38,0,0,1-2.38-2.38V10.7a2.17,2.17,0,0,0-2.1,2.16V29.92a2.17,2.17,0,0,0,2.16,2.17H29.67a2.17,2.17,0,0,0,2.16-2.17V12.85A2.17,2.17,0,0,0,29.73,10.7ZM29,28.86a.93.93,0,0,1-.93.93H12a.93.93,0,0,1-.93-.93V20a.93.93,0,0,1,.93-.93H28.1A.93.93,0,0,1,29,20v8.82Z"/><path class="cls-1" d="M12.76,14.42h1.49a.82.82,0,0,0,.82-.82V8.83A.82.82,0,0,0,14.24,8H12.76a.82.82,0,0,0-.82.82v4.77A.82.82,0,0,0,12.76,14.42Z"/><path class="cls-1" d="M25.82,14.42h1.49a.82.82,0,0,0,.82-.82V8.83A.82.82,0,0,0,27.31,8H25.82a.82.82,0,0,0-.82.82v4.77A.82.82,0,0,0,25.82,14.42Z"/></g></g></svg>