<svg xmlns="http://www.w3.org/2000/svg" viewBox="0 0 320 51"><defs><style>.cls-1{fill:#e6e6e6;}.cls-2{fill:#567485;}</style></defs><title>cancelar</title><g id="Camada_2" data-name="Camada 2"><g id="Camada_1-2" data-name="Camada 1"><rect class="cls-1" width="320" height="51"/><path class="cls-2" d="M128.88,24.81a5.57,5.57,0,0,1,.35-1.91,5.27,5.27,0,0,1,1-1.71A5.13,5.13,0,0,1,131.87,20,4.94,4.94,0,0,1,134,19.5a4.62,4.62,0,0,1,2.49.64,4.2,4.2,0,0,1,1.56,1.68l-1.32.88a3,3,0,0,0-.54-.81,2.6,2.6,0,0,0-.69-.53,3,3,0,0,0-.78-.28A3.94,3.94,0,0,0,134,21a3.07,3.07,0,0,0-1.47.34,3.26,3.26,0,0,0-1.06.89,4,4,0,0,0-.64,1.25,4.58,4.58,0,0,0-.22,1.38,4.33,4.33,0,0,0,.25,1.48,4,4,0,0,0,.71,1.25,3.51,3.51,0,0,0,1.09.86,3,3,0,0,0,1.38.32,3.47,3.47,0,0,0,.8-.1,3,3,0,0,0,.79-.32,3.15,3.15,0,0,0,.71-.55,2.75,2.75,0,0,0,.53-.79l1.39.79a3.27,3.27,0,0,1-.72,1.06,4.6,4.6,0,0,1-1,.77,5.36,5.36,0,0,1-1.24.48,5.2,5.2,0,0,1-1.28.17,4.42,4.42,0,0,1-2.05-.48,5.38,5.38,0,0,1-1.6-1.25,5.74,5.74,0,0,1-1.05-1.75A5.57,5.57,0,0,1,128.88,24.81Z"/><path class="cls-2" d="M141.69,30.36a2.92,2.92,0,0,1-1.06-.19,2.56,2.56,0,0,1-.84-.52,2.42,2.42,0,0,1-.55-.78,2.35,2.35,0,0,1-.2-1,2.11,2.11,0,0,1,.24-1,2.35,2.35,0,0,1,.68-.78,3.33,3.33,0,0,1,1-.51,4.75,4.75,0,0,1,1.34-.18,6.19,6.19,0,0,1,1.09.1,5.52,5.52,0,0,1,1,.26v-.54a1.82,1.82,0,0,0-.5-1.36,2,2,0,0,0-1.43-.49,3.42,3.42,0,0,0-1.24.23,6.26,6.26,0,0,0-1.25.67l-.51-1a5.57,5.57,0,0,1,3.15-1,3.6,3.6,0,0,1,2.52.83,3.06,3.06,0,0,1,.9,2.37v2.83c0,.35.14.53.44.54v1.41l-.41.06-.34,0A1.06,1.06,0,0,1,145,30a1,1,0,0,1-.32-.62l0-.5a3.49,3.49,0,0,1-1.3,1.06A3.8,3.8,0,0,1,141.69,30.36Zm.45-1.22a3,3,0,0,0,1.13-.22,2,2,0,0,0,.83-.61.76.76,0,0,0,.32-.57v-1a5.13,5.13,0,0,0-1.82-.34,2.52,2.52,0,0,0-1.45.38,1.17,1.17,0,0,0-.56,1,1.27,1.27,0,0,0,.44,1A1.58,1.58,0,0,0,142.14,29.14Z"/><path class="cls-2" d="M155.1,30.21h-1.65V25.82a2.87,2.87,0,0,0-.35-1.61,1.19,1.19,0,0,0-1-.5,2,2,0,0,0-.72.13,2.53,2.53,0,0,0-.68.38,3,3,0,0,0-.56.58,2.7,2.7,0,0,0-.38.74v4.67h-1.65V22.37h1.5v1.58a3.17,3.17,0,0,1,1.3-1.25,3.94,3.94,0,0,1,1.89-.46,2.33,2.33,0,0,1,1.16.26,1.92,1.92,0,0,1,.71.7,3.08,3.08,0,0,1,.37,1,6.9,6.9,0,0,1,.1,1.22Z"/><path class="cls-2" d="M156.51,26.28a4.27,4.27,0,0,1,.29-1.56,3.82,3.82,0,0,1,2.1-2.17,4.21,4.21,0,0,1,1.68-.32,4,4,0,0,1,2.09.53A3.37,3.37,0,0,1,164,24.18l-1.6.51a2.06,2.06,0,0,0-1.83-1.05,2.2,2.2,0,0,0-1.67.74,2.61,2.61,0,0,0-.5.83,3,3,0,0,0-.18,1.07,2.92,2.92,0,0,0,.19,1.06,2.7,2.7,0,0,0,.51.85,2.34,2.34,0,0,0,.75.56,2.08,2.08,0,0,0,.91.2,2.22,2.22,0,0,0,.6-.08,2.13,2.13,0,0,0,1-.58,1.31,1.31,0,0,0,.28-.42l1.62.48a3.21,3.21,0,0,1-1.3,1.45,4,4,0,0,1-2.16.56,4.1,4.1,0,0,1-1.67-.33,3.89,3.89,0,0,1-1.28-.89,4,4,0,0,1-.83-1.3A4.19,4.19,0,0,1,156.51,26.28Z"/><path class="cls-2" d="M168.89,30.36a4.17,4.17,0,0,1-1.66-.32,3.88,3.88,0,0,1-1.28-.88,3.93,3.93,0,0,1-.82-1.29,4.17,4.17,0,0,1-.29-1.56,4.23,4.23,0,0,1,.29-1.57,4,4,0,0,1,.82-1.3,3.83,3.83,0,0,1,1.28-.88,4.21,4.21,0,0,1,1.68-.32,4,4,0,0,1,1.66.33,4,4,0,0,1,1.27.88,3.74,3.74,0,0,1,.8,1.28,4.24,4.24,0,0,1,.28,1.52c0,.12,0,.23,0,.34s0,.19,0,.26h-6.29a2.7,2.7,0,0,0,.25.95,2.52,2.52,0,0,0,.53.73,2.27,2.27,0,0,0,.74.47,2.29,2.29,0,0,0,.86.17,2.64,2.64,0,0,0,.65-.08,2.29,2.29,0,0,0,.59-.24,2.1,2.1,0,0,0,.48-.38,1.78,1.78,0,0,0,.33-.5l1.41.4a3.26,3.26,0,0,1-1.34,1.45A4.16,4.16,0,0,1,168.89,30.36Zm2.39-4.67a2.64,2.64,0,0,0-.25-.92,2.39,2.39,0,0,0-.52-.71,2.3,2.3,0,0,0-.74-.46,2.39,2.39,0,0,0-.89-.17,2.33,2.33,0,0,0-.88.17,2.31,2.31,0,0,0-.73.46,2.26,2.26,0,0,0-.51.71,2.75,2.75,0,0,0-.24.92Z"/><path class="cls-2" d="M174.27,19.26h1.65v8.69a1,1,0,0,0,.22.68.81.81,0,0,0,.63.25,1.47,1.47,0,0,0,.38-.06l.41-.14.24,1.29a3.8,3.8,0,0,1-.86.26,4.6,4.6,0,0,1-.88.1,1.82,1.82,0,0,1-1.33-.46,1.77,1.77,0,0,1-.47-1.32Z"/><path class="cls-2" d="M180.86,30.36a2.92,2.92,0,0,1-1.06-.19,2.55,2.55,0,0,1-.84-.52,2.41,2.41,0,0,1-.56-.78,2.35,2.35,0,0,1-.2-1,2.11,2.11,0,0,1,.24-1,2.34,2.34,0,0,1,.68-.78,3.32,3.32,0,0,1,1-.51,4.75,4.75,0,0,1,1.34-.18,6.21,6.21,0,0,1,1.09.1,5.54,5.54,0,0,1,1,.26v-.54a1.82,1.82,0,0,0-.5-1.36,2,2,0,0,0-1.42-.49,3.43,3.43,0,0,0-1.24.23,6.28,6.28,0,0,0-1.25.67l-.51-1a5.57,5.57,0,0,1,3.15-1,3.6,3.6,0,0,1,2.52.83,3.06,3.06,0,0,1,.9,2.37v2.83q0,.53.43.54v1.41l-.41.06-.34,0a1.06,1.06,0,0,1-.74-.24,1,1,0,0,1-.32-.62l0-.5a3.5,3.5,0,0,1-1.3,1.06A3.81,3.81,0,0,1,180.86,30.36Zm.45-1.22a3,3,0,0,0,1.13-.22,2,2,0,0,0,.83-.61.76.76,0,0,0,.32-.57v-1a5,5,0,0,0-.89-.25,5,5,0,0,0-.92-.09,2.52,2.52,0,0,0-1.45.38,1.17,1.17,0,0,0-.56,1,1.28,1.28,0,0,0,.44,1A1.58,1.58,0,0,0,181.31,29.14Z"/><path class="cls-2" d="M191.64,23.79a3.7,3.7,0,0,0-1.7.44,2.33,2.33,0,0,0-1.06,1.18v4.8h-1.65V22.37h1.53v1.75a3.59,3.59,0,0,1,1.06-1.3,2.57,2.57,0,0,1,1.4-.53h.42Z"/></g></g></svg>