<svg xmlns="http://www.w3.org/2000/svg" viewBox="0 0 125 125"><defs><style>.cls-1{fill:#e6e6e6;}.cls-2{fill:#333;}</style></defs><title>cofetal</title><g id="Camada_2" data-name="Camada 2"><g id="Camada_1-2" data-name="Camada 1"><rect class="cls-1" width="125" height="125"/><path class="cls-2" d="M35.12,56.64a14.89,14.89,0,0,1,.92-5.1A14.1,14.1,0,0,1,38.74,47a13.63,13.63,0,0,1,4.34-3.26,13.14,13.14,0,0,1,5.8-1.24,12.31,12.31,0,0,1,6.64,1.72,11.18,11.18,0,0,1,4.16,4.48L56.16,51a8.06,8.06,0,0,0-1.44-2.16,7.06,7.06,0,0,0-1.84-1.4,8,8,0,0,0-2.08-.74,10.44,10.44,0,0,0-2.08-.22,8.17,8.17,0,0,0-3.92.9A8.71,8.71,0,0,0,42,49.8a10.64,10.64,0,0,0-1.72,3.32,12.18,12.18,0,0,0-.58,3.68,11.55,11.55,0,0,0,.68,4,10.7,10.7,0,0,0,1.9,3.32,9.32,9.32,0,0,0,2.9,2.3,8,8,0,0,0,3.68.86A9.26,9.26,0,0,0,51,67a8,8,0,0,0,2.12-.84A8.46,8.46,0,0,0,55,64.68a7.31,7.31,0,0,0,1.42-2.12l3.72,2.12A8.68,8.68,0,0,1,58.2,67.5a12.23,12.23,0,0,1-2.8,2.06,14.34,14.34,0,0,1-3.3,1.28,13.93,13.93,0,0,1-3.42.44A11.77,11.77,0,0,1,43.2,70a14.39,14.39,0,0,1-4.28-3.34A15.39,15.39,0,0,1,36.12,62,14.87,14.87,0,0,1,35.12,56.64Z"/><path class="cls-2" d="M75.8,71.24A12.45,12.45,0,0,1,70.26,70,13.79,13.79,0,0,1,66,66.78a14.63,14.63,0,0,1-2.78-4.62,15,15,0,0,1-1-5.32,14.5,14.5,0,0,1,1-5.44,15.13,15.13,0,0,1,2.86-4.6,13.65,13.65,0,0,1,4.32-3.18,12.63,12.63,0,0,1,5.46-1.18,12.12,12.12,0,0,1,5.54,1.26A13.94,13.94,0,0,1,85.7,47a15.12,15.12,0,0,1,2.76,4.62,14.82,14.82,0,0,1,0,10.7,14.34,14.34,0,0,1-2.86,4.58,14,14,0,0,1-4.34,3.16A12.53,12.53,0,0,1,75.8,71.24Zm-9-14.4a11.93,11.93,0,0,0,.64,3.88A10.53,10.53,0,0,0,69.22,64a8.89,8.89,0,0,0,2.86,2.3,8.13,8.13,0,0,0,3.76.86,7.9,7.9,0,0,0,3.82-.9,9,9,0,0,0,2.82-2.38,10.74,10.74,0,0,0,1.76-3.32,12.06,12.06,0,0,0,.6-3.76,11.9,11.9,0,0,0-.64-3.9,10.34,10.34,0,0,0-1.82-3.28,9.1,9.1,0,0,0-2.84-2.28,8.51,8.51,0,0,0-7.54,0,9.15,9.15,0,0,0-2.84,2.34,10.49,10.49,0,0,0-1.78,3.3A11.86,11.86,0,0,0,66.76,56.84Z"/><path class="cls-2" d="M16.82,85.44V76.92h5.68v1.19H18.16v2.54h3.63v1.12H18.16v3.67Z"/><path class="cls-2" d="M26,85.56a3.34,3.34,0,0,1-1.33-.26,3.11,3.11,0,0,1-1-.7,3.16,3.16,0,0,1-.66-1,3.34,3.34,0,0,1-.23-1.25A3.39,3.39,0,0,1,23,81.06a3.22,3.22,0,0,1,.66-1,3.07,3.07,0,0,1,1-.71A3.37,3.37,0,0,1,26,79.05a3.24,3.24,0,0,1,1.33.26,3.19,3.19,0,0,1,1,.7A3,3,0,0,1,29,81a3.4,3.4,0,0,1,.22,1.22q0,.14,0,.27c0,.08,0,.15,0,.21h-5a2.16,2.16,0,0,0,.2.76,2,2,0,0,0,.42.58,1.82,1.82,0,0,0,.59.38,1.84,1.84,0,0,0,.69.13,2.11,2.11,0,0,0,.52-.07,1.83,1.83,0,0,0,.47-.19,1.7,1.7,0,0,0,.38-.31,1.46,1.46,0,0,0,.26-.4l1.13.32a2.61,2.61,0,0,1-1.07,1.16A3.32,3.32,0,0,1,26,85.56Zm1.91-3.73a2.11,2.11,0,0,0-.2-.73,1.88,1.88,0,0,0-.41-.57,1.85,1.85,0,0,0-.59-.37A1.9,1.9,0,0,0,26,80a1.89,1.89,0,0,0-1.29.5,1.82,1.82,0,0,0-.41.57,2.19,2.19,0,0,0-.19.73Z"/><path class="cls-2" d="M33.77,85.11a6.51,6.51,0,0,1-.7.27,3,3,0,0,1-.95.15,2,2,0,0,1-.59-.08,1.44,1.44,0,0,1-.49-.25,1.13,1.13,0,0,1-.33-.44,1.6,1.6,0,0,1-.12-.65V80.18h-.83v-1h.83V77.1h1.32v2.06h1.37v1H31.92v3.5a.65.65,0,0,0,.21.49.71.71,0,0,0,.46.15,1.47,1.47,0,0,0,.53-.1l.37-.16Z"/><path class="cls-2" d="M36.35,85.56a2.34,2.34,0,0,1-.85-.15,2.06,2.06,0,0,1-.67-.41,1.94,1.94,0,0,1-.44-.62,1.87,1.87,0,0,1-.16-.78,1.68,1.68,0,0,1,.19-.8,1.87,1.87,0,0,1,.55-.62,2.64,2.64,0,0,1,.84-.41,3.77,3.77,0,0,1,1.07-.14,4.93,4.93,0,0,1,.88.08,4.47,4.47,0,0,1,.78.21v-.43a1.46,1.46,0,0,0-.4-1.09A1.56,1.56,0,0,0,37,80a2.75,2.75,0,0,0-1,.19,5,5,0,0,0-1,.53l-.41-.84a4.45,4.45,0,0,1,2.52-.82,2.87,2.87,0,0,1,2,.66,2.44,2.44,0,0,1,.72,1.9v2.27c0,.28.12.42.35.43v1.13l-.33,0H39.6a.85.85,0,0,1-.59-.19.82.82,0,0,1-.26-.49l0-.4a2.81,2.81,0,0,1-1,.85A3,3,0,0,1,36.35,85.56Zm.36-1a2.39,2.39,0,0,0,.91-.17,1.56,1.56,0,0,0,.67-.49.61.61,0,0,0,.25-.46v-.83a4.08,4.08,0,0,0-1.45-.28,2,2,0,0,0-1.16.31.94.94,0,0,0-.45.81,1,1,0,0,0,.35.79A1.27,1.27,0,0,0,36.71,84.59Z"/><path class="cls-2" d="M41.47,76.68h1.32v6.95a.78.78,0,0,0,.18.55.64.64,0,0,0,.5.2,1.15,1.15,0,0,0,.3,0l.33-.11.19,1a3.15,3.15,0,0,1-.68.21,3.73,3.73,0,0,1-.71.08,1.45,1.45,0,0,1-1.06-.37,1.42,1.42,0,0,1-.38-1.06Z"/><path class="cls-2" d="M50.5,85.56a3.34,3.34,0,0,1-1.33-.26,3.09,3.09,0,0,1-1-.7,3.16,3.16,0,0,1-.66-1,3.34,3.34,0,0,1-.23-1.25,3.39,3.39,0,0,1,.23-1.25,3.22,3.22,0,0,1,.66-1,3,3,0,0,1,1-.71,3.37,3.37,0,0,1,1.34-.26,3.23,3.23,0,0,1,1.33.26,3.17,3.17,0,0,1,1,.7,3,3,0,0,1,.64,1,3.38,3.38,0,0,1,.22,1.22c0,.1,0,.19,0,.27s0,.15,0,.21h-5a2.16,2.16,0,0,0,.2.76,2,2,0,0,0,.42.58,1.85,1.85,0,0,0,1.28.51,2.1,2.1,0,0,0,.52-.07,1.85,1.85,0,0,0,.47-.19,1.67,1.67,0,0,0,.38-.31,1.44,1.44,0,0,0,.26-.4l1.13.32a2.61,2.61,0,0,1-1.07,1.16A3.32,3.32,0,0,1,50.5,85.56Zm1.91-3.73a2.11,2.11,0,0,0-.2-.73,1.92,1.92,0,0,0-.41-.57,1.87,1.87,0,0,0-.59-.37A1.91,1.91,0,0,0,50.5,80a1.89,1.89,0,0,0-1.28.5,1.81,1.81,0,0,0-.41.57,2.19,2.19,0,0,0-.19.73Z"/><path class="cls-2" d="M59.27,79.44v6H57.93V76.92H59l4.87,6.14V76.93h1.36v8.51H64.1Z"/><path class="cls-2" d="M69.73,85.56a3.34,3.34,0,0,1-1.33-.26,3.11,3.11,0,0,1-1-.7,3.16,3.16,0,0,1-.66-1,3.34,3.34,0,0,1-.23-1.25,3.39,3.39,0,0,1,.23-1.25,3.22,3.22,0,0,1,.66-1,3.07,3.07,0,0,1,1-.71,3.37,3.37,0,0,1,1.34-.26,3.24,3.24,0,0,1,1.33.26,3.19,3.19,0,0,1,1,.7,3,3,0,0,1,.64,1,3.4,3.4,0,0,1,.22,1.22q0,.14,0,.27c0,.08,0,.15,0,.21h-5a2.16,2.16,0,0,0,.2.76,2,2,0,0,0,.42.58,1.82,1.82,0,0,0,.59.38,1.84,1.84,0,0,0,.69.13,2.11,2.11,0,0,0,.52-.07,1.83,1.83,0,0,0,.47-.19,1.7,1.7,0,0,0,.38-.31,1.46,1.46,0,0,0,.26-.4l1.13.32a2.61,2.61,0,0,1-1.07,1.16A3.32,3.32,0,0,1,69.73,85.56Zm1.91-3.73a2.11,2.11,0,0,0-.2-.73,1.88,1.88,0,0,0-.41-.57,1.85,1.85,0,0,0-.59-.37,1.9,1.9,0,0,0-.71-.13,1.89,1.89,0,0,0-1.29.5,1.82,1.82,0,0,0-.41.57,2.19,2.19,0,0,0-.19.73Z"/><path class="cls-2" d="M76.84,85.56a3.26,3.26,0,0,1-1.34-.26,3.07,3.07,0,0,1-1.66-1.75,3.49,3.49,0,0,1,0-2.48,3.06,3.06,0,0,1,.65-1,3.19,3.19,0,0,1,1-.71,3.28,3.28,0,0,1,3.67.71,3.1,3.1,0,0,1,.65,1,3.5,3.5,0,0,1,0,2.48,3.09,3.09,0,0,1-.65,1,3.2,3.2,0,0,1-1,.71A3.23,3.23,0,0,1,76.84,85.56ZM75,82.32a2.39,2.39,0,0,0,.14.84,2.09,2.09,0,0,0,.4.67,1.84,1.84,0,0,0,.59.44,1.76,1.76,0,0,0,1.48,0,1.8,1.8,0,0,0,.59-.45,2.14,2.14,0,0,0,.4-.67,2.51,2.51,0,0,0,0-1.67,2.14,2.14,0,0,0-.4-.68,1.82,1.82,0,0,0-.59-.45,1.7,1.7,0,0,0-.74-.16,1.64,1.64,0,0,0-.73.17,1.89,1.89,0,0,0-.59.46,2.24,2.24,0,0,0-.4.68A2.31,2.31,0,0,0,75,82.32Z"/><path class="cls-2" d="M86.87,85.44H85.55V81.92a2.3,2.3,0,0,0-.28-1.29,1,1,0,0,0-.83-.4,1.63,1.63,0,0,0-.58.11,2,2,0,0,0-.54.31,2.42,2.42,0,0,0-.45.47,2.18,2.18,0,0,0-.31.59v3.73H81.24V79.16h1.2v1.26a2.55,2.55,0,0,1,1-1A3.15,3.15,0,0,1,85,79.05a1.86,1.86,0,0,1,.92.2,1.53,1.53,0,0,1,.57.56,2.47,2.47,0,0,1,.29.82,5.4,5.4,0,0,1,.08,1Z"/><path class="cls-2" d="M90.08,85.56a2.35,2.35,0,0,1-.85-.15,2.07,2.07,0,0,1-.67-.41,1.94,1.94,0,0,1-.44-.62,1.89,1.89,0,0,1-.16-.78,1.69,1.69,0,0,1,.19-.8,1.88,1.88,0,0,1,.55-.62,2.65,2.65,0,0,1,.84-.41,3.78,3.78,0,0,1,1.07-.14,4.93,4.93,0,0,1,.88.08,4.48,4.48,0,0,1,.78.21v-.43a1.46,1.46,0,0,0-.4-1.09A1.56,1.56,0,0,0,90.72,80a2.74,2.74,0,0,0-1,.19,5,5,0,0,0-1,.53l-.41-.84a4.45,4.45,0,0,1,2.52-.82,2.87,2.87,0,0,1,2,.66,2.44,2.44,0,0,1,.72,1.9v2.27q0,.42.35.43v1.13l-.33,0h-.27a.85.85,0,0,1-.59-.19.83.83,0,0,1-.26-.49l0-.4a2.81,2.81,0,0,1-1,.85A3,3,0,0,1,90.08,85.56Zm.36-1a2.4,2.4,0,0,0,.91-.17,1.57,1.57,0,0,0,.67-.49.61.61,0,0,0,.25-.46v-.83a4,4,0,0,0-.71-.2,4,4,0,0,0-.74-.07,2,2,0,0,0-1.16.31.94.94,0,0,0-.45.81,1,1,0,0,0,.35.79A1.27,1.27,0,0,0,90.44,84.59Z"/><path class="cls-2" d="M98.62,85.11a6.57,6.57,0,0,1-.7.27,3,3,0,0,1-.95.15,2,2,0,0,1-.59-.08,1.45,1.45,0,0,1-.49-.25,1.14,1.14,0,0,1-.33-.44,1.6,1.6,0,0,1-.12-.65V80.18h-.83v-1h.83V77.1h1.32v2.06h1.37v1H96.77v3.5a.65.65,0,0,0,.21.49.71.71,0,0,0,.46.15,1.47,1.47,0,0,0,.53-.1l.37-.16Z"/><path class="cls-2" d="M101.2,85.56a2.34,2.34,0,0,1-.85-.15,2.06,2.06,0,0,1-.67-.41,2,2,0,0,1-.44-.62,1.87,1.87,0,0,1-.16-.78,1.67,1.67,0,0,1,.19-.8,1.86,1.86,0,0,1,.55-.62,2.64,2.64,0,0,1,.84-.41,3.77,3.77,0,0,1,1.07-.14,5,5,0,0,1,.88.08,4.48,4.48,0,0,1,.78.21v-.43a1.45,1.45,0,0,0-.4-1.09,1.56,1.56,0,0,0-1.14-.39,2.75,2.75,0,0,0-1,.19,5,5,0,0,0-1,.53l-.41-.84a4.45,4.45,0,0,1,2.52-.82,2.87,2.87,0,0,1,2,.66,2.44,2.44,0,0,1,.72,1.9v2.27q0,.42.35.43v1.13l-.33,0h-.27a.85.85,0,0,1-.59-.19.81.81,0,0,1-.26-.49l0-.4a2.8,2.8,0,0,1-1,.85A3,3,0,0,1,101.2,85.56Zm.36-1a2.38,2.38,0,0,0,.91-.17,1.56,1.56,0,0,0,.67-.49.61.61,0,0,0,.25-.46v-.83a4.07,4.07,0,0,0-1.45-.28,2,2,0,0,0-1.16.31.94.94,0,0,0-.45.81,1,1,0,0,0,.35.79A1.26,1.26,0,0,0,101.56,84.59Z"/><path class="cls-2" d="M106.31,76.68h1.32v6.95a.78.78,0,0,0,.18.55.65.65,0,0,0,.5.2,1.16,1.16,0,0,0,.31,0l.33-.11.19,1a3.13,3.13,0,0,1-.68.21,3.72,3.72,0,0,1-.71.08,1.45,1.45,0,0,1-1.06-.37,1.42,1.42,0,0,1-.38-1.06Z"/></g></g></svg>