<svg xmlns="http://www.w3.org/2000/svg" viewBox="0 0 320 51"><defs><style>.cls-1{fill:#e6e6e6;}.cls-2{fill:#567485;}</style></defs><title>confirmar</title><g id="Camada_2" data-name="Camada 2"><g id="Camada_1-2" data-name="Camada 1"><rect class="cls-1" width="320" height="51"/><path class="cls-2" d="M125.66,24.81A5.57,5.57,0,0,1,126,22.9a5.27,5.27,0,0,1,1-1.71A5.13,5.13,0,0,1,128.64,20a4.94,4.94,0,0,1,2.18-.46,4.62,4.62,0,0,1,2.49.64,4.2,4.2,0,0,1,1.56,1.68l-1.32.88a3,3,0,0,0-.54-.81,2.6,2.6,0,0,0-.69-.53,3,3,0,0,0-.78-.28,3.94,3.94,0,0,0-.78-.08,3.07,3.07,0,0,0-1.47.34,3.26,3.26,0,0,0-1.06.89,4,4,0,0,0-.64,1.25,4.58,4.58,0,0,0-.22,1.38,4.33,4.33,0,0,0,.25,1.48,4,4,0,0,0,.71,1.25,3.51,3.51,0,0,0,1.09.86,3,3,0,0,0,1.38.32,3.47,3.47,0,0,0,.8-.1,3,3,0,0,0,.79-.32,3.15,3.15,0,0,0,.71-.55,2.75,2.75,0,0,0,.53-.79l1.39.79a3.27,3.27,0,0,1-.72,1.06,4.6,4.6,0,0,1-1,.77,5.36,5.36,0,0,1-1.24.48,5.2,5.2,0,0,1-1.28.17,4.42,4.42,0,0,1-2.05-.48,5.38,5.38,0,0,1-1.6-1.25A5.74,5.74,0,0,1,126,26.81,5.57,5.57,0,0,1,125.66,24.81Z"/><path class="cls-2" d="M139.91,30.36a4.08,4.08,0,0,1-1.67-.33,3.85,3.85,0,0,1-2.08-2.18,4.37,4.37,0,0,1,0-3.11,3.84,3.84,0,0,1,.82-1.3,4,4,0,0,1,1.27-.89,4.33,4.33,0,0,1,3.32,0,4,4,0,0,1,1.27.89,3.84,3.84,0,0,1,.82,1.3,4.37,4.37,0,0,1,0,3.11,3.83,3.83,0,0,1-.82,1.3,4,4,0,0,1-1.27.89A4,4,0,0,1,139.91,30.36Zm-2.34-4.05a3,3,0,0,0,.18,1.05,2.61,2.61,0,0,0,.5.83,2.31,2.31,0,0,0,.74.55,2.2,2.2,0,0,0,1.84,0,2.26,2.26,0,0,0,.74-.56,2.69,2.69,0,0,0,.5-.84,3.13,3.13,0,0,0,0-2.09,2.68,2.68,0,0,0-.5-.85,2.26,2.26,0,0,0-.74-.56,2.11,2.11,0,0,0-.92-.2,2,2,0,0,0-.91.21,2.37,2.37,0,0,0-.74.57,2.8,2.8,0,0,0-.5.85A2.88,2.88,0,0,0,137.57,26.31Z"/><path class="cls-2" d="M152.45,30.21H150.8V25.82a2.87,2.87,0,0,0-.35-1.61,1.19,1.19,0,0,0-1-.5,2,2,0,0,0-.72.13,2.53,2.53,0,0,0-.67.38,3,3,0,0,0-.56.58,2.68,2.68,0,0,0-.38.74v4.67h-1.65V22.37h1.5v1.58a3.19,3.19,0,0,1,1.3-1.25,4,4,0,0,1,1.89-.46,2.32,2.32,0,0,1,1.16.26,1.91,1.91,0,0,1,.71.7,3,3,0,0,1,.37,1,6.9,6.9,0,0,1,.1,1.22Z"/><path class="cls-2" d="M154.74,23.83h-1V22.56h1v-.31a3.57,3.57,0,0,1,.2-1.18,2.89,2.89,0,0,1,.59-1,2.92,2.92,0,0,1,1-.7,3.08,3.08,0,0,1,1.31-.26,4.08,4.08,0,0,1,1.52.26,5.74,5.74,0,0,1,1.15.61l-.67,1.23a3,3,0,0,0-1.89-.69,1.5,1.5,0,0,0-.67.14,1.3,1.3,0,0,0-.46.38,1.72,1.72,0,0,0-.27.54,2.15,2.15,0,0,0-.09.62v.36h4.11v7.65h-1.65V23.83h-2.46v6.38h-1.65Z"/><path class="cls-2" d="M166.89,23.79a3.71,3.71,0,0,0-1.7.44,2.34,2.34,0,0,0-1.06,1.18v4.8h-1.65V22.37H164v1.75a3.59,3.59,0,0,1,1.06-1.3,2.57,2.57,0,0,1,1.4-.53h.42Z"/><path class="cls-2" d="M180.09,30.21h-1.65V25.82a2.82,2.82,0,0,0-.36-1.61,1.2,1.2,0,0,0-1-.51,1.87,1.87,0,0,0-1.28.52,2.91,2.91,0,0,0-.83,1.34v4.65h-1.65V25.82a2.83,2.83,0,0,0-.36-1.61,1.2,1.2,0,0,0-1-.5,1.92,1.92,0,0,0-1.29.51,2.84,2.84,0,0,0-.84,1.33v4.67h-1.65V22.37h1.5v1.58a3.31,3.31,0,0,1,1.22-1.27,3.38,3.38,0,0,1,1.73-.44A2.1,2.1,0,0,1,174.78,24,3.59,3.59,0,0,1,176,22.69a3.22,3.22,0,0,1,1.71-.46,2.28,2.28,0,0,1,1.15.26,2,2,0,0,1,.73.7,2.85,2.85,0,0,1,.38,1,6.81,6.81,0,0,1,.11,1.22Z"/><path class="cls-2" d="M184.08,30.36a2.91,2.91,0,0,1-1.06-.19,2.54,2.54,0,0,1-.84-.52,2.39,2.39,0,0,1-.56-.78,2.34,2.34,0,0,1-.2-1,2.11,2.11,0,0,1,.24-1,2.33,2.33,0,0,1,.68-.78,3.31,3.31,0,0,1,1.05-.51,4.74,4.74,0,0,1,1.34-.18,6.21,6.21,0,0,1,1.1.1,5.56,5.56,0,0,1,1,.26v-.54a1.82,1.82,0,0,0-.5-1.36,2,2,0,0,0-1.42-.49,3.44,3.44,0,0,0-1.24.23,6.28,6.28,0,0,0-1.25.67l-.51-1a5.56,5.56,0,0,1,3.15-1,3.59,3.59,0,0,1,2.52.83,3.06,3.06,0,0,1,.9,2.37v2.83q0,.53.43.54v1.41l-.41.06-.34,0a1.06,1.06,0,0,1-.74-.24,1,1,0,0,1-.32-.62l0-.5a3.49,3.49,0,0,1-1.3,1.06A3.81,3.81,0,0,1,184.08,30.36Zm.45-1.22a3,3,0,0,0,1.13-.22,2,2,0,0,0,.83-.61.76.76,0,0,0,.31-.57v-1a5,5,0,0,0-.89-.25,5,5,0,0,0-.92-.09,2.52,2.52,0,0,0-1.45.38,1.17,1.17,0,0,0-.56,1,1.28,1.28,0,0,0,.43,1A1.58,1.58,0,0,0,184.53,29.14Z"/><path class="cls-2" d="M194.87,23.79a3.71,3.71,0,0,0-1.7.44,2.34,2.34,0,0,0-1.06,1.18v4.8h-1.65V22.37H192v1.75a3.59,3.59,0,0,1,1.06-1.3,2.57,2.57,0,0,1,1.4-.53h.42Z"/></g></g></svg>