<svg xmlns="http://www.w3.org/2000/svg" viewBox="0 0 125 125"><defs><style>.cls-1{fill:#e6e6e6;}.cls-2{fill:#333;}</style></defs><title>conormal</title><g id="Camada_2" data-name="Camada 2"><g id="Camada_1-2" data-name="Camada 1"><rect class="cls-1" width="125" height="125"/><path class="cls-2" d="M35.32,56.64a14.86,14.86,0,0,1,.92-5.1A14.1,14.1,0,0,1,38.94,47a13.63,13.63,0,0,1,4.34-3.26,13.15,13.15,0,0,1,5.8-1.24,12.3,12.3,0,0,1,6.64,1.72,11.17,11.17,0,0,1,4.16,4.48L56.36,51a8.05,8.05,0,0,0-1.44-2.16,7.08,7.08,0,0,0-1.84-1.4A8,8,0,0,0,51,46.74a10.45,10.45,0,0,0-2.08-.22,8.17,8.17,0,0,0-3.92.9,8.69,8.69,0,0,0-2.82,2.38,10.65,10.65,0,0,0-1.72,3.32,12.18,12.18,0,0,0-.58,3.68,11.53,11.53,0,0,0,.68,4,10.72,10.72,0,0,0,1.9,3.32,9.35,9.35,0,0,0,2.9,2.3,8,8,0,0,0,3.68.86A9.28,9.28,0,0,0,51.18,67a8,8,0,0,0,2.12-.84,8.47,8.47,0,0,0,1.88-1.46,7.31,7.31,0,0,0,1.42-2.12l3.72,2.12A8.7,8.7,0,0,1,58.4,67.5a12.24,12.24,0,0,1-2.8,2.06,14.32,14.32,0,0,1-3.3,1.28,13.92,13.92,0,0,1-3.42.44A11.76,11.76,0,0,1,43.4,70a14.4,14.4,0,0,1-4.28-3.34A15.41,15.41,0,0,1,36.32,62,14.85,14.85,0,0,1,35.32,56.64Z"/><path class="cls-2" d="M76,71.24A12.45,12.45,0,0,1,70.46,70a13.78,13.78,0,0,1-4.3-3.24,14.64,14.64,0,0,1-2.78-4.62,15,15,0,0,1-1-5.32,14.52,14.52,0,0,1,1-5.44,15.13,15.13,0,0,1,2.86-4.6,13.67,13.67,0,0,1,4.32-3.18,12.63,12.63,0,0,1,5.46-1.18,12.12,12.12,0,0,1,5.54,1.26A13.94,13.94,0,0,1,85.9,47a15.16,15.16,0,0,1,2.76,4.62,14.81,14.81,0,0,1,0,10.7,14.34,14.34,0,0,1-2.86,4.58,14,14,0,0,1-4.34,3.16A12.54,12.54,0,0,1,76,71.24Zm-9-14.4a12,12,0,0,0,.64,3.88A10.51,10.51,0,0,0,69.42,64a8.88,8.88,0,0,0,2.86,2.3A8.13,8.13,0,0,0,76,67.2a7.89,7.89,0,0,0,3.82-.9,9,9,0,0,0,2.82-2.38,10.72,10.72,0,0,0,1.76-3.32,12,12,0,0,0,.6-3.76,11.9,11.9,0,0,0-.64-3.9,10.37,10.37,0,0,0-1.82-3.28,9.11,9.11,0,0,0-2.84-2.28,8.52,8.52,0,0,0-7.54,0,9.16,9.16,0,0,0-2.84,2.34,10.47,10.47,0,0,0-1.78,3.3A11.86,11.86,0,0,0,67,56.84Z"/><path class="cls-2" d="M43.82,79.44v6H42.48V76.92h1.06l4.87,6.14V76.93h1.36v8.51H48.65Z"/><path class="cls-2" d="M54.25,85.56a3.26,3.26,0,0,1-1.34-.26,3.07,3.07,0,0,1-1.66-1.75,3.49,3.49,0,0,1,0-2.48,3.06,3.06,0,0,1,.65-1,3.19,3.19,0,0,1,1-.71A3.28,3.28,0,0,1,56.6,80a3.1,3.1,0,0,1,.65,1,3.5,3.5,0,0,1,0,2.48,3.09,3.09,0,0,1-.65,1,3.2,3.2,0,0,1-1,.71A3.23,3.23,0,0,1,54.25,85.56Zm-1.87-3.24a2.39,2.39,0,0,0,.14.84,2.09,2.09,0,0,0,.4.67,1.84,1.84,0,0,0,.59.44,1.76,1.76,0,0,0,1.48,0,1.8,1.8,0,0,0,.59-.45,2.14,2.14,0,0,0,.4-.67,2.51,2.51,0,0,0,0-1.67,2.14,2.14,0,0,0-.4-.68,1.82,1.82,0,0,0-.59-.45,1.7,1.7,0,0,0-.74-.16,1.64,1.64,0,0,0-.73.17,1.89,1.89,0,0,0-.59.46,2.24,2.24,0,0,0-.4.68A2.31,2.31,0,0,0,52.38,82.32Z"/><path class="cls-2" d="M62.18,80.3a3,3,0,0,0-1.36.35,1.87,1.87,0,0,0-.85.94v3.84H58.65V79.16h1.22v1.4a2.88,2.88,0,0,1,.85-1,2.06,2.06,0,0,1,1.12-.43h.34Z"/><path class="cls-2" d="M72.74,85.44H71.42V81.92a2.26,2.26,0,0,0-.29-1.28,1,1,0,0,0-.84-.41,1.51,1.51,0,0,0-1,.41,2.33,2.33,0,0,0-.67,1.07v3.72H67.28V81.92A2.26,2.26,0,0,0,67,80.63a1,1,0,0,0-.83-.4,1.54,1.54,0,0,0-1,.41,2.28,2.28,0,0,0-.67,1.07v3.73H63.14V79.16h1.2v1.26a2.64,2.64,0,0,1,1-1,2.69,2.69,0,0,1,1.38-.35,1.68,1.68,0,0,1,1.79,1.43,2.87,2.87,0,0,1,1-1.06,2.57,2.57,0,0,1,1.37-.37,1.83,1.83,0,0,1,.92.21,1.63,1.63,0,0,1,.58.56,2.31,2.31,0,0,1,.3.81,5.58,5.58,0,0,1,.08,1Z"/><path class="cls-2" d="M75.93,85.56a2.35,2.35,0,0,1-.85-.15,2.07,2.07,0,0,1-.67-.41,2,2,0,0,1-.44-.62,1.89,1.89,0,0,1-.16-.78,1.68,1.68,0,0,1,.19-.8,1.87,1.87,0,0,1,.55-.62,2.65,2.65,0,0,1,.84-.41,3.78,3.78,0,0,1,1.07-.14,4.94,4.94,0,0,1,.88.08,4.5,4.5,0,0,1,.78.21v-.43a1.45,1.45,0,0,0-.4-1.09A1.56,1.56,0,0,0,76.58,80a2.74,2.74,0,0,0-1,.19,5,5,0,0,0-1,.53l-.41-.84a4.45,4.45,0,0,1,2.52-.82,2.87,2.87,0,0,1,2,.66,2.44,2.44,0,0,1,.72,1.9v2.27c0,.28.12.42.35.43v1.13l-.33,0h-.27a.85.85,0,0,1-.59-.19.82.82,0,0,1-.26-.49l0-.4a2.8,2.8,0,0,1-1,.85A3,3,0,0,1,75.93,85.56Zm.36-1a2.39,2.39,0,0,0,.91-.17,1.57,1.57,0,0,0,.67-.49.61.61,0,0,0,.25-.46v-.83a4,4,0,0,0-.71-.2,4,4,0,0,0-.74-.07,2,2,0,0,0-1.16.31.94.94,0,0,0-.45.81,1,1,0,0,0,.35.79A1.27,1.27,0,0,0,76.29,84.59Z"/><path class="cls-2" d="M81,76.68h1.32v6.95a.79.79,0,0,0,.18.55.65.65,0,0,0,.5.2,1.17,1.17,0,0,0,.31,0l.33-.11.19,1a3.11,3.11,0,0,1-.68.21,3.72,3.72,0,0,1-.71.08,1.45,1.45,0,0,1-1.06-.37A1.42,1.42,0,0,1,81,84.11Z"/></g></g></svg>