<?xml version="1.0" encoding="UTF-8"?>
<svg width="320px" height="51px" viewBox="0 0 320 51" version="1.1" xmlns="http://www.w3.org/2000/svg" xmlns:xlink="http://www.w3.org/1999/xlink">
    <!-- Generator: Sketch 52.6 (67491) - http://www.bohemiancoding.com/sketch -->
    <title>consultar_cinza_raleway</title>
    <desc>Created with Sketch.</desc>
    <g id="consultar_cinza_raleway" stroke="none" stroke-width="1" fill="none" fill-rule="evenodd">
        <g id="consultar_cinza">
            <rect id="Rectangle" fill="#E6E6E6" x="0" y="0" width="320" height="51"></rect>
            <g id="Group-2" transform="translate(92.000000, 9.000000)" fill="#567485">
                <g id="Group">
                    <path d="M12.69,13 C12.6593068,13.2421672 12.7712703,13.4802698 12.9773568,13.6110956 C13.1834432,13.7419213 13.4465568,13.7419213 13.6526432,13.6110956 C13.8587297,13.4802698 13.9706932,13.2421672 13.94,13 C13.9001019,12.6852067 13.6323117,12.4492149 13.315,12.4492149 C12.9976883,12.4492149 12.7298981,12.6852067 12.69,13 Z" id="Path"></path>
                    <path d="M0.69,30 C0.695480921,31.3784352 1.81156478,32.4945191 3.19,32.5 C3.85371187,32.5022907 4.49087148,32.2395073 4.96,31.77 L10.96,25.77 L13.26,23.47 C18.632468,27.0396879 25.8355085,25.9595268 29.9245937,20.9709933 C34.013679,15.9824599 33.6593003,8.70750591 29.1047209,4.14002405 C24.5501416,-0.427457816 17.2762191,-0.802414843 12.2761383,3.27254225 C7.27605742,7.34749934 6.17552431,14.5474554 9.73,19.93 L1.38,28.27 C0.934865475,28.7356949 0.687545511,29.355787 0.69,30 Z M11.08,19.6 C7.60621874,14.8305263 8.38267851,8.19195609 12.8633358,4.35284862 C17.3439931,0.51374114 24.0231217,0.764229504 28.2036399,4.92815834 C32.3841581,9.09208718 32.6612016,15.7701671 28.8399401,20.2660537 C25.0186786,24.7619403 18.3832482,25.5647898 13.6,22.11 C12.6353377,21.408587 11.7852431,20.5618658 11.08,19.6 Z M10.51,24.45 C9.87345275,23.9084596 9.2815404,23.3165472 8.74,22.68 L10.52,20.91 C11.0486378,21.5553095 11.6417058,22.1450268 12.29,22.67 L10.51,24.45 Z M1.94,30 C1.93868695,29.6685872 2.07225931,29.3509016 2.31,29.12 L7.86,23.57 C8.40169393,24.2033259 8.99361523,24.791903 9.63,25.33 L4.08,30.88 C3.84536587,31.1183034 3.52442295,31.2517291 3.19,31.25 C2.50190986,31.2445603 1.9454397,30.6880901 1.94,30 Z" id="Shape" fill-rule="nonzero"></path>
                    <path d="M10.19,13 C10.19,18.5228475 14.6671525,23 20.19,23 C25.7128475,23 30.19,18.5228475 30.19,13 C30.19,7.4771525 25.7128475,3 20.19,3 C14.6671525,3 10.19,7.4771525 10.19,13 Z M11.44,13 C11.44,8.16750844 15.3575084,4.25 20.19,4.25 C25.0224916,4.25 28.94,8.16750844 28.94,13 C28.94,17.8324916 25.0224916,21.75 20.19,21.75 C15.3620711,21.7390024 11.4509976,17.8279289 11.44,13 Z" id="Shape" fill-rule="nonzero"></path>
                    <path d="M13.55,11.12 C13.6194344,11.150663 13.6941331,11.16764 13.77,11.17 C14.0287586,11.1660058 14.2604964,11.0088954 14.36,10.77 C15.2945959,8.36363935 17.6085267,6.77603677 20.19,6.77 C20.4321672,6.80069319 20.6702698,6.68872966 20.8010956,6.48264321 C20.9319213,6.27655676 20.9319213,6.01344324 20.8010956,5.80735679 C20.6702698,5.60127034 20.4321672,5.48930681 20.19,5.52 C17.0827572,5.51914651 14.2976552,7.43688816 13.19,10.34 C13.0755296,10.6547408 13.2362238,11.0029115 13.55,11.12 Z" id="Path"></path>
                </g>
                <g id="Consultar" transform="translate(41.000000, 7.000000)" font-family="Raleway-SemiBold, Raleway" font-size="16" font-weight="500">
                    <text id="CONSULTAR">
                        <tspan x="0" y="15">CONSULTAR</tspan>
                    </text>
                </g>
            </g>
        </g>
    </g>
</svg>