<svg xmlns="http://www.w3.org/2000/svg" viewBox="0 0 28.53 28.53"><defs><style>.cls-1{fill:#fff;}</style></defs><title>consultaclick</title><g id="Camada_2" data-name="Camada 2"><g id="Camada_1-2" data-name="Camada 1"><path class="cls-1" d="M14.26,1.78A12.48,12.48,0,1,1,1.78,14.26,12.5,12.5,0,0,1,14.26,1.78m0-1.78A14.26,14.26,0,1,0,28.53,14.26,14.26,14.26,0,0,0,14.26,0Z"/><path class="cls-1" d="M17,4.66A6.67,6.67,0,0,0,11.7,15.34l-.51.38-1.07.82c-.35.28-.74.53-1.11.77a6.87,6.87,0,0,0-1,.78A5.16,5.16,0,0,0,7.2,19a7.83,7.83,0,0,0-.55,1,7.5,7.5,0,0,0-.38.92,6.57,6.57,0,0,0-.21.78,5.19,5.19,0,0,0-.09.55c0,.13,0,.21,0,.21l.25.25.21,0a5.2,5.2,0,0,0,.55-.09,6.64,6.64,0,0,0,.78-.21A7.47,7.47,0,0,0,8.65,22a7.9,7.9,0,0,0,1-.55,5.18,5.18,0,0,0,.94-.76,6.91,6.91,0,0,0,.78-1c.24-.38.49-.76.77-1.11l.82-1.07.42-.56A6.68,6.68,0,1,0,17,4.66Zm0,10.91a4.2,4.2,0,0,1-2.28-.67,4.24,4.24,0,0,1-1.07-1A4.22,4.22,0,1,1,17,15.57Zm1.53-4.22A1.53,1.53,0,1,1,17,9.81,1.53,1.53,0,0,1,18.58,11.35Z"/></g></g></svg>