<svg xmlns="http://www.w3.org/2000/svg" viewBox="0 0 700.22 192.7"><defs><style>.cls-1{fill:#006432;}.cls-2{fill:#e61e1e;}.cls-3{fill:#781d1d;}.cls-4{fill:#194b28;}.cls-5{fill:#3c3c3c;}</style></defs><title>dgs</title><g id="Camada_2" data-name="Camada 2"><g id="Layer_1" data-name="Layer 1"><path class="cls-1" d="M15.35,44.47C46,53.7,77.23,52.78,94.05,49.91c15.93-2.72,33.41-7.32,44.39-14.78l.11,0a34.27,34.27,0,0,0,5.54-4.62c9.33-9.93,5.5-21.47-2.49-26.2s-20.24-.84-52,3.89C63.94,12,51.64,11.7,32.89,7.11A94.53,94.53,0,0,0,7.42,41.88c2.63,1,5.28,1.83,7.93,2.63Z"/><path class="cls-1" d="M17.25,96.76a157.1,157.1,0,0,0,74.12,11.89c22-1.72,44.79-6.44,58.15-11.57l.2,0c4.3-1.67,7.62-3.38,9.57-5,8-6.83,10.46-19.48,2.18-22.34s-17.42.68-42.1,4.21c-25.82,3.68-74.09.41-101.64-12.12A146.35,146.35,0,0,1,3.24,54.09,94.34,94.34,0,0,0,0,78.59,92.66,92.66,0,0,0,.56,88.78c5.26,2.85,10.82,5.56,16.69,8Z"/><path class="cls-1" d="M52.32,153.77l0,0c27.37,6.53,49.05.88,65.19-2.72A70.69,70.69,0,0,0,133,145.55H133c9-4.37,16.29-10,19.31-14.53h0a9.43,9.43,0,0,0,1.39-2.83,18.4,18.4,0,0,0,.7-4.38c0-3.7-2.5-5.34-10.35-4.43-10.48,1.22-39,13.77-76.44,10.35-27-2.47-48.42-14.53-63.44-23.34a94.23,94.23,0,0,0,22.21,37.55,102.74,102.74,0,0,0,18.13,7.71C47.17,152.49,49.76,153.17,52.32,153.77Z"/><path class="cls-2" d="M138.55,35.1C127.58,42.59,110,47.21,94.05,50,77.23,52.82,46,53.74,15.35,44.51c-1.06,4.89.18,10.55,5.08,15.75a34,34,0,0,0,5.83,4.83C54.4,74.81,96,77.16,119.37,73.84c24.68-3.54,33.81-7.1,42.1-4.23.17.06.3.15.47.22,9.9-4,17.75-7.55,24.37-10.95a93.55,93.55,0,0,0-15.46-35,151.18,151.18,0,0,1-19.4,7.53C146.74,32.8,142.48,34,138.55,35.1Z"/><path class="cls-2" d="M94.05,50c16-2.74,33.53-7.36,44.5-14.85l-.11,0c-11,7.46-28.46,12.06-44.39,14.78C77.23,52.78,46,53.7,15.35,44.47v0C46,53.74,77.23,52.82,94.05,50Z"/><path class="cls-2" d="M166.75,92.35a114.89,114.89,0,0,1-17,4.69c-13.32,5.16-36.21,9.92-58.35,11.65A157.1,157.1,0,0,1,17.25,96.8c-.74,4.89.93,9.7,6,13.55,5.46,4.13,23.59,14.44,44.28,19.32h.07c37.47,3.43,66-9.12,76.44-10.34,7.88-.91,10.34.74,10.35,4.47a17.78,17.78,0,0,1-.7,4.42,9.31,9.31,0,0,1-1.36,2.78,172.63,172.63,0,0,0,25.24-8.59A93.76,93.76,0,0,0,188.3,82.23,157.32,157.32,0,0,1,166.75,92.35Z"/><path class="cls-2" d="M91.37,108.65A157.1,157.1,0,0,1,17.25,96.76v0a157.1,157.1,0,0,0,74.12,11.89c22.14-1.73,45-6.49,58.35-11.65l-.2,0C136.16,102.21,113.39,106.93,91.37,108.65Z"/><path class="cls-2" d="M152.31,131h0a9.31,9.31,0,0,0,1.36-2.78,17.78,17.78,0,0,0,.7-4.42,18.4,18.4,0,0,1-.7,4.38A9.43,9.43,0,0,1,152.31,131Z"/><path class="cls-2" d="M133,145.54a70.77,70.77,0,0,1-15.55,5.53c-16.13,3.61-37.81,9.22-65.16,2.7,6.77,6,18.85,12.3,32.15,15,5.94,1.21,12.67,2.57,20.11,3.45a94.17,94.17,0,0,0,67.15-40.14c-11.91,6.19-25,11.67-38.24,13.41Z"/><path class="cls-2" d="M117.48,151c-16.14,3.6-37.82,9.25-65.19,2.72l0,0c27.35,6.52,49,.91,65.16-2.7A70.77,70.77,0,0,0,133,145.54H133A70.69,70.69,0,0,1,117.48,151Z"/><path class="cls-3" d="M94.05,49.91c15.93-2.72,33.41-7.32,44.39-14.78-22.9,6.24-34.9,7.11-63.51,2.83-31.78-4.74-44-8.63-52-3.88a16.17,16.17,0,0,0-7.56,10.39C46,53.7,77.23,52.78,94.05,49.91Z"/><path class="cls-4" d="M161.27,70.09l.67-.26c-.17-.07-.3-.16-.47-.22-8.29-2.87-17.42.69-42.1,4.23-23.33,3.32-65,1-93.11-8.75,11,7.38,28.35,11.94,44.21,14.65C89.52,83,127.11,83.76,161.27,70.09Z"/><path class="cls-3" d="M91.37,108.65c22-1.72,44.79-6.44,58.15-11.57-28,5.62-64.15,4.73-85,.24-24.35-5.23-33.22-9.42-41.68-7.14a7.52,7.52,0,0,0-5.57,6.58A157.1,157.1,0,0,0,91.37,108.65Z"/><path class="cls-4" d="M144.05,119.34c-10.48,1.22-39,13.77-76.44,10.34h-.07C74.82,131.4,82.46,132.9,90,134a156.63,156.63,0,0,0,62.27-3,9.43,9.43,0,0,0,1.39-2.83C155.44,121.45,154.53,118.13,144.05,119.34Z"/><path class="cls-3" d="M56.7,138.15c-10.54-.81-11.31,2.56-9.31,9.21.55,1.85,2.29,4.07,4.9,6.39,27.37,6.53,49.05.88,65.19-2.72A70.69,70.69,0,0,0,133,145.55C95.89,150.27,67.16,139,56.7,138.15Z"/><path class="cls-5" d="M242.23,150.33h9.14a15,15,0,0,1,6.58,1.31,12.34,12.34,0,0,1,4.43,3.56,14.33,14.33,0,0,1,2.5,5.16,23.42,23.42,0,0,1,.78,6.06,22.47,22.47,0,0,1-.78,5.92,14.74,14.74,0,0,1-2.48,5.13,12.23,12.23,0,0,1-4.43,3.64,14.94,14.94,0,0,1-6.71,1.37h-9ZM245,180.11h5.79a12.77,12.77,0,0,0,5.8-1.17,9.82,9.82,0,0,0,3.67-3.07,12.33,12.33,0,0,0,1.93-4.38,22.58,22.58,0,0,0,.57-5.07,23.67,23.67,0,0,0-.54-5,12.35,12.35,0,0,0-1.88-4.42,10.07,10.07,0,0,0-3.65-3.12,12.44,12.44,0,0,0-5.75-1.19H245Z"/><path class="cls-5" d="M274.38,151.72a1.82,1.82,0,0,1-1.34-.57,2.12,2.12,0,0,1,0-2.89,1.82,1.82,0,0,1,1.34-.57,1.93,1.93,0,0,1,2,2,1.94,1.94,0,0,1-.56,1.44A1.92,1.92,0,0,1,274.38,151.72ZM273,157.39h2.68v25.09H273Z"/><path class="cls-5" d="M284.34,157.39H287V160a8.83,8.83,0,0,1,2.68-2.23,7.35,7.35,0,0,1,3.5-.82,7.88,7.88,0,0,1,1.14.1,8.31,8.31,0,0,1,1.14.27v2.52c-.31-.06-.68-.16-1.11-.26a6.25,6.25,0,0,0-1.42-.15,6.63,6.63,0,0,0-3.61.88,10.47,10.47,0,0,0-2.32,1.91v20.23h-2.69Z"/><path class="cls-5" d="M309.27,182.89a12.73,12.73,0,0,1-5.06-.93,9.77,9.77,0,0,1-3.61-2.6,11,11,0,0,1-2.17-4.05,19.39,19.39,0,0,1,0-10.61,12.17,12.17,0,0,1,2.15-4.11,10,10,0,0,1,3.4-2.66,10.44,10.44,0,0,1,4.49-1,8.53,8.53,0,0,1,4.18,1,8.19,8.19,0,0,1,2.76,2.49,10.67,10.67,0,0,1,1.56,3.4,15.11,15.11,0,0,1,.48,3.74v.82a8,8,0,0,1-.05.94h-17v.62a16.56,16.56,0,0,0,.52,4.18,9.77,9.77,0,0,0,1.6,3.41,7.36,7.36,0,0,0,2.76,2.26,8.92,8.92,0,0,0,4,.83,15.21,15.21,0,0,0,3.79-.43,16.22,16.22,0,0,0,3-1.12v2.37a15.18,15.18,0,0,1-2.78,1A16.12,16.12,0,0,1,309.27,182.89Zm-.83-23.63a9.71,9.71,0,0,0-2.45.32,6.24,6.24,0,0,0-2.35,1.25,8,8,0,0,0-1.91,2.45,11.53,11.53,0,0,0-1.13,3.92h14.14v-.26a10.36,10.36,0,0,0-.42-2.89,8.08,8.08,0,0,0-1.18-2.45,6,6,0,0,0-2-1.7A5.66,5.66,0,0,0,308.44,159.26Z"/><path class="cls-5" d="M329.54,192.7a10.9,10.9,0,0,1-1.54-.13,4.87,4.87,0,0,1-1.24-.33v-1.76a7.27,7.27,0,0,0,1.08.31,7.35,7.35,0,0,0,1.61.15,4.14,4.14,0,0,0,2.08-.51,1.82,1.82,0,0,0,.9-1.7,1.69,1.69,0,0,0-1.09-1.76,7.43,7.43,0,0,0-2.62-.41l1.5-3.88a9.78,9.78,0,0,1-6.38-3.92,13.62,13.62,0,0,1-2.34-8.25,20.41,20.41,0,0,1,.64-5.2,13.07,13.07,0,0,1,2-4.3,9.9,9.9,0,0,1,3.38-2.95,10.15,10.15,0,0,1,4.78-1.08,14.57,14.57,0,0,1,3.69.41,9.57,9.57,0,0,1,2.39.94v2.31a12,12,0,0,0-5.83-1.38,7.94,7.94,0,0,0-3.74.82,7,7,0,0,0-2.58,2.3,10.09,10.09,0,0,0-1.49,3.54,19.1,19.1,0,0,0-.5,4.59c0,3.37.81,5.89,2.42,7.58a8.35,8.35,0,0,0,6.31,2.53,13.46,13.46,0,0,0,3.55-.39,9.75,9.75,0,0,0,2.38-.95v2.26a11.14,11.14,0,0,1-2.61,1,15,15,0,0,1-3.69.39h-.4l-.88,2.37a4,4,0,0,1,2.58,1.24,3.38,3.38,0,0,1,.82,2.23,3.43,3.43,0,0,1-1.41,2.94A6.34,6.34,0,0,1,329.54,192.7Z"/><path class="cls-5" d="M350.09,182.89a7.83,7.83,0,0,1-5.67-1.93,7,7,0,0,1,.82-10.56c1.9-1.35,4.58-2,8.06-2,.41,0,.9,0,1.49,0s1.1,0,1.54.07v-3.61c0-2-.46-3.46-1.39-4.31s-2.44-1.27-4.54-1.27a11.19,11.19,0,0,0-3.41.5,13.62,13.62,0,0,0-2.57,1v-2.42a15.44,15.44,0,0,1,2.86-1,13.8,13.8,0,0,1,3.59-.44,12.82,12.82,0,0,1,3.17.37,6.85,6.85,0,0,1,2.58,1.18,5.78,5.78,0,0,1,1.75,2.17,7.69,7.69,0,0,1,.66,3.35v14a2.73,2.73,0,0,0,.56,1.91,2.06,2.06,0,0,0,1.59.62,4.07,4.07,0,0,0,.5,0,2.83,2.83,0,0,0,.48-.08v2.07l-.87.21a5.71,5.71,0,0,1-1.09.1,3.62,3.62,0,0,1-2.26-.7,3.49,3.49,0,0,1-1.29-2,7.93,7.93,0,0,1-2.76,1.91A9.15,9.15,0,0,1,350.09,182.89Zm-5.41-31.27a7.56,7.56,0,0,1,1.91-1.81,4.79,4.79,0,0,1,2.84-.83,4.43,4.43,0,0,1,1.46.23c.43.16.82.32,1.19.5s.71.33,1.06.48a2.64,2.64,0,0,0,1.14.24,2.53,2.53,0,0,0,1.8-.67,14.61,14.61,0,0,0,1.07-1.09l1.46,1.34a8.65,8.65,0,0,1-1.94,1.78,4.83,4.83,0,0,1-2.86.85,3.57,3.57,0,0,1-1.38-.23,11.45,11.45,0,0,1-1.12-.49l-1.09-.49a3.14,3.14,0,0,0-1.21-.23,2.62,2.62,0,0,0-1.78.65,7,7,0,0,0-1.06,1.05Zm5.87,29a7.89,7.89,0,0,0,3.36-.72,8.33,8.33,0,0,0,2.42-1.6v-7.79a12.67,12.67,0,0,0-1.36-.08l-1.42,0a11.64,11.64,0,0,0-6.19,1.37,4.42,4.42,0,0,0-2.17,4,4.51,4.51,0,0,0,1.45,3.54A5.5,5.5,0,0,0,350.55,180.62Z"/><path class="cls-5" d="M375.8,182.89a10.44,10.44,0,0,1-4.72-1,9.53,9.53,0,0,1-3.29-2.73,11.74,11.74,0,0,1-1.88-4.09,21,21,0,0,1-.6-5.08,19.66,19.66,0,0,1,.62-4.88,13.13,13.13,0,0,1,1.89-4.15,9.58,9.58,0,0,1,3.26-2.9,10,10,0,0,1,4.77-1.08,10.32,10.32,0,0,1,4.75,1,9.05,9.05,0,0,1,3.25,2.76,11.59,11.59,0,0,1,1.88,4.13,20.81,20.81,0,0,1,.6,5.11,18.48,18.48,0,0,1-.63,4.85,11.9,11.9,0,0,1-1.91,4.1,9.64,9.64,0,0,1-3.27,2.87A9.74,9.74,0,0,1,375.8,182.89Zm.05-2.22a6.87,6.87,0,0,0,3.9-1,7,7,0,0,0,2.37-2.57,11,11,0,0,0,1.16-3.46,22.14,22.14,0,0,0,.32-3.64,21.9,21.9,0,0,0-.34-3.72,11.33,11.33,0,0,0-1.19-3.46,7.23,7.23,0,0,0-2.37-2.55,6.89,6.89,0,0,0-3.9-1,6.72,6.72,0,0,0-3.87,1,7.3,7.3,0,0,0-2.36,2.58,11,11,0,0,0-1.15,3.48,22.54,22.54,0,0,0-.31,3.67,19.57,19.57,0,0,0,.34,3.69,11.21,11.21,0,0,0,1.17,3.43,7.39,7.39,0,0,0,2.36,2.55A6.75,6.75,0,0,0,375.85,180.67Z"/><path class="cls-5" d="M391.85,166.42h9.76v2.33h-9.76Z"/><path class="cls-5" d="M422.65,182.89a17,17,0,0,1-6-1,12.27,12.27,0,0,1-4.66-3.05,13.59,13.59,0,0,1-3-5,20.7,20.7,0,0,1-1.06-7,23,23,0,0,1,.93-6.65,14.93,14.93,0,0,1,2.81-5.38,13.4,13.4,0,0,1,4.7-3.58,15.3,15.3,0,0,1,6.58-1.32,16.45,16.45,0,0,1,4.37.47,15.91,15.91,0,0,1,2.7,1v2.47a13,13,0,0,0-3.07-1.13,16.25,16.25,0,0,0-3.84-.42,12.57,12.57,0,0,0-5.53,1.12,10.42,10.42,0,0,0-3.82,3,13,13,0,0,0-2.22,4.6,22,22,0,0,0-.72,5.8c0,4.5,1.09,7.92,3.26,10.22s5.11,3.45,8.87,3.45a18.67,18.67,0,0,0,3.49-.28,14.05,14.05,0,0,0,2.5-.7V169h-6.05v-2.27h8.67v14.45a25.29,25.29,0,0,1-3.42,1.13A21.43,21.43,0,0,1,422.65,182.89Z"/><path class="cls-5" d="M449.23,182.89a12.66,12.66,0,0,1-5-.93,9.85,9.85,0,0,1-3.63-2.6,11.07,11.07,0,0,1-2.15-4.05,17.75,17.75,0,0,1-.74-5.27,17.48,17.48,0,0,1,.76-5.34,12.31,12.31,0,0,1,2.13-4.11,10,10,0,0,1,3.42-2.66,10.37,10.37,0,0,1,4.49-1,8.55,8.55,0,0,1,4.18,1,8.39,8.39,0,0,1,2.76,2.49,10.42,10.42,0,0,1,1.54,3.4,14.69,14.69,0,0,1,.5,3.74v.82a8.18,8.18,0,0,1-.06.94h-17v.62a16.57,16.57,0,0,0,.51,4.18,9.75,9.75,0,0,0,1.59,3.41,7.64,7.64,0,0,0,2.77,2.26,9,9,0,0,0,4,.83,15.15,15.15,0,0,0,3.79-.43,16,16,0,0,0,3-1.12v2.37a14.29,14.29,0,0,1-2.79,1A16,16,0,0,1,449.23,182.89Zm-.82-23.63a9.57,9.57,0,0,0-2.44.32,6.13,6.13,0,0,0-2.36,1.25,8.12,8.12,0,0,0-1.91,2.45,11.52,11.52,0,0,0-1.14,3.92h14.16v-.26a10.36,10.36,0,0,0-.42-2.89,7.67,7.67,0,0,0-1.2-2.45,5.63,5.63,0,0,0-4.69-2.34Z"/><path class="cls-5" d="M463.53,157.39h2.68V160a8.9,8.9,0,0,1,2.7-2.23,7.29,7.29,0,0,1,3.5-.82,8.26,8.26,0,0,1,1.14.1,8.67,8.67,0,0,1,1.14.27v2.52c-.32-.06-.68-.16-1.11-.26a6.34,6.34,0,0,0-1.43-.15,6.63,6.63,0,0,0-3.61.88,11,11,0,0,0-2.33,1.91v20.23h-2.68Z"/><path class="cls-5" d="M484,182.89A7.85,7.85,0,0,1,478.3,181a7,7,0,0,1,.82-10.56c1.9-1.35,4.58-2,8.06-2,.41,0,.9,0,1.49,0s1.1,0,1.55.07v-3.61c0-2-.46-3.46-1.39-4.31a6.69,6.69,0,0,0-4.54-1.27,11.26,11.26,0,0,0-3.42.5,13.62,13.62,0,0,0-2.57,1v-2.42a15.44,15.44,0,0,1,2.86-1,13.85,13.85,0,0,1,3.59-.44,12.84,12.84,0,0,1,3.18.37,6.74,6.74,0,0,1,2.57,1.18,5.8,5.8,0,0,1,1.76,2.17,7.69,7.69,0,0,1,.65,3.35v14a2.78,2.78,0,0,0,.56,1.91,2.09,2.09,0,0,0,1.6.62,4.07,4.07,0,0,0,.5,0,3,3,0,0,0,.48-.08v2.07l-.88.21a5.6,5.6,0,0,1-1.08.1,3.65,3.65,0,0,1-2.27-.7,3.59,3.59,0,0,1-1.29-2,7.74,7.74,0,0,1-2.76,1.91A9.11,9.11,0,0,1,484,182.89Zm.46-2.27a7.92,7.92,0,0,0,3.36-.72,8.47,8.47,0,0,0,2.42-1.6v-7.79a12.71,12.71,0,0,0-1.37-.08l-1.42,0a11.64,11.64,0,0,0-6.19,1.37,4.42,4.42,0,0,0-2.17,4,4.55,4.55,0,0,0,1.45,3.54A5.52,5.52,0,0,0,484.44,180.62Z"/><path class="cls-5" d="M501.32,147.38H504v35.1h-2.68Z"/><path class="cls-5" d="M532.63,182.89a9.28,9.28,0,0,1-7.73-3.38q-2.68-3.37-2.69-9.47a16.17,16.17,0,0,1,.79-5.13,12.14,12.14,0,0,1,2.23-4.16,10.6,10.6,0,0,1,3.59-2.76,11.08,11.08,0,0,1,4.8-1,12,12,0,0,1,3.25.41,8.61,8.61,0,0,1,2,.78V147.38h2.68v35.1h-2.68v-2a8,8,0,0,1-2.28,1.58A8.54,8.54,0,0,1,532.63,182.89Zm.53-2.38a8.51,8.51,0,0,0,3.23-.59,9.11,9.11,0,0,0,2.5-1.47v-18a11.27,11.27,0,0,0-2.07-.77,10.94,10.94,0,0,0-2.94-.37,8.74,8.74,0,0,0-3.8.78,7.88,7.88,0,0,0-2.76,2.17,9.46,9.46,0,0,0-1.7,3.35,15.51,15.51,0,0,0-.57,4.34,18.83,18.83,0,0,0,.42,4.07,9.3,9.3,0,0,0,1.4,3.36,7,7,0,0,0,2.49,2.29A7.66,7.66,0,0,0,533.16,180.51Z"/><path class="cls-5" d="M555.45,182.89a7.88,7.88,0,0,1-5.68-1.93,6.6,6.6,0,0,1-2-4.93,6.49,6.49,0,0,1,2.84-5.63q2.82-2,8-2c.42,0,.92,0,1.49,0s1.12,0,1.56.07v-3.61c0-2-.47-3.46-1.4-4.31s-2.43-1.27-4.54-1.27a11.08,11.08,0,0,0-3.4.5,14.15,14.15,0,0,0-2.59,1v-2.42a16.11,16.11,0,0,1,2.87-1,13.8,13.8,0,0,1,3.59-.44,12.82,12.82,0,0,1,3.17.37,6.9,6.9,0,0,1,2.59,1.18,5.88,5.88,0,0,1,1.75,2.17,7.7,7.7,0,0,1,.64,3.35v14A2.73,2.73,0,0,0,565,180a2.06,2.06,0,0,0,1.6.62,3.91,3.91,0,0,0,.49,0,3.43,3.43,0,0,0,.5-.08v2.07l-.88.21a5.87,5.87,0,0,1-1.09.1,3.7,3.7,0,0,1-2.28-.7,3.63,3.63,0,0,1-1.28-2,7.79,7.79,0,0,1-2.77,1.91A9.08,9.08,0,0,1,555.45,182.89Zm.47-2.27a7.84,7.84,0,0,0,3.35-.72,8.67,8.67,0,0,0,2.43-1.6v-7.79a13.08,13.08,0,0,0-1.37-.08l-1.42,0a11.67,11.67,0,0,0-6.19,1.37,4.41,4.41,0,0,0-2.16,4A4.53,4.53,0,0,0,552,179.3,5.58,5.58,0,0,0,555.92,180.62Z"/><path class="cls-5" d="M591.48,182.89a22.07,22.07,0,0,1-4.69-.47,19.83,19.83,0,0,1-3.57-1v-2.53a16.74,16.74,0,0,0,1.61.62c.61.2,1.28.38,2,.54a21.62,21.62,0,0,0,2.16.36,20.2,20.2,0,0,0,2.15.12,10.78,10.78,0,0,0,2.86-.35,7,7,0,0,0,2.33-1.14,5.38,5.38,0,0,0,1.57-1.93,6.39,6.39,0,0,0,.56-2.82,6,6,0,0,0-.48-2.55,5.69,5.69,0,0,0-1.51-1.94,13.08,13.08,0,0,0-2.47-1.66c-1-.5-2.1-1.05-3.37-1.64-.86-.41-1.72-.84-2.57-1.29a9.22,9.22,0,0,1-2.23-1.65,7.54,7.54,0,0,1-2.23-5.68,7.1,7.1,0,0,1,2.58-5.91,10.67,10.67,0,0,1,6.82-2,17.94,17.94,0,0,1,4.27.49,18.3,18.3,0,0,1,2.86.9v2.48a13.94,13.94,0,0,0-3-1,17,17,0,0,0-4-.47,7.62,7.62,0,0,0-5,1.48,5,5,0,0,0-1.8,4.1,5.19,5.19,0,0,0,.44,2.27,5,5,0,0,0,1.26,1.65,10,10,0,0,0,2.06,1.37c.83.43,1.8.88,2.9,1.37.92.41,1.89.87,2.89,1.4a12.66,12.66,0,0,1,2.7,1.85,8.58,8.58,0,0,1,2,2.63,8.47,8.47,0,0,1,.77,3.77,8.68,8.68,0,0,1-.69,3.5,7.85,7.85,0,0,1-2,2.77,9.12,9.12,0,0,1-3.12,1.81A12.38,12.38,0,0,1,591.48,182.89Z"/><path class="cls-5" d="M613.62,182.89a7.87,7.87,0,0,1-5.68-1.93,6.56,6.56,0,0,1-2-4.93,6.49,6.49,0,0,1,2.84-5.63q2.82-2,8-2c.42,0,.92,0,1.49,0s1.12,0,1.56.07v-3.61c0-2-.47-3.46-1.4-4.31s-2.43-1.27-4.54-1.27a11.13,11.13,0,0,0-3.4.5,13.86,13.86,0,0,0-2.59,1v-2.42a16.11,16.11,0,0,1,2.87-1,13.8,13.8,0,0,1,3.59-.44,12.88,12.88,0,0,1,3.17.37,6.9,6.9,0,0,1,2.59,1.18,5.88,5.88,0,0,1,1.75,2.17,7.7,7.7,0,0,1,.64,3.35v14a2.73,2.73,0,0,0,.56,1.91,2.09,2.09,0,0,0,1.61.62,3.64,3.64,0,0,0,.48,0,2.89,2.89,0,0,0,.5-.08v2.07l-.87.21a5.87,5.87,0,0,1-1.09.1,3.68,3.68,0,0,1-2.28-.7,3.63,3.63,0,0,1-1.28-2,7.88,7.88,0,0,1-2.77,1.91A9.11,9.11,0,0,1,613.62,182.89Zm.47-2.27a7.77,7.77,0,0,0,3.34-.72,8.59,8.59,0,0,0,2.44-1.6v-7.79a13.26,13.26,0,0,0-1.37-.08l-1.42,0a11.67,11.67,0,0,0-6.19,1.37,4.41,4.41,0,0,0-2.16,4,4.53,4.53,0,0,0,1.43,3.54A5.58,5.58,0,0,0,614.09,180.62Z"/><path class="cls-5" d="M638.8,182.89a9.57,9.57,0,0,1-3.82-.67,6.22,6.22,0,0,1-2.48-1.88,7.85,7.85,0,0,1-1.34-2.84,14.21,14.21,0,0,1-.41-3.54V157.39h2.63v16a13.1,13.1,0,0,0,.29,2.91,5.64,5.64,0,0,0,1,2.27,4.56,4.56,0,0,0,1.86,1.48,7.4,7.4,0,0,0,3,.51,9.62,9.62,0,0,0,3.61-.67,15.65,15.65,0,0,0,2.73-1.39V157.39h2.68v25.09h-2.68v-2a6.57,6.57,0,0,1-1.11.78,11.69,11.69,0,0,1-1.62.78,17.19,17.19,0,0,1-2,.61A9.81,9.81,0,0,1,638.8,182.89Zm4.5-35.25h3.86l-6.29,6.14h-2.48Z"/><path class="cls-5" d="M665.23,182.89a9.28,9.28,0,0,1-7.74-3.38q-2.68-3.37-2.68-9.47a16.75,16.75,0,0,1,.77-5.13,12.17,12.17,0,0,1,2.25-4.16,10.47,10.47,0,0,1,3.58-2.76,11.05,11.05,0,0,1,4.8-1,12,12,0,0,1,3.25.41,8.49,8.49,0,0,1,2,.78V147.38h2.7v35.1h-2.7v-2a7.58,7.58,0,0,1-2.26,1.58A8.6,8.6,0,0,1,665.23,182.89Zm.51-2.38a8.44,8.44,0,0,0,3.23-.59,8.69,8.69,0,0,0,2.5-1.47v-18a10.74,10.74,0,0,0-2.05-.77,11,11,0,0,0-2.94-.37,8.62,8.62,0,0,0-3.8.78,7.79,7.79,0,0,0-2.76,2.17,9.49,9.49,0,0,0-1.72,3.35,15.9,15.9,0,0,0-.56,4.34,19.49,19.49,0,0,0,.41,4.07,9.66,9.66,0,0,0,1.4,3.36,7.22,7.22,0,0,0,2.5,2.29A7.7,7.7,0,0,0,665.74,180.51Z"/><path class="cls-5" d="M692,182.89A12.73,12.73,0,0,1,687,182a9.77,9.77,0,0,1-3.61-2.6,11,11,0,0,1-2.17-4.05,17.77,17.77,0,0,1-.72-5.27,18.14,18.14,0,0,1,.74-5.34,12.17,12.17,0,0,1,2.15-4.11,10.06,10.06,0,0,1,3.4-2.66,10.48,10.48,0,0,1,4.5-1,8.48,8.48,0,0,1,4.17,1,8.32,8.32,0,0,1,2.77,2.49,10.65,10.65,0,0,1,1.55,3.4,14.65,14.65,0,0,1,.48,3.74v.82a8,8,0,0,1-.05.94h-17v.62a16.57,16.57,0,0,0,.51,4.18,10.15,10.15,0,0,0,1.61,3.41,7.36,7.36,0,0,0,2.76,2.26,8.92,8.92,0,0,0,4,.83,15.35,15.35,0,0,0,3.8-.43,16.39,16.39,0,0,0,3-1.12v2.37a14.91,14.91,0,0,1-2.78,1A16.18,16.18,0,0,1,692,182.89Zm-.83-23.63a9.71,9.71,0,0,0-2.45.32,6.12,6.12,0,0,0-2.34,1.25,8,8,0,0,0-1.91,2.45,11.52,11.52,0,0,0-1.14,3.92h14.14v-.26a10.36,10.36,0,0,0-.42-2.89,8.08,8.08,0,0,0-1.18-2.45,5.85,5.85,0,0,0-2-1.7A5.66,5.66,0,0,0,691.19,159.26Z"/><path class="cls-5" d="M242.15,1.76h42.51c43.87,0,59.94,29.39,59.94,60.92,0,29.78-15.47,60.93-60.53,60.93H242.15Zm39,99.9c28.59,0,35.46-17.23,35.46-39s-6.47-39.37-34.28-39.37H269v78.35Z"/><path class="cls-5" d="M361.06,64.05c0-34.09,18.62-64,62.69-64C439.62,0,450,2.75,458,6.27V29.19c-9.61-4.51-19.79-7.06-32.91-7.06-23.7,0-35.66,14.89-35.66,41.92,0,26.25,12.53,39.57,34.87,39.57a41.14,41.14,0,0,0,14.11-2.15V77.37h-19V57.2H464.3v60.72A116.89,116.89,0,0,1,423,125.17C382.82,125.17,361.06,100.29,361.06,64.05Z"/><path class="cls-5" d="M485.85,118.32V95c8.82,4.11,20.17,8.22,31.93,8.22,13.51,0,20.38-4.7,20.38-13.71,0-10.57-9.21-11.76-27.63-19.78-12.54-5.69-24.48-14.5-24.48-34.88C486.05,11.17,503.88,0,528.55,0a89.4,89.4,0,0,1,30.56,5.49V28.21a72.31,72.31,0,0,0-28.6-6.47c-12.14,0-17.82,4.51-17.82,12.35,0,8.22,6.85,10.77,19.2,15.47,15.86,8,34.27,11.55,34.27,39,0,23.7-18.61,36.63-43.48,36.63C507.4,125.17,495.27,122.43,485.85,118.32Z"/><path class="cls-5" d="M606.63,51.22a7.9,7.9,0,0,1-6.58-2.88c-1.53-1.92-2.28-4.6-2.28-8.06a14.41,14.41,0,0,1,.64-4.36,10.65,10.65,0,0,1,1.93-3.53,8.91,8.91,0,0,1,3-2.36,9.41,9.41,0,0,1,4.09-.85,10.16,10.16,0,0,1,2.76.35,6.66,6.66,0,0,1,1.72.66V21h2.28V50.87H612V49.16A6.37,6.37,0,0,1,610,50.49,7.15,7.15,0,0,1,606.63,51.22Zm.44-2a7,7,0,0,0,2.74-.51A7.54,7.54,0,0,0,612,47.44V32.12a8.28,8.28,0,0,0-1.75-.66,9.71,9.71,0,0,0-2.51-.3,7.42,7.42,0,0,0-3.23.65,6.54,6.54,0,0,0-2.35,1.85,7.76,7.76,0,0,0-1.45,2.85,13.35,13.35,0,0,0-.48,3.69,17.35,17.35,0,0,0,.34,3.46,8.32,8.32,0,0,0,1.19,2.87,6.17,6.17,0,0,0,2.14,1.95A6.53,6.53,0,0,0,607.07,49.2Z"/><path class="cls-5" d="M628.63,51.22a10.8,10.8,0,0,1-4.31-.79,8.13,8.13,0,0,1-3.07-2.22,9.36,9.36,0,0,1-1.84-3.45,14.94,14.94,0,0,1-.61-4.48,15.33,15.33,0,0,1,.63-4.54,10.51,10.51,0,0,1,1.82-3.49,8.35,8.35,0,0,1,2.9-2.26,8.8,8.8,0,0,1,3.82-.81,7.23,7.23,0,0,1,3.56.81,6.91,6.91,0,0,1,2.35,2.1,9.32,9.32,0,0,1,1.31,2.9,12.54,12.54,0,0,1,.42,3.19v.7a7.72,7.72,0,0,1,0,.79H621.12v.53a14,14,0,0,0,.43,3.55,8.56,8.56,0,0,0,1.37,2.9,6.39,6.39,0,0,0,2.36,1.94,7.51,7.51,0,0,0,3.39.7,12.56,12.56,0,0,0,3.24-.37,13.77,13.77,0,0,0,2.51-1v2a13.95,13.95,0,0,1-5.79,1.23Zm-.7-20.11a8,8,0,0,0-2.08.29,5,5,0,0,0-2,1,6.91,6.91,0,0,0-1.63,2.09,9.93,9.93,0,0,0-1,3.34h12v-.22a9.06,9.06,0,0,0-.34-2.45,6.94,6.94,0,0,0-1-2.1,5.26,5.26,0,0,0-1.67-1.44A4.8,4.8,0,0,0,627.93,31.11Z"/><path class="cls-5" d="M645.23,51.22a17.34,17.34,0,0,1-3.09-.31A10.27,10.27,0,0,1,639.3,50V48a11.54,11.54,0,0,0,2.56.88,13,13,0,0,0,3.07.39,6.48,6.48,0,0,0,3.86-1,3.55,3.55,0,0,0,1.36-3.1,3.37,3.37,0,0,0-.36-1.62,3.13,3.13,0,0,0-1-1.14,7.13,7.13,0,0,0-1.53-.86c-.6-.25-1.28-.5-2-.76a17.51,17.51,0,0,1-2.34-1,7.86,7.86,0,0,1-1.79-1.24,5,5,0,0,1-1.59-3.79,4.93,4.93,0,0,1,1.87-4.23,8,8,0,0,1,4.85-1.38,12.66,12.66,0,0,1,3.07.33,11.61,11.61,0,0,1,2,.68v2.06a10.22,10.22,0,0,0-2.09-.75,11.13,11.13,0,0,0-3-.39A5.3,5.3,0,0,0,643,32a3.12,3.12,0,0,0-1.2,2.66,3,3,0,0,0,.36,1.51,3.41,3.41,0,0,0,.94,1.1,6.55,6.55,0,0,0,1.41.83,16,16,0,0,0,1.73.68c.73.26,1.47.56,2.22.88a9.49,9.49,0,0,1,2,1.19,5.51,5.51,0,0,1,1.44,1.73,5.29,5.29,0,0,1,.56,2.53,5.94,5.94,0,0,1-.54,2.53,5.3,5.3,0,0,1-1.5,1.9,7,7,0,0,1-2.27,1.23A9.14,9.14,0,0,1,645.23,51.22Z"/><path class="cls-5" d="M664.29,51.22a7.9,7.9,0,0,1-6.58-2.88c-1.53-1.92-2.28-4.6-2.28-8.06a14.41,14.41,0,0,1,.64-4.36A10.81,10.81,0,0,1,658,32.39,9,9,0,0,1,661,30a9.41,9.41,0,0,1,4.09-.85,10.39,10.39,0,0,1,2.77.35,6.45,6.45,0,0,1,1.7.66V21h2.29V50.87H669.6V49.16a6.17,6.17,0,0,1-1.93,1.33A7.15,7.15,0,0,1,664.29,51.22Zm.44-2a7,7,0,0,0,2.74-.51,7.35,7.35,0,0,0,2.13-1.25V32.12a8.17,8.17,0,0,0-1.74-.66,9.71,9.71,0,0,0-2.51-.3,7.42,7.42,0,0,0-3.23.65,6.54,6.54,0,0,0-2.35,1.85,8.09,8.09,0,0,0-1.46,2.85,13.36,13.36,0,0,0-.47,3.69,17.35,17.35,0,0,0,.34,3.46,8.32,8.32,0,0,0,1.19,2.87,6.26,6.26,0,0,0,2.14,1.95A6.53,6.53,0,0,0,664.73,49.2Z"/><path class="cls-5" d="M686.34,51.22a10.87,10.87,0,0,1-4.31-.79A8.21,8.21,0,0,1,679,48.21a9.36,9.36,0,0,1-1.84-3.45,16.58,16.58,0,0,1,0-9A10.34,10.34,0,0,1,679,32.25a8.17,8.17,0,0,1,2.9-2.26,8.83,8.83,0,0,1,3.82-.81,7.19,7.19,0,0,1,3.55.81,6.91,6.91,0,0,1,2.35,2.1A8.9,8.9,0,0,1,692.9,35a12.52,12.52,0,0,1,.41,3.19v.7c0,.23,0,.5,0,.79H678.83v.53a14,14,0,0,0,.44,3.55,8,8,0,0,0,1.36,2.9A6.28,6.28,0,0,0,683,48.59a7.6,7.6,0,0,0,3.41.7,12.21,12.21,0,0,0,3.21-.37,13.81,13.81,0,0,0,2.54-1v2a15,15,0,0,1-2.38.82A13.82,13.82,0,0,1,686.34,51.22Zm-.71-20.11a8.08,8.08,0,0,0-2.08.29,5.19,5.19,0,0,0-2,1,7,7,0,0,0-1.62,2.09,9.49,9.49,0,0,0-1,3.34h12v-.22a8.34,8.34,0,0,0-.35-2.45,6.71,6.71,0,0,0-1-2.1A5.06,5.06,0,0,0,688,31.66,4.75,4.75,0,0,0,685.63,31.11Z"/><path class="cls-5" d="M605.38,73.33a29.84,29.84,0,0,1-7,2.31v-3.3a23.29,23.29,0,0,0,7.83-3.14h3.14v32.57h-4Z"/><path class="cls-5" d="M618.29,93.67c0-4.54,3.13-7,7.05-8.94-3.65-2.09-6.37-3.81-6.37-8.21s4.44-7.73,9.51-7.73c6,0,9.73,3.29,9.73,7.53,0,4.49-3.09,6.43-6.37,8.09,3.85,2,7.1,3.78,7.1,9,0,5.54-4.76,8.74-10.19,8.74C622.27,102.2,618.29,97.85,618.29,93.67Zm16.57-.26c0-3.14-2.67-4.87-6.75-7.11-3.07,1.57-5.89,3.45-5.89,7.21,0,3.14,3.18,5.28,6.64,5.28S634.86,97,634.86,93.41ZM629.05,82.9c2.52-1.2,5.4-3,5.4-6.38,0-2.77-2.67-4.5-5.75-4.5S623,73.65,623,76.47C623,79.87,625.87,81.28,629.05,82.9Z"/><path class="cls-5" d="M647,101.3V97.81a12.8,12.8,0,0,0,5.53,1.09c5.59,0,9.52-3.61,9.93-11.4a12.18,12.18,0,0,1-7.42,2.67c-6.11,0-9.88-3.93-9.88-10.3,0-5.71,3.72-11.08,10.36-11.08,7.47,0,11.23,5.85,11.23,15.58,0,12.23-6.17,17.83-13.7,17.83A19,19,0,0,1,647,101.3Zm15.62-16.72c.05-.73.1-1.31.1-2,0-6.17-2.55-10.52-6.85-10.52s-6.59,3.3-6.59,7.69S651.46,87,655.55,87A11.2,11.2,0,0,0,662.65,84.58Z"/><path class="cls-5" d="M675.12,101.3V97.81a13,13,0,0,0,5.54,1.09c5.59,0,9.51-3.61,9.94-11.4a12.25,12.25,0,0,1-7.42,2.67c-6.12,0-9.89-3.93-9.89-10.3,0-5.71,3.71-11.08,10.35-11.08,7.47,0,11.23,5.85,11.23,15.58,0,12.23-6.15,17.83-13.68,17.83A19.23,19.23,0,0,1,675.12,101.3Zm15.64-16.72c0-.73.1-1.31.1-2,0-6.17-2.57-10.52-6.85-10.52s-6.58,3.3-6.58,7.69S679.56,87,683.64,87A11.26,11.26,0,0,0,690.76,84.58Z"/><rect class="cls-5" x="593.03" y="121.91" width="106.6" height="1.7"/><rect class="cls-5" x="593" y="1.76" width="106.63" height="1.69"/></g></g></svg>