<svg xmlns="http://www.w3.org/2000/svg" viewBox="0 0 36.03 30.98"><defs><style>.cls-1{fill:#fff;}</style></defs><title>erro</title><g id="Camada_2" data-name="Camada 2"><g id="Camada_1-2" data-name="Camada 1"><path class="cls-1" d="M35.57,26.07,20.79,1.57a3.24,3.24,0,0,0-5.54,0L.46,26.07A3.24,3.24,0,0,0,3.24,31H32.79a3.24,3.24,0,0,0,2.77-4.91Zm-2,2.11a.89.89,0,0,1-.78.45H3.24a.89.89,0,0,1-.76-1.35L17.25,2.78a.89.89,0,0,1,1.53,0L33.56,27.29A.89.89,0,0,1,33.57,28.18Z"/><path class="cls-1" d="M18,9.65c-.89,0-1.59.48-1.59,1.33,0,2.59.3,6.31.3,8.9,0,.67.59,1,1.28,1,.52,0,1.26-.28,1.26-1,0-2.59.3-6.31.3-8.9A1.4,1.4,0,0,0,18,9.65Z"/><path class="cls-1" d="M18,22.34a1.68,1.68,0,1,0,0,3.35,1.68,1.68,0,0,0,0-3.35Z"/></g></g></svg>