<svg xmlns="http://www.w3.org/2000/svg" viewBox="0 0 320 51"><defs><style>.cls-1{fill:#e6e6e6;}.cls-2{fill:#567485;}</style></defs><title>fichainem</title><g id="Camada_2" data-name="Camada 2"><g id="Camada_1-2" data-name="Camada 1"><rect class="cls-1" width="320" height="51"/><path class="cls-2" d="M101.49,29.71V22l-3.17,5.8h-.93L94.21,22v7.67H92.53V19.06h1.8l3.52,6.51,3.53-6.51h1.8V29.71Z"/><path class="cls-2" d="M108.79,29.86a4.08,4.08,0,0,1-1.67-.33A3.85,3.85,0,0,1,105,27.35a4.37,4.37,0,0,1,0-3.11,3.84,3.84,0,0,1,.82-1.3,4,4,0,0,1,1.27-.89,4.1,4.1,0,0,1,4.59.89,3.84,3.84,0,0,1,.82,1.3,4.37,4.37,0,0,1,0,3.11,3.83,3.83,0,0,1-.82,1.3,4,4,0,0,1-1.27.89A4,4,0,0,1,108.79,29.86Zm-2.34-4.05a3,3,0,0,0,.18,1.05,2.61,2.61,0,0,0,.5.83,2.29,2.29,0,0,0,.74.55,2.2,2.2,0,0,0,1.84,0,2.27,2.27,0,0,0,.74-.56,2.69,2.69,0,0,0,.49-.84,3.13,3.13,0,0,0,0-2.09,2.68,2.68,0,0,0-.49-.85,2.27,2.27,0,0,0-.74-.56,2.12,2.12,0,0,0-.92-.2,2,2,0,0,0-.91.21,2.36,2.36,0,0,0-.74.57,2.8,2.8,0,0,0-.5.85A2.88,2.88,0,0,0,106.45,25.81Z"/><path class="cls-2" d="M117.15,29.86a6,6,0,0,1-1.88-.31,4.78,4.78,0,0,1-1.61-.88l.66-1a6.11,6.11,0,0,0,1.4.77,3.94,3.94,0,0,0,1.41.26,2.07,2.07,0,0,0,1.16-.29.92.92,0,0,0,.43-.81.75.75,0,0,0-.48-.72,9.76,9.76,0,0,0-1.5-.5q-.74-.19-1.26-.37a3.23,3.23,0,0,1-.86-.42,1.46,1.46,0,0,1-.48-.55,1.77,1.77,0,0,1-.15-.76,2.35,2.35,0,0,1,.23-1.07,2.29,2.29,0,0,1,.65-.79,2.89,2.89,0,0,1,1-.49,4.21,4.21,0,0,1,1.2-.17,4.93,4.93,0,0,1,1.65.27,4.3,4.3,0,0,1,1.37.78l-.71,1A3.68,3.68,0,0,0,117,22.9a2,2,0,0,0-1.06.26.91.91,0,0,0-.43.83.84.84,0,0,0,.09.41.76.76,0,0,0,.29.28,2.38,2.38,0,0,0,.53.22l.8.22q.79.19,1.37.39a3.75,3.75,0,0,1,1,.46,1.7,1.7,0,0,1,.56.61,1.84,1.84,0,0,1,.18.85,2.12,2.12,0,0,1-.85,1.78A3.68,3.68,0,0,1,117.15,29.86Z"/><path class="cls-2" d="M126.1,29.3a8.12,8.12,0,0,1-.87.34,3.68,3.68,0,0,1-1.19.19,2.5,2.5,0,0,1-.73-.11,1.79,1.79,0,0,1-.61-.31,1.41,1.41,0,0,1-.41-.55,2,2,0,0,1-.15-.82V23.14h-1V21.87h1V19.29h1.65v2.58h1.71v1.27h-1.71v4.38a.82.82,0,0,0,.26.61.89.89,0,0,0,.58.19,1.84,1.84,0,0,0,.66-.12l.46-.2Z"/><path class="cls-2" d="M131.65,23.29a3.71,3.71,0,0,0-1.7.44,2.34,2.34,0,0,0-1.06,1.18v4.8h-1.65V21.87h1.53v1.75a3.59,3.59,0,0,1,1.06-1.3,2.57,2.57,0,0,1,1.4-.53h.42Z"/><path class="cls-2" d="M134.83,29.86a2.92,2.92,0,0,1-1.06-.19,2.55,2.55,0,0,1-.84-.52,2.4,2.4,0,0,1-.55-.78,2.34,2.34,0,0,1-.2-1,2.11,2.11,0,0,1,.24-1,2.35,2.35,0,0,1,.68-.78,3.32,3.32,0,0,1,1.05-.51,4.74,4.74,0,0,1,1.34-.18,6.2,6.2,0,0,1,1.1.1,5.53,5.53,0,0,1,1,.26v-.54a1.82,1.82,0,0,0-.49-1.36,2,2,0,0,0-1.43-.49,3.43,3.43,0,0,0-1.24.23,6.26,6.26,0,0,0-1.25.67l-.51-1a5.57,5.57,0,0,1,3.15-1,3.59,3.59,0,0,1,2.52.83,3.06,3.06,0,0,1,.9,2.37v2.83c0,.35.14.53.44.54v1.41l-.41.06-.34,0a1.06,1.06,0,0,1-.74-.24,1,1,0,0,1-.32-.62l0-.5a3.48,3.48,0,0,1-1.3,1.06A3.81,3.81,0,0,1,134.83,29.86Zm.45-1.22a3,3,0,0,0,1.13-.22,2,2,0,0,0,.83-.61.76.76,0,0,0,.31-.57v-1a5.13,5.13,0,0,0-1.81-.34,2.52,2.52,0,0,0-1.45.38,1.17,1.17,0,0,0-.56,1,1.28,1.28,0,0,0,.43,1A1.58,1.58,0,0,0,135.28,28.64Z"/><path class="cls-2" d="M145.62,23.29a3.7,3.7,0,0,0-1.7.44,2.34,2.34,0,0,0-1.06,1.18v4.8h-1.65V21.87h1.53v1.75a3.59,3.59,0,0,1,1.06-1.3,2.57,2.57,0,0,1,1.4-.53h.42Z"/><path class="cls-2" d="M150.37,29.71V19.06h7.09v1.49h-5.41v3.18h4.53v1.4h-4.53v4.59Z"/><path class="cls-2" d="M158.85,20.58V18.76h1.65v1.82Zm0,9.13V21.87h1.65v7.84Z"/><path class="cls-2" d="M162,25.78a4.29,4.29,0,0,1,.29-1.56,3.82,3.82,0,0,1,2.1-2.17,4.21,4.21,0,0,1,1.68-.32,4,4,0,0,1,2.09.53,3.38,3.38,0,0,1,1.31,1.42l-1.61.51a2.07,2.07,0,0,0-.76-.77,2.09,2.09,0,0,0-1.07-.28,2.2,2.2,0,0,0-1.66.74,2.61,2.61,0,0,0-.5.83,3,3,0,0,0-.18,1.07,2.92,2.92,0,0,0,.19,1.06,2.72,2.72,0,0,0,.51.85,2.34,2.34,0,0,0,.75.56,2.09,2.09,0,0,0,.91.2,2.23,2.23,0,0,0,.6-.08,2.14,2.14,0,0,0,1-.58,1.3,1.3,0,0,0,.28-.42l1.62.48a3.2,3.2,0,0,1-1.3,1.45,4,4,0,0,1-2.16.56,4.09,4.09,0,0,1-1.67-.33,3.9,3.9,0,0,1-1.28-.89,4,4,0,0,1-.83-1.3A4.17,4.17,0,0,1,162,25.78Z"/><path class="cls-2" d="M177.89,29.71h-1.65V25.32a2.7,2.7,0,0,0-.38-1.6,1.29,1.29,0,0,0-1.1-.52,1.88,1.88,0,0,0-.69.13,2.47,2.47,0,0,0-.65.38,2.87,2.87,0,0,0-.55.58,2.49,2.49,0,0,0-.36.74v4.67h-1.65v-11h1.65v4.68a3.26,3.26,0,0,1,1.22-1.26,3.3,3.3,0,0,1,1.69-.45,2.47,2.47,0,0,1,1.21.26,2.12,2.12,0,0,1,.76.7,2.82,2.82,0,0,1,.4,1,6.46,6.46,0,0,1,.11,1.22Z"/><path class="cls-2" d="M181.9,29.86a2.92,2.92,0,0,1-1.06-.19,2.55,2.55,0,0,1-.84-.52,2.41,2.41,0,0,1-.56-.78,2.35,2.35,0,0,1-.2-1,2.11,2.11,0,0,1,.24-1,2.34,2.34,0,0,1,.68-.78,3.32,3.32,0,0,1,1-.51,4.75,4.75,0,0,1,1.34-.18,6.21,6.21,0,0,1,1.09.1,5.54,5.54,0,0,1,1,.26v-.54a1.82,1.82,0,0,0-.5-1.36,2,2,0,0,0-1.42-.49,3.43,3.43,0,0,0-1.24.23,6.28,6.28,0,0,0-1.25.67l-.51-1a5.57,5.57,0,0,1,3.15-1,3.6,3.6,0,0,1,2.52.83,3.06,3.06,0,0,1,.9,2.37v2.83q0,.53.43.54v1.41l-.41.06-.34,0a1.06,1.06,0,0,1-.74-.24,1,1,0,0,1-.32-.62l0-.5a3.5,3.5,0,0,1-1.3,1.06A3.81,3.81,0,0,1,181.9,29.86Zm.45-1.22a3,3,0,0,0,1.13-.22,2,2,0,0,0,.83-.61.76.76,0,0,0,.32-.57v-1a5,5,0,0,0-.89-.25,5,5,0,0,0-.92-.09,2.52,2.52,0,0,0-1.45.38,1.17,1.17,0,0,0-.56,1,1.28,1.28,0,0,0,.44,1A1.58,1.58,0,0,0,182.35,28.64Z"/><path class="cls-2" d="M192.19,29.71V19.06h1.68V29.71Z"/><path class="cls-2" d="M197.95,22.21v7.5h-1.68V19.06h1.32l6.09,7.68V19.08h1.7V29.71H204Z"/><path class="cls-2" d="M215.08,28.22v1.49h-7.3V19.06h7.17v1.49h-5.49v3h4.75V25h-4.75v3.25Z"/><path class="cls-2" d="M225.77,29.71V22l-3.17,5.8h-.93L218.5,22v7.67h-1.68V19.06h1.8l3.53,6.51,3.53-6.51h1.8V29.71Z"/></g></g></svg>