<svg xmlns="http://www.w3.org/2000/svg" viewBox="0 0 320 51"><defs><style>.cls-1{fill:#e6e6e6;}.cls-2{font-size:15px;font-family:Raleway-SemiBold, Raleway;font-weight:700;}.cls-2,.cls-3{fill:#567485;}</style></defs><title>Inicio</title><g id="Camada_2" data-name="Camada 2"><g id="Camada_1-2" data-name="Camada 1"><rect class="cls-1" width="320" height="51"/><text class="cls-2" transform="translate(157.54 30.67)">INÍCIO</text><path class="cls-3" d="M143.81,23.52l-12.55-11a.92.92,0,0,0-1.22,0l-12.55,11a.92.92,0,1,0,1.22,1.39l1-.85V37.78a.92.92,0,0,0,.92.92H140.7a.92.92,0,0,0,.92-.92V24.06l1,.85a.92.92,0,0,0,1.22-1.39ZM128.52,36.86v-7.6h4.26v7.6Zm11.25-14.41V36.86h-5.15V28.34a.92.92,0,0,0-.92-.92H127.6a.92.92,0,0,0-.92.92v8.52h-5.15V22.45h0l9.12-8,9.12,8Z"/><path class="cls-3" d="M128.58,20.94a.92.92,0,0,0,.92.92h2.29a.92.92,0,0,0,0-1.85h-2.29A.92.92,0,0,0,128.58,20.94Z"/></g></g></svg>