<svg xmlns="http://www.w3.org/2000/svg" viewBox="0 0 320 51"><defs><style>.cls-1{fill:#e6e6e6;}.cls-2{fill:#567485;}</style></defs><title>iniciovector</title><g id="Camada_2" data-name="Camada 2"><g id="Camada_1-2" data-name="Camada 1"><rect class="cls-1" width="320" height="51"/><path class="cls-2" d="M158.74,30.67V20h1.68V30.67Z"/><path class="cls-2" d="M164.5,23.17v7.5h-1.68V20h1.32l6.09,7.68V20h1.7V30.67h-1.4Z"/><path class="cls-2" d="M174.32,30.67V20H176V30.67Zm1.21-11.76-1.08-.33.85-1.65h1.58Z"/><path class="cls-2" d="M177.73,25.27a5.57,5.57,0,0,1,.34-1.91,5.28,5.28,0,0,1,1-1.71,5.1,5.1,0,0,1,1.63-1.22,4.92,4.92,0,0,1,2.18-.46,4.61,4.61,0,0,1,2.49.64,4.19,4.19,0,0,1,1.56,1.68l-1.32.88a3,3,0,0,0-.54-.81,2.59,2.59,0,0,0-.69-.53,2.93,2.93,0,0,0-.78-.28,3.94,3.94,0,0,0-.78-.08,3.07,3.07,0,0,0-1.47.34,3.27,3.27,0,0,0-1.06.89,4,4,0,0,0-.64,1.25,4.55,4.55,0,0,0-.22,1.38,4.33,4.33,0,0,0,.25,1.48,4,4,0,0,0,.71,1.25,3.54,3.54,0,0,0,1.09.86,3,3,0,0,0,1.38.32,3.52,3.52,0,0,0,.8-.1,3,3,0,0,0,.79-.32,3.15,3.15,0,0,0,.71-.55,2.71,2.71,0,0,0,.53-.79l1.4.79a3.28,3.28,0,0,1-.72,1.06,4.57,4.57,0,0,1-1.05.77,5.3,5.3,0,0,1-1.24.48,5.24,5.24,0,0,1-1.28.16,4.43,4.43,0,0,1-2.05-.48A5.4,5.4,0,0,1,179.15,29a5.75,5.75,0,0,1-1-1.75A5.58,5.58,0,0,1,177.73,25.27Z"/><path class="cls-2" d="M188.66,30.67V20h1.68V30.67Z"/><path class="cls-2" d="M197.17,30.74a4.65,4.65,0,0,1-2.08-.46,5.15,5.15,0,0,1-1.61-1.21,5.47,5.47,0,0,1-1-1.73,5.6,5.6,0,0,1-.37-2,5.45,5.45,0,0,1,.39-2,5.67,5.67,0,0,1,1.07-1.72,5.12,5.12,0,0,1,1.62-1.19,4.74,4.74,0,0,1,2-.44,4.56,4.56,0,0,1,2.08.47,5.2,5.2,0,0,1,1.61,1.24,5.67,5.67,0,0,1,1,1.73,5.55,5.55,0,0,1,0,4,5.37,5.37,0,0,1-1.07,1.72,5.26,5.26,0,0,1-1.63,1.19A4.71,4.71,0,0,1,197.17,30.74Zm-3.39-5.4A4.48,4.48,0,0,0,194,26.8,3.9,3.9,0,0,0,194.7,28a3.31,3.31,0,0,0,1.07.86,3,3,0,0,0,1.41.32,3,3,0,0,0,1.43-.34,3.35,3.35,0,0,0,1.06-.89,4,4,0,0,0,.66-1.24,4.51,4.51,0,0,0,.23-1.41,4.46,4.46,0,0,0-.24-1.46,3.89,3.89,0,0,0-.68-1.23,3.42,3.42,0,0,0-1.07-.85,3,3,0,0,0-1.39-.32,3,3,0,0,0-1.44.34,3.44,3.44,0,0,0-1.07.88,4,4,0,0,0-.67,1.24A4.45,4.45,0,0,0,193.78,25.34Z"/><path class="cls-2" d="M143.81,23.52l-12.55-11a.92.92,0,0,0-1.22,0l-12.55,11a.92.92,0,1,0,1.22,1.39l1-.85V37.78a.92.92,0,0,0,.92.92H140.7a.92.92,0,0,0,.92-.92V24.06l1,.85a.92.92,0,0,0,1.22-1.39ZM128.52,36.86v-7.6h4.26v7.6Zm11.25-14.41V36.86h-5.15V28.34a.92.92,0,0,0-.92-.92H127.6a.92.92,0,0,0-.92.92v8.52h-5.15V22.45h0l9.12-8,9.12,8Z"/><path class="cls-2" d="M128.58,20.94a.92.92,0,0,0,.92.92h2.29a.92.92,0,0,0,0-1.85h-2.29A.92.92,0,0,0,128.58,20.94Z"/></g></g></svg>