<svg xmlns="http://www.w3.org/2000/svg" viewBox="0 0 38 38"><defs><style>.cls-1{fill:#fff;}.cls-2{fill:#ccc;}.cls-3{fill:none;stroke:#f2f2f2;stroke-miterlimit:10;stroke-width:2px;}</style></defs><title>Ativo 8</title><g id="Camada_2" data-name="Camada 2"><g id="Camada_1-2" data-name="Camada 1"><circle class="cls-1" cx="19" cy="19" r="17"/><path class="cls-2" d="M27,25.57a3.63,3.63,0,0,1-.78,2.35,2.35,2.35,0,0,1-1.89,1H13.64a2.35,2.35,0,0,1-1.89-1A3.63,3.63,0,0,1,11,25.57a18.07,18.07,0,0,1,.11-2,10.79,10.79,0,0,1,.4-1.91A6.34,6.34,0,0,1,12.21,20a3.52,3.52,0,0,1,1.18-1.12,3.26,3.26,0,0,1,1.69-.43,5.6,5.6,0,0,0,7.85,0,3.26,3.26,0,0,1,1.69.43A3.52,3.52,0,0,1,25.79,20a6.36,6.36,0,0,1,.73,1.64,10.83,10.83,0,0,1,.4,1.91A18.07,18.07,0,0,1,27,25.57ZM22.41,11a4.82,4.82,0,0,1,0,6.81,4.82,4.82,0,0,1-6.81,0,4.64,4.64,0,0,1-1.41-3.41A4.82,4.82,0,0,1,19,9.62,4.64,4.64,0,0,1,22.41,11Z"/><circle class="cls-3" cx="19" cy="19" r="18"/></g></g></svg>