<svg xmlns="http://www.w3.org/2000/svg" viewBox="0 0 23.26 28.43"><defs><style>.cls-1{fill:#223647;}</style></defs><title>lock</title><g id="Camada_2" data-name="Camada 2"><g id="Camada_1-2" data-name="Camada 1"><path class="cls-1" d="M22.69,13.49a1.87,1.87,0,0,0-1.37-.57h-.65V9A8.7,8.7,0,0,0,18,2.67,8.7,8.7,0,0,0,11.63,0,8.7,8.7,0,0,0,5.25,2.67,8.7,8.7,0,0,0,2.58,9v3.88H1.94a1.87,1.87,0,0,0-1.37.57A1.87,1.87,0,0,0,0,14.86V26.49a1.87,1.87,0,0,0,.57,1.37,1.87,1.87,0,0,0,1.37.57H21.32a1.93,1.93,0,0,0,1.94-1.94V14.86A1.87,1.87,0,0,0,22.69,13.49Zm-5.89-.57H6.46V9A5,5,0,0,1,8,5.39a5,5,0,0,1,3.65-1.51,5,5,0,0,1,3.65,1.51A5,5,0,0,1,16.8,9Z"/></g></g></svg>