<svg xmlns="http://www.w3.org/2000/svg" xmlns:xlink="http://www.w3.org/1999/xlink" viewBox="0 0 228.09 180.09"><defs><style>.cls-1,.cls-2,.cls-4{fill:#d3dadf;}.cls-1{clip-rule:evenodd;}.cls-2{fill-rule:evenodd;}.cls-3{clip-path:url(#clip-path);}.cls-5{clip-path:url(#clip-path-2);}.cls-6{clip-path:url(#clip-path-3);}.cls-7{clip-path:url(#clip-path-4);}.cls-8{clip-path:url(#clip-path-5);}.cls-9{fill:#333;}</style><clipPath id="clip-path"><path class="cls-1" d="M175.46,153.68l-1.13-.38c0,.21,0,.43,0,.64Z"/></clipPath><clipPath id="clip-path-2"><path class="cls-1" d="M221.61,110.79c0-.13,0-.28,0-.41l-1.09-.08a2.77,2.77,0,0,1,0,.36Z"/></clipPath><clipPath id="clip-path-3"><path class="cls-1" d="M222.34,112.07l-.74-.54c-.05.2-.11.4-.17.59l.27.45C221.92,112.4,222.13,112.23,222.34,112.07Z"/></clipPath><clipPath id="clip-path-4"><path class="cls-1" d="M226.88,140.36l-.95-.14-1.76-.37h0l-2.2-1.17-.55-.21c-.46-.37-.93-.75-1.41-1.12a4.11,4.11,0,0,0-.53-.32l-1.46-.92-.3-.07a2.84,2.84,0,0,0-3.06-.53l-2.7-.35-1.75-.15a5.28,5.28,0,0,0-1.47-.52c-1.44,0-2.86.13-4.28.2l-2.8.2-2.67-.49-1.33-.35-.93-.12a.58.58,0,0,0-.18.16.3.3,0,0,0-.25,0c-.81,0-1.6,0-2.42.05-.06.06-.11.11-.09.18a.52.52,0,0,0-.31,0l-2.8-.13-.93-.51a4.28,4.28,0,0,0,.24-.37l-1.84-.11-3.76-.21-2.65-.56a5.27,5.27,0,0,1,1.19-.54c1.21-.24,1.51-.8,1-1.69l4,.72,1.63-1.12c0-.11,0-.22,0-.33l-1.87.64c-.6-.54-.83-1,0-1.46l1.42-.19,1.41-.29.39-.09h1.66l1.33.56c.13-.14.3-.28.43-.41.35-.13.71-.24,1.07-.35,0-.07,0-.12.05-.19a.71.71,0,0,1,.24,0l.15-.19c1.15-.27,1.29-.54.52-1.09-1.09-.54-.18-.55.23-.69a7.88,7.88,0,0,0,2.65-.21c1.74-1,1.66-1,2.69.28a14.82,14.82,0,0,0,1.95-.28,15.41,15.41,0,0,0,1.87-.79c.08-.7-1.45-1.88-2.68-2,0-.67.08-1.35.12-2a8.36,8.36,0,0,0,1.75,0,17.76,17.76,0,0,0,2.41-.79c.91-.34,1.78-.73,2.65-1.09l3.5.21,1.41-.22c.36-.09.72-.19,1.11-.27l1.13-.49,1.26-1.29a.29.29,0,0,0,.12-.19l.54-.2a.15.15,0,0,1,.06-.21l.74-1.08a.65.65,0,0,0,.22,0,2.11,2.11,0,0,0,0-.23c-.09-.2-.2-.41-.28-.61h0c-.13-1-.24-2-.37-3-.31-.79-.63-1.6-.95-2.38l-.28-.11-.28-.31c-.06-.34-.11-.7-.17-1.22l1,.65c0,.15-.05.31-.08.45l1.56.31c0-.1,0-.2.06-.31l-.82-.35c.05-.26.11-.52.19-1l-.6-.56.76-.71-.36-.24-.75.56,0,.06-3.29-.87a1,1,0,0,0-.31-.11.43.43,0,0,0,0-.2l-1.21-.5h0a6.17,6.17,0,0,0-2.16-3c0-.14,0-.28,0-.42-2.35-1.21-4.29-.61-6.18.22-.78,0-1.57.1-2.38.08a13.32,13.32,0,0,1-2.27-.27c-.95-.2-1.85-.53-2.78-.79-.38-.26-.78-.52-1.15-.79-.05-.4-.1-.8-.15-1.2l.4-.16,2-.11c1.89.09,3.78.21,5.63.24a8.61,8.61,0,0,0,1.67-.28,6.5,6.5,0,0,1,2.07.17,3.23,3.23,0,0,0,3.09.09c0-.09,0-.19,0-.27s.09-.29.14-.44c.64.15,1.74,0,1.23.93.55-.45,1.07-.93,1.64-1.39,0-.24,0-.49.06-.74a.39.39,0,0,0,.09-.17l.88-1.12,0,0c.34-.23.65-.47,1-.75l-.82-.56.74-.47-3.19-1-3.78-2h0c0-.41-.11-.83-.17-1.24l-.29-.55-.57-.18-1-.17-6.46-1.3a.3.3,0,0,0-.27,0l-1.82-.14-.55-.07-1.34-.25-.33-.07-2.12-.22L193.17,86l-.54-.08-6.84-.62-2-.39-4.87-.7-3.37.08-4.76-.16L167,84.06l-1.33.09-2.31-.67.41-.22c.33-.42.68-.84,1-1.26l1.5-.71.15,0,.15,0,.65.17c1.28.41,2.55.92,3.57,0L173,80.6c2.11.09,4.2.2,6.29.24a8,8,0,0,0,1.73-.39l.37-.31c.59-.17,1.17-.34,1.76-.5l2.09.42,2.44-.31c1.2-.19,2.6-.26,1.65-1.8l1.76,0c1.2.9,1.59.07,2.19-.36l3.16-1c-.11-.18-.29-.43-.45-.68l-.85-.93,1-1c1.35-.38,1.35-.4.45-1a3.87,3.87,0,0,1-.5-1,2.62,2.62,0,0,1,.24-1c.33-.61.67-1.22,1-1.83l.77-.63,1.28-2.42L199,66h0l.43.14,1.56-1.21.93-1.08a4,4,0,0,0,.24-.48c.15-.54.3-1.08.43-1.63v0c-.16-.4-.31-.81-.49-1.27-.14,0-.34-.12-.56-.17-1.57-.39-3.32-.41-4.39-1.72-.15-.17-.76-.16-1.15-.22l-2.87-1a8,8,0,0,1-1.24-.86,2.76,2.76,0,0,1-.45-1l2.07-.09.72-.11,1.73-.18.77-.31-1.32-.31-.4.19-1.15-.28a2.32,2.32,0,0,1,0-.28l1.26-.18c-.1-.73-.64-1-1.51-.78l-1-.16-.74.12-.95-.3a.2.2,0,0,0,0-.17c-.31-.13-.63-.25-.93-.39a2.08,2.08,0,0,0-.3-.14L188,51.58a1.08,1.08,0,0,1,0-.16l-.82-.66.59,0,2,0-1.28-.25-3.68-.7-.55-.18-6.16-.69-2.84-.56.48-1.12.36-.13,4-1.27L182,44.36l1.49-.36a6.13,6.13,0,0,1,.24-.71c-.06-.92-.11-1.84-.16-2.76a.73.73,0,0,0,.13-.19c.22-.13.44-.27.64-.41.18-.7.34-1.4.5-2.1l1.36-.31.59-1.1a.76.76,0,0,0,.09-.19l.47-.7c.3-.76.63-1.54.91-2.31,0-.06-.32-.2-.5-.31l-1.09-.82c0-.3,0-.59,0-.89l-.52-.41-1.27-.74c0-.15.07-.32.13-.47l-2.16-1c-.39-.27-.77-.51-1.14-.78-.81-.56-1.32-.4-1.67.21-.21-.11-.5-.37-.65-.33a5.26,5.26,0,0,1-4.17-1.27c-.18-.15-.62-.15-.94-.22l-.12.18-.51-.11-1-.63-1.32-.29-.76.06-1.43,0-3.33-.16-2.11.07-3-.29a.16.16,0,0,1-.22,0,1.55,1.55,0,0,1-.18.16l-4.11-.05-6.47-.8L143,23.53l-.33-.07-1.12,0-1.27-.26-1,.07c-.67-.09-1.32-.17-2-.24l-1.37-.18-4.21-.09-1.35,0H127.6l-1.81,0L123,23.1l-7.72.44-.71.12h-2.46l-2.91.17c-4.4.13-9-.26-12.87,1.3l-.76,0-1.34-.06-1.19-1.41a.21.21,0,0,1-.24,0c-.12.85-.78.61-1.74.38l1.06-.43-2.79-.23-1.18.28a.16.16,0,0,0-.2,0l-1.74-.1-5.78.12-.52.14a1,1,0,0,0-.24-.08c0-.06,0-.13,0-.17L79,23.46l-6,.2-2.14.08-2.12.54-1,.16-.83.55-.71.13-1.47.44-1.46.66-1.87-.09a3,3,0,0,1-.3.21l-1.84.35H58l-1.12.55L54.93,28a1,1,0,0,1,0-.11l-.37.19c-.16.19-.46.37-.45.58,0,.64-1.45.74-.7,1.58L52,30.76h0l-2.63.69-.54-.05a3.53,3.53,0,0,0-.14.4l-1.31-.16-.31.09a.16.16,0,0,0,0-.19c-.19-.23-.39-.46-.58-.68l-.72.17-1.4.22-2.09.39c-.3.16-.58.31-.88.46l-4.55.69a.28.28,0,0,0-.07.21L34,33.67l-1.4.24-.59,0-1.15.47-.4.19c-.55.21-1.08.41-1.6.62-.18.48-.38.95-.56,1.43l.21.31c0,.17,0,.33,0,.49s-.05.46-.09.69q.08,2,.13,4l0,.05c-.16.37-.35.74-.5,1.11-.14.56-.27,1.12-.4,1.67s-.19,1.12-.28,1.7l-1.6.63c-.57.62-1.16,1.23-1.68,1.87-.12.14.09.44.13.67.13,1.11.26,2.21.39,3.32-.29.5-.56,1-.85,1.5.07.17.12.48.19.49,1.21.15,2.45.25,3.66.36.21.12.43.24.63.36,0,.55,0,1.1,0,1.65l-1.71.21-1.82.09-2.39,0-1.35,0-3.67.76c-.34.11-.72.2-1.07.3l-.41.42-2.15.57-1.46.22c-.8-.09-1.93-.53-1.59.68H9.43c0-.29,0-.59,0-1.06l-2,.38-1.47.49c-.15.21-.3.44-.46.65l-.75.36c-.2.62-.43,1.23-.64,1.85l-2.62.47c-.74.31-1.47.62.06,1.07l.74.42,1.34-.06c0-.06.06-.13.09-.19s-.05.12-.09.19l-1.34.06c.4.28.81.56,1.3.88l-1.91.43-1.23.48a1.58,1.58,0,0,0,.2.63c.37.42.83.8,1.25,1.2s1,.85,1.49,1.27c.16.14.35.27.52.41l.78.35c.15.36.27.71.39,1.07l.82-.57h0l-.82.57c.09.11.17.22.24.32.19.36.36.71.54,1.06l.54.41c.09.17.19.35.29.53s.08.11,0,.17A1.78,1.78,0,0,0,7,74.8c-.22.53-.44,1.07-.65,1.6.06.06.08.13,0,.19.27.4.51.8.75,1.2.14.21.27.43.44.63s.06.31.07.47c.49.43.95.85,1.43,1.28l3.91,1.28a.32.32,0,0,1,.3,0c0-.05.06-.09.08-.15,1.19-.06,2.39-.12,3.55-.2l8.45-.63.12.05.11,0h1.75l1.37,0c1.52.15,3,.29,4.56.49a8.22,8.22,0,0,1,1.52.46l1.85,1.42a1.55,1.55,0,0,0-.13.19l-2.22.54-1.92.87-2.17.59-.79.33-1.37.2-2.22.58-4.28,1L19,87.34l-1.37,0L15,87.82l-.66.38c-2.35.44-3,1.71-1.69,3.19.54.71,1.09,1.43,1.62,2.15l.93.66,2.73.4,1.44-.07h0l2.05,1.4L25,97.24l1.27.36.94.4c.28.47.54.92.82,1.38l2.76.12h.33l1.65.35,3.43.16,2.44-.28.42-.19,4.2-.39,1.46-.2c.79.57,1.2,1.19.73,1.9-.65.34-1.32.65-1.93,1-.15.09-.13.35-.17.53s.2.23.3.35c-.06.56-.11,1.12-.17,1.67l-1.14-.4-1.17.44c-.17.23-.33.45-.48.68l-1.41.25-1.75-.16c-.4.44-.82.87-1.23,1.31l-.69.11-1.8.14a1.44,1.44,0,0,0-.34-.07l-.84.83,1-.06c0-.13.07-.26.11-.4l1,.14c.43.4.82.79-.18.91s-1.95.46-2.92.7l-2.28-.7c.25.41.48.82.75,1.24A6.18,6.18,0,0,0,34,112.77c.32.16.63.31.92.48l1.77,1.62.78,1.39c.07.19.13.38.2.58l2,1.88,2.35.65c.52.1,1.07.21,1.61.31a1,1,0,0,0,.2-.14l.12,0,.09,0,2.52,0,1.63,0,3.38.4,1.43.06,4.07,0,1.11-.27,1.57-.62.66-.14,2.54-.48h1.36c.15.27.29.53.43.8l-.3.2-.41.14-.39.12c-1.23.56-1.76,1.76-3.47,1.89l-1.25,1-.69.14-.43.37c-1.84.75-.27,2.11-.56,3.15l1.24.55,3,.28,1.79-.08,1,.44.63.38c.88,1,1.94.71,3,.52,1.11-.46,1.59-1.69,3.39-1.35l1.73.2,2.67.52h0l1.5-.48c.33,0,.66-.06,1-.08l4.54-.12,2.2-.26.14.06.14,0,.9.2c.05.42.09.83.15,1.25l-1.2.75-2.78.3-1.84.54-2.22.56-.75.07-.67.1c-.82.2-2.22,0-1.52,1.26-.46.23-.91.48-1.39.71-1.42.65-1.5,1.11-.37,2.28,0,.14,0,.26,0,.39s.1.46.14.7c-.31.46-.6.92-.93,1.38-1.79.45-1.8,1.58-1.63,2.79l0,.08c-.94,1.33-.72,2.13.82,3,.2.19.4.4.61.59l.8.89,1.07,1.48.36.31c.07.27.14.54.21.8a3.85,3.85,0,0,0-.13.44c-.22.48-.42,1-.66,1.43l.94,1.93c1.6,1.81,1.6,1.81,4.19,1.33a1.67,1.67,0,0,1,.47.1l.35.08v-.08h1.39l1.75-.09h.36l2.17-.25,4.08,0,1.45-.18,2.06-.11L97,151.7a3.87,3.87,0,0,1,3.47,1.21c-.06.05,0,.1,0,.16-.54.27-1.14.52-.22,1.09.07-.37.15-.72.23-1.08h0l.84,0-.84,0c-.08.36-.16.71-.23,1.08,0,.06,0,.11.06.17.1.54.2,1.08.3,1.63.26.45.49.89.74,1.33.33.64.67,1.29,1,1.94.06.19.13.36.18.55.17.39.35.78.51,1.17l.54.78.23.31c.34.65.7,1.3,1,2,0,.59,0,1.19,0,1.78l1.3.66.35.07c.61-.09,1.21-.21,1.82-.31h4.14l3.78,0,5.07-.38.65-.16a.7.7,0,0,0,.29,0l2.17-.26,1.72-.19,4-.66c.91-.17,1.85-.32,2.78-.48l2.21-.29,1.07-.28,1.73-.2.77-.06,2.77-.23.7-.11,1.77-.12,2.72-.14,3.14.07.13-.05.16,0,2.69-.65,1,0,5.22,0,1.46-.42,1.45-.21,1-.4c0-.31,0-.64,0-1,.15-.12.46-.32.75-.53.45-.58.92-1.15,1.36-1.74.08,0,.12-.05.1-.12,1.41-.57,2.81-1.16,4.19-1.75l1.07-.37.14.06h.16c.49.48,1,1,1.32,1.28l2.08-1.33.69-.08c.19-.21.35-.42.53-.63l-.32-.05-.73.12-.89-.47-.84-1.14,1.41-.24,2.8-.19.41-.16,1.06-.31.65.17.15,0,.12,0,.42-.16,1.32,1c1.53.46.83-.6,1.17-1l.62-.15.46-.15,2.07-.4,1.58-.9.81-.31.35-.22.82-.24,5.1.2,2.79-.2.63.09c.59,0,1.2.09,1.78.09s1.16-.06,1.74-.09l4.28-.66.72-.1,1.09-.29,3,.07c.09,0,.15-.09.16-.16l.71-.06.73-.12,1.34,0c2.9.35,5.8.66,8.36-.37l0,0c1.37-.29,1.53-.63.58-1.42q-.17-.8-.34-1.59a.65.65,0,0,0,0-.2c-.24-.89.41-1.29,1.4-1.51l2,.15c.08-.39.16-.77.24-1.17l-1.34-.28,1.27-1,.33,0,.63.35,1.36-.15.34.29h.33c.06-.15.09-.29.14-.44C227.69,141,227.28,140.69,226.88,140.36ZM45.15,116.23s0,0,0,0l0,0,1.08-.26ZM30.91,39.32l3.38.45-3.38-.45ZM57,28a.92.92,0,0,1,.39-.08c.11,0,.18.16.31.28-.19.06-.36.15-.44.11S57,28.1,57,28ZM206,88.35l1.28.29-1.34-.07-1.68-.08-1.16-.66,1.57.3Zm-14,60.26c-.21-.21-.42-.44-.63-.66l-1.59-.19,1.59.19h0C191.57,148.17,191.78,148.4,192,148.61ZM27.17,60c0,.08.11.19.31.36l1.7.1-1.69-.09C27.28,60.16,27.18,60,27.17,60Zm24,37.71a.9.9,0,0,0,.14-.18,8.87,8.87,0,0,1,1.3,0c.11,0,.2.37.3.58l-.4.19-.63-.08-1.12.23-1,.05C49.32,97.34,50.63,97.89,51.14,97.67ZM44,92.56h0c.19-.23.3-.57.58-.67C44.27,92,44.15,92.32,44,92.56Zm62.61-66.74a.66.66,0,0,1,.07-.2.74.74,0,0,0-.07.21,1.43,1.43,0,0,0-.33,0Zm78.9,100.92a.54.54,0,0,0-.11-.53l-1.38,0,1.39,0C185.54,126.46,185.54,126.62,185.48,126.73ZM133.26,159l0,0h0c.24-.09.49-.21.76-.33Zm55-63-.57-.6,3.06.36-3.06-.36Zm25.89,14.34-1-.45h0Zm-15.81,29,.31.33c-.12-.11-.21-.22-.31-.33ZM169.23,31.07c.26.53.37.76.47,1l-1.15.52,1.13-.52C169.6,31.83,169.49,31.6,169.23,31.07Zm-129,42c-.23,0-.45-.07-.69-.12l.69.12Zm49.2,45.13h0L90.72,117Zm-10.71-3.6h0c0-.25.07-.49.12-.73C78.77,114.14,78.72,114.38,78.69,114.63Zm29.46,27.77a8.7,8.7,0,0,0,1-.13l-.95.16a8.51,8.51,0,0,0-.85,0Zm-40-104c.31-.35.58-.7.89-1-.31.35-.58.7-.89,1Zm81.24,107a1.11,1.11,0,0,0-.11-.93A1.05,1.05,0,0,1,149.35,145.43Zm-23.65,4.4h0l-.84-.14.84.14c0-.08,0-.15,0-.23C125.73,149.68,125.72,149.75,125.71,149.84Zm17.22-7.44-1-.82.3,0-.3,0Zm-21.52-25.32h0l-1.83.61C120.19,117.48,120.8,117.27,121.41,117.08Zm3.51.2,1.34,1.25a3.61,3.61,0,0,0-1.22-.89l.06-.09-.21-.07C124.9,117.37,124.9,117.36,124.92,117.28ZM88.63,46.55a1,1,0,0,0-.47,0h0A1,1,0,0,1,88.63,46.55Zm.6.56a1,1,0,0,0-.49-.55A1,1,0,0,1,89.24,47.11Zm35-1.83h0l-1.43.21Zm-41,44.79.42-.42h0C83.46,89.79,83.32,89.93,83.18,90.07Zm-22-37.52h0l-1.67-.31Zm-1,1.55h0l.86-.82c.06-.25.09-.47.14-.72h0L63,51.94l-1.85.61c0,.24-.09.47-.14.72Zm62.39-5.91.64.14-.64-.14ZM67.92,58.7Zm-1.37-1.86,1,.2h0Zm23.13-4.9-.09.22L86.34,53l3.25-.88A1.3,1.3,0,0,0,89.68,51.94Zm1.07,14.21c1.39-.14,2.76-.3,4.15-.46l-.05,0C93.5,65.85,92.13,66,90.76,66.15Zm22.88,10.27h0c.16-.41.32-.81.49-1.21C114,75.62,113.8,76,113.64,76.42Zm-2.55-14.25-1.69.14h0ZM110,64.68l-1.7-.07h0Zm-.57-2.37c.26-.19.54-.37.81-.55-.28.17-.55.36-.81.55Zm-8.88,24h0c-.43.41-.87.82-1.28,1.25C99.67,87.08,100.11,86.67,100.53,86.26Zm8.57,3.94h0c-.14.18-.26.36-.38.55Zm6.62-33.62h0l-1.11.53,1.11-.53-1.94-.63ZM89.3,59.09,89,59l.31.07c.17.29.34.57.51.85C89.63,59.66,89.46,59.38,89.3,59.09Zm25,31.83h0l.22-.11Zm-1.21-14.43-.68-.64.7.65ZM96.57,64.28l-1.7-.1,1.71.09c0,.08,0,.16-.05.24Zm-8,10.89h0l-1-.21ZM85,77.44,84,77l.93.43-2-.15Zm33.48-25.81c.08.27.17.52.26.76-.08-.23-.16-.48-.26-.76h0l1.71.08Zm-6.71.7-1.16.42,1.16-.43,3.79-.08ZM81.39,58.75h0c-.08-.17-.15-.35-.23-.52C81.25,58.41,81.31,58.59,81.39,58.75Zm-2.57.51,1.48-.18-1.46.18-.67.13Zm2.74,18h0l-.91-.69ZM68.93,58.82h0l-1.1.29Zm20.52,31h0l-1.13.52C88.7,90.16,89.06,90,89.45,89.81Zm43-38.92h0l.74-.37Zm20.31,60.46,1.36-.32h0Zm-12.89,5.36,1.43-.22-1.43.22-.4.18Zm2-10.34h0l-2-.38ZM80.5,72.07l.57.61-.57-.61-.56-.6Zm43.15,12.78-.34-.09h0Zm-2.38-.23,2,.14h0Zm-41-36h0l.95.43ZM62.3,59h0l-.6-.39Zm0,3.71c-.17-.27-.33-.53-.48-.81.15.27.31.54.48.81l-2.11.34Zm45.7,40.46,1.42-.19h0ZM88.13,46.51a3.34,3.34,0,0,1-1.23.14C87.3,46.6,87.72,46.54,88.13,46.51Zm46.38,55.19c0,.23-.1.47-.14.7,0-.23.1-.47.15-.72l3.14-.12Zm14.09-45.16-.33,0,.33,0,.46-.38ZM75,68.47a1.6,1.6,0,0,0,.08-.2,1.35,1.35,0,0,0-.06.21l-5.08,1.25ZM104.45,105l2.89-.4,4.2-.41-4.2.41Zm8.43,6.41,1.81-.38-1.81.39-2.05-.14Zm21.83,29.51-1-.29,1.05.29h0Zm-2.49-50.38a12.75,12.75,0,0,1,2.89.06A12.75,12.75,0,0,0,132.22,90.51Zm-3.71,52.16-.44.41.44-.41,1,0Zm42.28-26.6-1-.18,1,.18ZM144,71.39l3.71.18L144,71.39l-2.13.32Zm13.77-5,.65.09a5.63,5.63,0,0,1,1.41-.53,5.32,5.32,0,0,0-1.39.53Zm-52,46.47h0a1.51,1.51,0,0,0-.67-.49A1.51,1.51,0,0,1,105.76,112.86Zm41.89,27.58-1.34-.26,1.34.26Zm9.28-43.83h0l.69.15ZM83.15,41.17h0l3,1.12ZM60.29,71.09c0,.08,0,.16,0,.23h0C60.26,71.24,60.27,71.17,60.29,71.09Zm36.07,39.79-1.61,1.18h0Zm32.81,37.86h0l-.72-.59.72.59s0,0,.06,0l-.06,0Zm.06.06h0l1.41.13Zm23-8.93h0l.31.32ZM184,117.19l.72-.11h0ZM68.26,43l3.95,1-3.95-1c0-.08,0-.16,0-.25A2.23,2.23,0,0,1,68.26,43ZM39.73,64.8l-.65.08.65-.08c-.07-.26-.13-.53-.19-.8C39.6,64.26,39.66,64.53,39.73,64.8ZM59.53,84.2h0a3,3,0,0,0,0-.31A3,3,0,0,1,59.53,84.2Zm.43,6h0l1.77-.14Zm30.23,20.44-.33-.07h0l.33.07,2.07-.12,1.51-.42-1.5.43Zm18.75,25.9-1.6-.57,1.61.57c-1.07-.07-2.06,0-2.57.74C106.89,136.52,107.88,136.49,108.93,136.56Zm10.69,9.09.6.35-.35.21.35-.21Zm6.09,4.2,1.71.08-1.71-.08Zm32.43-19,3.13,0Zm22.8-13.8-1.94-.64,2,.64-.09.47C180.89,117.41,180.92,117.25,180.94,117.09Zm-5.82-54.54.08-.48c0,.16-.05.32-.08.48l3.47-.06ZM68.63,41.06c.16.28.35.56.52.84-.17-.28-.35-.57-.54-.85l-.3-.08ZM44.55,43.38c.72-.32,1.4-.67,2.26-1.1h0C45.95,42.71,45.27,43.05,44.55,43.38ZM48.38,70c.13.1.23.2.33.29a3.89,3.89,0,0,0-.33-.29l-1.68-.11Zm10.7,14.39-.72.05Zm.47,0c.08.54.15,1.08.23,1.61-.08-.53-.15-1.07-.23-1.61Zm88.74,61.56h0s0,0,0,0,.15.35.21.36S148.38,146,148.29,145.9ZM159.57,41.27l1.16-.51h0ZM138.8,36.19h0l1.13-.52ZM32.22,67.78l.38-.17-.38.18-1.37,0ZM59.36,100.9c.11-.34.58-.44,1.07-.55C59.94,100.45,59.47,100.56,59.36,100.9Zm.09.7h0Zm39.48,12h0c-.4.24-.78.49-1.19.75Zm11.79,31.45c0,.06-.09.12-.07.12l.18-.06,1.6.07a15.93,15.93,0,0,0-1.78,0h0A.48.48,0,0,1,110.72,145.09ZM170.54,140l-1.36-.29,1.39.28ZM49.07,40.17l2.55-.48-2.55.48-3.88.5Zm-9,8.94c.13.14.27.28.42.41l-.42-.4Zm-1.2,13,.79-.34-.78.34h0Zm38.35,49.48,1.18,1-1.18-1-.71.09Zm20.87,4.6c.06-.24.11-.47.16-.71,0,.24-.1.47-.14.71-1.7.57-2.19,1.48-1.68,3.18C95.91,117.67,96.39,116.76,98.08,116.19Zm92.34,5.92c-.94.08-1.91,0-2.86,0-.95-1,.37-1,.94-1.32l.68.13.73-.08,1.12.59C190.84,121.68,190.69,122.09,190.42,122.11Zm-.1-3.42a.85.85,0,0,1,.74-.49A.83.83,0,0,0,190.32,118.69ZM180,102.07a.87.87,0,0,0,.51.1A.87.87,0,0,1,180,102.07ZM40.28,47.91l.76-.32-.76.33-.31,0ZM31.49,64.66l-1.27-.8,1.27.8Zm-6.88,3.11h0l.72-.1Zm-7.91-.3a2.66,2.66,0,0,1,1.37.13A2.66,2.66,0,0,0,16.7,67.47Zm15.18,2-2.19.56c.74-.19,1.48-.37,2.19-.56l1.71.08Zm4.71.91h0l-2.65.67Zm155.5,48.12h0l2,.17Zm.22-1.19a10.64,10.64,0,0,0-1.75-.08,11.42,11.42,0,0,1,1.76.08l.33.06Zm-2.83-26.17c.47.13,1,.47,1.45.59C190.46,91.64,189.95,91.31,189.48,91.18ZM107.42,31.46c0-.31-.21-.61-.41-.9C107.21,30.85,107.47,31.15,107.42,31.46Zm-.31.45,4.19-.14-4.19.15ZM34.61,62.78l-2.58,1h0Zm-16.38,4-.31,0,.31,0-.9-.67ZM50.63,86.62a1.64,1.64,0,0,0,.08-.17c0,.05,0,.11-.08.18l-2,.12Zm145.25,30.16h0c0,.08,0,.17,0,.25C195.85,117,195.87,116.87,195.88,116.78ZM153.11,82.91c.06.26.11.5.18.76-.07-.26-.12-.51-.2-.77.57,0,1.13.07,1.7.1Zm16.62-7.19-1-.2,1,.2c0,.08,0,.16,0,.24C169.7,75.87,169.72,75.79,169.73,75.72ZM33.31,55.26l-.76.37h0Zm12.93,55.46h0l-.41.42Zm0,0,.28.3-.28-.3Zm5.33,2.81-.41.16-.64-.11.64.11Zm39.36,32,2.38.21h0Zm64.54,4.24h0a3,3,0,0,1,1.33.18A3,3,0,0,0,155.48,149.72ZM190.8,144l-.75,0h0ZM155.72,88.92a.74.74,0,0,0-.06.22,1,1,0,0,1,.06-.23ZM133.57,27.44l-1.2.71c.41-.23.81-.47,1.2-.72.16-.06.27-.13.42-.19Zm-102.19,20,.3.31c-.09-.11-.2-.2-.3-.3l-.7.09Zm3.44,5.39c0-.23.1-.46.16-.7-.05.23-.11.47-.16.7l-.77.34Zm12.55,36.4-.91-.66.91.66-1.42.24ZM69.75,114.3l.47-.6-.47.6c-.15.15-.3.31-.46.46C69.45,114.61,69.6,114.45,69.75,114.3ZM114,161.56a1.63,1.63,0,0,0-1,0A1.63,1.63,0,0,1,114,161.56Zm1.07.41-.64-.26.64.26Zm9.92-.66a2.43,2.43,0,0,1-1.9-1.76A2.43,2.43,0,0,0,125,161.31Zm25.59-2.58,1.73.11-1.73-.1-.67-.13Zm40.28-14.17-.76-.46c.82,0,1.44.1,2,.15C191.82,144.62,191.38,144.65,190.87,144.56ZM180,128.67l-2-.18,2,.18Zm29.38-12h0l-2.06-.15,2.06.15-.58-.61ZM187.25,57.24h0a1.75,1.75,0,0,0,0-.25A1.75,1.75,0,0,1,187.25,57.24Zm-11-24.9h0c.9.2,2,.17,2.19,1.18C178.2,32.51,177.12,32.54,176.22,32.34Zm-52.07-6c.29.29.56.59.84.89-.28-.3-.55-.59-.85-.89,0-.09,0-.16,0-.25C124.17,26.15,124.15,26.22,124.15,26.31ZM98,30.61l0,0,0,0c-.05-.26-.12-.52-.17-.79C97.88,30.09,98,30.35,98,30.61ZM18.75,62.38c0-.16.07-.31.1-.47,0,.16-.07.31-.1.47h0l-1.41.2ZM41.44,79a2.91,2.91,0,0,1-1.53.24A3,3,0,0,0,41.44,79ZM29.85,89.77h0l.43.06Zm-.06,0h0l-.24.19Zm10.8,25.08c.92-.56,1.82-1.13,2.74-1.7-.92.56-1.82,1.14-2.74,1.7Zm176.09,24.51-1.61-.64s0-.08,0-.09,0,.09,0,.09Zm-39.44-7-.72.14-.8-.26a.39.39,0,0,0-.09-.21l1.66.09c0-.35,0-.7,0-1.19l1.18.46c.12.17.23.35.34.52-.06.24-.15.45-.22.68Zm3.92-46.12h0l.61.37Zm0,0h0l-1.85.63ZM180.85,37l.94-.07h0ZM65,27.61h0l1.85-.12ZM9.84,74.08a1.15,1.15,0,0,0-.24-.48A1.15,1.15,0,0,1,9.84,74.08Zm-.39-.53a.39.39,0,0,0-.17-.07A.39.39,0,0,1,9.45,73.55Zm-.43,0-.11,0ZM21.11,90.79l0-.23a1.52,1.52,0,0,0,0,.23l1.56.81Zm26.5,8.93,3.62-.55-3.62.55a1.16,1.16,0,0,0-.26,0A1.16,1.16,0,0,1,47.62,99.71ZM78.46,145.5h0a4.07,4.07,0,0,0,1.31.35A4.07,4.07,0,0,1,78.46,145.5Zm6.76.84h0l-.72.09Zm66.93,13.21h0l-.39.18ZM183.65,36.81l-1.79.12h0l-1.2-.71,1.21.72,1.78-.12.72-.09Zm-15.79-9.38a.93.93,0,0,0,.3.06,1.2,1.2,0,0,1-.3,0c0-.08,0-.16,0-.23A2.16,2.16,0,0,1,167.87,27.42ZM102.09,26h0l-.33-.37ZM37,108.39h0l-.64-.38Zm-3.18,2.13a.67.67,0,0,0-.06.23.77.77,0,0,1,.06-.23l1.07-.29Zm55.37,15.4,1,.21h0Zm72.35,32.49h0l.18.07Zm58.89-10.88a1,1,0,0,1-.5-.26A1,1,0,0,0,220.46,147.53Zm-.59-3.3c-.27.27-.54.54-.84.81.3-.27.57-.54.85-.82l.89-.81ZM201.72,135l.55.29c0,.08,0,.16-.05.23a1.47,1.47,0,0,0,0-.23ZM204,124h0c-.28.13-.52.2-.55.29C203.52,124.24,203.75,124.18,204,124Zm0,0h0c.1.25.22.43.17.49S204.15,124.29,204.05,124Zm15.36-10.63-.33-.27c0-.17-.13-.34-.17-.52,0,.17.13.35.17.52ZM136.67,24l2.75,0-2.75,0L135,24Zm-8.13-.88c0,.11,0,.21,0,.31,0-.1,0-.2,0-.31Zm-34.66,2.2a1.43,1.43,0,0,1,0,.25,1.65,1.65,0,0,0,0-.25Zm-15.72-.59h0l-.76-.46Zm-9-.05L72,24.24l-2.84.45a2.78,2.78,0,0,1-.77.35A2.78,2.78,0,0,0,69.12,24.69ZM31.21,38.63c-.09-.17-.41-.29-1-.35C30.8,38.34,31.12,38.46,31.21,38.63ZM3.76,64.44l.56-.66,1-.05,1.22.47-2.18.91-.31-.16C4,64.77,3.86,64.61,3.76,64.44Zm32.77,16.7-1.43.19,1.43-.19,1.06-.31ZM29.64,86c0-.07.06-.14.09-.21a1.39,1.39,0,0,0-.07.22c-.35.09-.73.19-1.08.29Zm67.3,64.2a5,5,0,0,0,.22.51l-.42.43c.15-.14.28-.29.41-.43C97.08,150.51,97,150.34,96.93,150.17Zm15,15.41-3.54.3,3.54-.3,2.45-.27ZM170.39,155l.44-.67c0,.15,0,.32,0,.47A4,4,0,0,1,170.39,155Zm2.45,0-1.06,0c.15-.2.31-.42.46-.62C172.44,154.48,172.65,154.69,172.84,154.91ZM223,142.36h0l.12.27C223.05,142.54,223,142.44,223,142.36Z"/></clipPath><clipPath id="clip-path-5"><path class="cls-1" d="M193.83,128.87l-1.45.17.37.4C193.3,129.43,194.19,129.74,193.83,128.87Z"/></clipPath></defs><title>logo</title><g id="Camada_2" data-name="Camada 2"><g id="Camada_1-2" data-name="Camada 1"><path class="cls-2" d="M175.46,153.68l-1.13-.38c0,.21,0,.43,0,.64Z"/><g class="cls-3"><path class="cls-4" d="M174.33,153.3v0Z"/><rect class="cls-4" x="174.33" y="153.3" width="1.13" height="0.64"/><path class="cls-4" d="M175.46,153.95v0Z"/></g><path class="cls-2" d="M221.61,110.79c0-.13,0-.28,0-.41l-1.09-.08a2.77,2.77,0,0,1,0,.36Z"/><g class="cls-5"><path class="cls-4" d="M220.51,110.3v0Z"/><rect class="cls-4" x="220.51" y="110.3" width="1.1" height="0.49"/><path class="cls-4" d="M221.62,110.79v0Z"/></g><path class="cls-2" d="M222.34,112.07l-.74-.54c-.05.2-.11.4-.17.59l.27.45C221.92,112.4,222.13,112.23,222.34,112.07Z"/><g class="cls-6"><path class="cls-4" d="M221.43,111.53v0Z"/><rect class="cls-4" x="221.43" y="111.53" width="0.91" height="1.04"/><path class="cls-4" d="M222.34,112.57v0Z"/></g><path class="cls-2" d="M226.88,140.36l-.95-.14-1.76-.37h0l-2.2-1.17-.55-.21c-.46-.37-.93-.75-1.41-1.12a4.11,4.11,0,0,0-.53-.32l-1.46-.92-.3-.07a2.84,2.84,0,0,0-3.06-.53l-2.7-.35-1.75-.15a5.28,5.28,0,0,0-1.47-.52c-1.44,0-2.86.13-4.28.2l-2.8.2-2.67-.49-1.33-.35-.93-.12a.58.58,0,0,0-.18.16.3.3,0,0,0-.25,0c-.81,0-1.6,0-2.42.05-.06.06-.11.11-.09.18a.52.52,0,0,0-.31,0l-2.8-.13-.93-.51a4.28,4.28,0,0,0,.24-.37l-1.84-.11-3.76-.21-2.65-.56a5.27,5.27,0,0,1,1.19-.54c1.21-.24,1.51-.8,1-1.69l4,.72,1.63-1.12c0-.11,0-.22,0-.33l-1.87.64c-.6-.54-.83-1,0-1.46l1.42-.19,1.41-.29.39-.09h1.66l1.33.56c.13-.14.3-.28.43-.41.35-.13.71-.24,1.07-.35,0-.07,0-.12.05-.19a.71.71,0,0,1,.24,0l.15-.19c1.15-.27,1.29-.54.52-1.09-1.09-.54-.18-.55.23-.69a7.88,7.88,0,0,0,2.65-.21c1.74-1,1.66-1,2.69.28a14.82,14.82,0,0,0,1.95-.28,15.41,15.41,0,0,0,1.87-.79c.08-.7-1.45-1.88-2.68-2,0-.67.08-1.35.12-2a8.36,8.36,0,0,0,1.75,0,17.76,17.76,0,0,0,2.41-.79c.91-.34,1.78-.73,2.65-1.09l3.5.21,1.41-.22c.36-.09.72-.19,1.11-.27l1.13-.49,1.26-1.29a.29.29,0,0,0,.12-.19l.54-.2a.15.15,0,0,1,.06-.21l.74-1.08a.65.65,0,0,0,.22,0,2.11,2.11,0,0,0,0-.23c-.09-.2-.2-.41-.28-.61h0c-.13-1-.24-2-.37-3-.31-.79-.63-1.6-.95-2.38l-.28-.11-.28-.31c-.06-.34-.11-.7-.17-1.22l1,.65c0,.15-.05.31-.08.45l1.56.31c0-.1,0-.2.06-.31l-.82-.35c.05-.26.11-.52.19-1l-.6-.56.76-.71-.36-.24-.75.56,0,.06-3.29-.87a1,1,0,0,0-.31-.11.43.43,0,0,0,0-.2l-1.21-.5h0a6.17,6.17,0,0,0-2.16-3c0-.14,0-.28,0-.42-2.35-1.21-4.29-.61-6.18.22-.78,0-1.57.1-2.38.08a13.32,13.32,0,0,1-2.27-.27c-.95-.2-1.85-.53-2.78-.79-.38-.26-.78-.52-1.15-.79-.05-.4-.1-.8-.15-1.2l.4-.16,2-.11c1.89.09,3.78.21,5.63.24a8.61,8.61,0,0,0,1.67-.28,6.5,6.5,0,0,1,2.07.17,3.23,3.23,0,0,0,3.09.09c0-.09,0-.19,0-.27s.09-.29.14-.44c.64.15,1.74,0,1.23.93.55-.45,1.07-.93,1.64-1.39,0-.24,0-.49.06-.74a.39.39,0,0,0,.09-.17l.88-1.12,0,0c.34-.23.65-.47,1-.75l-.82-.56.74-.47-3.19-1-3.78-2h0c0-.41-.11-.83-.17-1.24l-.29-.55-.57-.18-1-.17-6.46-1.3a.3.3,0,0,0-.27,0l-1.82-.14-.55-.07-1.34-.25-.33-.07-2.12-.22L193.17,86l-.54-.08-6.84-.62-2-.39-4.87-.7-3.37.08-4.76-.16L167,84.06l-1.33.09-2.31-.67.41-.22c.33-.42.68-.84,1-1.26l1.5-.71.15,0,.15,0,.65.17c1.28.41,2.55.92,3.57,0L173,80.6c2.11.09,4.2.2,6.29.24a8,8,0,0,0,1.73-.39l.37-.31c.59-.17,1.17-.34,1.76-.5l2.09.42,2.44-.31c1.2-.19,2.6-.26,1.65-1.8l1.76,0c1.2.9,1.59.07,2.19-.36l3.16-1c-.11-.18-.29-.43-.45-.68l-.85-.93,1-1c1.35-.38,1.35-.4.45-1a3.87,3.87,0,0,1-.5-1,2.62,2.62,0,0,1,.24-1c.33-.61.67-1.22,1-1.83l.77-.63,1.28-2.42L199,66h0l.43.14,1.56-1.21.93-1.08a4,4,0,0,0,.24-.48c.15-.54.3-1.08.43-1.63v0c-.16-.4-.31-.81-.49-1.27-.14,0-.34-.12-.56-.17-1.57-.39-3.32-.41-4.39-1.72-.15-.17-.76-.16-1.15-.22l-2.87-1a8,8,0,0,1-1.24-.86,2.76,2.76,0,0,1-.45-1l2.07-.09.72-.11,1.73-.18.77-.31-1.32-.31-.4.19-1.15-.28a2.32,2.32,0,0,1,0-.28l1.26-.18c-.1-.73-.64-1-1.51-.78l-1-.16-.74.12-.95-.3a.2.2,0,0,0,0-.17c-.31-.13-.63-.25-.93-.39a2.08,2.08,0,0,0-.3-.14L188,51.58a1.08,1.08,0,0,1,0-.16l-.82-.66.59,0,2,0-1.28-.25-3.68-.7-.55-.18-6.16-.69-2.84-.56.48-1.12.36-.13,4-1.27L182,44.36l1.49-.36a6.13,6.13,0,0,1,.24-.71c-.06-.92-.11-1.84-.16-2.76a.73.73,0,0,0,.13-.19c.22-.13.44-.27.64-.41.18-.7.34-1.4.5-2.1l1.36-.31.59-1.1a.76.76,0,0,0,.09-.19l.47-.7c.3-.76.63-1.54.91-2.31,0-.06-.32-.2-.5-.31l-1.09-.82c0-.3,0-.59,0-.89l-.52-.41-1.27-.74c0-.15.07-.32.13-.47l-2.16-1c-.39-.27-.77-.51-1.14-.78-.81-.56-1.32-.4-1.67.21-.21-.11-.5-.37-.65-.33a5.26,5.26,0,0,1-4.17-1.27c-.18-.15-.62-.15-.94-.22l-.12.18-.51-.11-1-.63-1.32-.29-.76.06-1.43,0-3.33-.16-2.11.07-3-.29a.16.16,0,0,1-.22,0,1.55,1.55,0,0,1-.18.16l-4.11-.05-6.47-.8L143,23.53l-.33-.07-1.12,0-1.27-.26-1,.07c-.67-.09-1.32-.17-2-.24l-1.37-.18-4.21-.09-1.35,0H127.6l-1.81,0L123,23.1l-7.72.44-.71.12h-2.46l-2.91.17c-4.4.13-9-.26-12.87,1.3l-.76,0-1.34-.06-1.19-1.41a.21.21,0,0,1-.24,0c-.12.85-.78.61-1.74.38l1.06-.43-2.79-.23-1.18.28a.16.16,0,0,0-.2,0l-1.74-.1-5.78.12-.52.14a1,1,0,0,0-.24-.08c0-.06,0-.13,0-.17L79,23.46l-6,.2-2.14.08-2.12.54-1,.16-.83.55-.71.13-1.47.44-1.46.66-1.87-.09a3,3,0,0,1-.3.21l-1.84.35H58l-1.12.55L54.93,28a1,1,0,0,1,0-.11l-.37.19c-.16.19-.46.37-.45.58,0,.64-1.45.74-.7,1.58L52,30.76h0l-2.63.69-.54-.05a3.53,3.53,0,0,0-.14.4l-1.31-.16-.31.09a.16.16,0,0,0,0-.19c-.19-.23-.39-.46-.58-.68l-.72.17-1.4.22-2.09.39c-.3.16-.58.31-.88.46l-4.55.69a.28.28,0,0,0-.07.21L34,33.67l-1.4.24-.59,0-1.15.47-.4.19c-.55.21-1.08.41-1.6.62-.18.48-.38.95-.56,1.43l.21.31c0,.17,0,.33,0,.49s-.05.46-.09.69q.08,2,.13,4l0,.05c-.16.37-.35.74-.5,1.11-.14.56-.27,1.12-.4,1.67s-.19,1.12-.28,1.7l-1.6.63c-.57.62-1.16,1.23-1.68,1.87-.12.14.09.44.13.67.13,1.11.26,2.21.39,3.32-.29.5-.56,1-.85,1.5.07.17.12.48.19.49,1.21.15,2.45.25,3.66.36.21.12.43.24.63.36,0,.55,0,1.1,0,1.65l-1.71.21-1.82.09-2.39,0-1.35,0-3.67.76c-.34.11-.72.2-1.07.3l-.41.42-2.15.57-1.46.22c-.8-.09-1.93-.53-1.59.68H9.43c0-.29,0-.59,0-1.06l-2,.38-1.47.49c-.15.21-.3.44-.46.65l-.75.36c-.2.62-.43,1.23-.64,1.85l-2.62.47c-.74.31-1.47.62.06,1.07l.74.42,1.34-.06c0-.06.06-.13.09-.19s-.05.12-.09.19l-1.34.06c.4.28.81.56,1.3.88l-1.91.43-1.23.48a1.58,1.58,0,0,0,.2.63c.37.42.83.8,1.25,1.2s1,.85,1.49,1.27c.16.14.35.27.52.41l.78.35c.15.36.27.71.39,1.07l.82-.57h0l-.82.57c.09.11.17.22.24.32.19.36.36.71.54,1.06l.54.41c.09.17.19.35.29.53s.08.11,0,.17A1.78,1.78,0,0,0,7,74.8c-.22.53-.44,1.07-.65,1.6.06.06.08.13,0,.19.27.4.51.8.75,1.2.14.21.27.43.44.63s.06.31.07.47c.49.43.95.85,1.43,1.28l3.91,1.28a.32.32,0,0,1,.3,0c0-.05.06-.09.08-.15,1.19-.06,2.39-.12,3.55-.2l8.45-.63.12.05.11,0h1.75l1.37,0c1.52.15,3,.29,4.56.49a8.22,8.22,0,0,1,1.52.46l1.85,1.42a1.55,1.55,0,0,0-.13.19l-2.22.54-1.92.87-2.17.59-.79.33-1.37.2-2.22.58-4.28,1L19,87.34l-1.37,0L15,87.82l-.66.38c-2.35.44-3,1.71-1.69,3.19.54.71,1.09,1.43,1.62,2.15l.93.66,2.73.4,1.44-.07h0l2.05,1.4L25,97.24l1.27.36.94.4c.28.47.54.92.82,1.38l2.76.12h.33l1.65.35,3.43.16,2.44-.28.42-.19,4.2-.39,1.46-.2c.79.57,1.2,1.19.73,1.9-.65.34-1.32.65-1.93,1-.15.09-.13.35-.17.53s.2.23.3.35c-.06.56-.11,1.12-.17,1.67l-1.14-.4-1.17.44c-.17.23-.33.45-.48.68l-1.41.25-1.75-.16c-.4.44-.82.87-1.23,1.31l-.69.11-1.8.14a1.44,1.44,0,0,0-.34-.07l-.84.83,1-.06c0-.13.07-.26.11-.4l1,.14c.43.4.82.79-.18.91s-1.95.46-2.92.7l-2.28-.7c.25.41.48.82.75,1.24A6.18,6.18,0,0,0,34,112.77c.32.16.63.31.92.48l1.77,1.62.78,1.39c.07.19.13.38.2.58l2,1.88,2.35.65c.52.1,1.07.21,1.61.31a1,1,0,0,0,.2-.14l.12,0,.09,0,2.52,0,1.63,0,3.38.4,1.43.06,4.07,0,1.11-.27,1.57-.62.66-.14,2.54-.48h1.36c.15.27.29.53.43.8l-.3.2-.41.14-.39.12c-1.23.56-1.76,1.76-3.47,1.89l-1.25,1-.69.14-.43.37c-1.84.75-.27,2.11-.56,3.15l1.24.55,3,.28,1.79-.08,1,.44.63.38c.88,1,1.94.71,3,.52,1.11-.46,1.59-1.69,3.39-1.35l1.73.2,2.67.52h0l1.5-.48c.33,0,.66-.06,1-.08l4.54-.12,2.2-.26.14.06.14,0,.9.2c.05.42.09.83.15,1.25l-1.2.75-2.78.3-1.84.54-2.22.56-.75.07-.67.1c-.82.2-2.22,0-1.52,1.26-.46.23-.91.48-1.39.71-1.42.65-1.5,1.11-.37,2.28,0,.14,0,.26,0,.39s.1.46.14.7c-.31.46-.6.92-.93,1.38-1.79.45-1.8,1.58-1.63,2.79l0,.08c-.94,1.33-.72,2.13.82,3,.2.19.4.4.61.59l.8.89,1.07,1.48.36.31c.07.27.14.54.21.8a3.85,3.85,0,0,0-.13.44c-.22.48-.42,1-.66,1.43l.94,1.93c1.6,1.81,1.6,1.81,4.19,1.33a1.67,1.67,0,0,1,.47.1l.35.08v-.08h1.39l1.75-.09h.36l2.17-.25,4.08,0,1.45-.18,2.06-.11L97,151.7a3.87,3.87,0,0,1,3.47,1.21c-.06.05,0,.1,0,.16-.54.27-1.14.52-.22,1.09.07-.37.15-.72.23-1.08h0l.84,0-.84,0c-.08.36-.16.71-.23,1.08,0,.06,0,.11.06.17.1.54.2,1.08.3,1.63.26.45.49.89.74,1.33.33.64.67,1.29,1,1.94.06.19.13.36.18.55.17.39.35.78.51,1.17l.54.78.23.31c.34.65.7,1.3,1,2,0,.59,0,1.19,0,1.78l1.3.66.35.07c.61-.09,1.21-.21,1.82-.31h4.14l3.78,0,5.07-.38.65-.16a.7.7,0,0,0,.29,0l2.17-.26,1.72-.19,4-.66c.91-.17,1.85-.32,2.78-.48l2.21-.29,1.07-.28,1.73-.2.77-.06,2.77-.23.7-.11,1.77-.12,2.72-.14,3.14.07.13-.05.16,0,2.69-.65,1,0,5.22,0,1.46-.42,1.45-.21,1-.4c0-.31,0-.64,0-1,.15-.12.46-.32.75-.53.45-.58.92-1.15,1.36-1.74.08,0,.12-.05.1-.12,1.41-.57,2.81-1.16,4.19-1.75l1.07-.37.14.06h.16c.49.48,1,1,1.32,1.28l2.08-1.33.69-.08c.19-.21.35-.42.53-.63l-.32-.05-.73.12-.89-.47-.84-1.14,1.41-.24,2.8-.19.41-.16,1.06-.31.65.17.15,0,.12,0,.42-.16,1.32,1c1.53.46.83-.6,1.17-1l.62-.15.46-.15,2.07-.4,1.58-.9.81-.31.35-.22.82-.24,5.1.2,2.79-.2.63.09c.59,0,1.2.09,1.78.09s1.16-.06,1.74-.09l4.28-.66.72-.1,1.09-.29,3,.07c.09,0,.15-.09.16-.16l.71-.06.73-.12,1.34,0c2.9.35,5.8.66,8.36-.37l0,0c1.37-.29,1.53-.63.58-1.42q-.17-.8-.34-1.59a.65.65,0,0,0,0-.2c-.24-.89.41-1.29,1.4-1.51l2,.15c.08-.39.16-.77.24-1.17l-1.34-.28,1.27-1,.33,0,.63.35,1.36-.15.34.29h.33c.06-.15.09-.29.14-.44C227.69,141,227.28,140.69,226.88,140.36ZM45.15,116.23s0,0,0,0l0,0,1.08-.26ZM30.91,39.32l3.38.45-3.38-.45ZM57,28a.92.92,0,0,1,.39-.08c.11,0,.18.16.31.28-.19.06-.36.15-.44.11S57,28.1,57,28ZM206,88.35l1.28.29-1.34-.07-1.68-.08-1.16-.66,1.57.3Zm-14,60.26c-.21-.21-.42-.44-.63-.66l-1.59-.19,1.59.19h0C191.57,148.17,191.78,148.4,192,148.61ZM27.17,60c0,.08.11.19.31.36l1.7.1-1.69-.09C27.28,60.16,27.18,60,27.17,60Zm24,37.71a.9.9,0,0,0,.14-.18,8.87,8.87,0,0,1,1.3,0c.11,0,.2.37.3.58l-.4.19-.63-.08-1.12.23-1,.05C49.32,97.34,50.63,97.89,51.14,97.67ZM44,92.56h0c.19-.23.3-.57.58-.67C44.27,92,44.15,92.32,44,92.56Zm62.61-66.74a.66.66,0,0,1,.07-.2.74.74,0,0,0-.07.21,1.43,1.43,0,0,0-.33,0Zm78.9,100.92a.54.54,0,0,0-.11-.53l-1.38,0,1.39,0C185.54,126.46,185.54,126.62,185.48,126.73ZM133.26,159l0,0h0c.24-.09.49-.21.76-.33Zm55-63-.57-.6,3.06.36-3.06-.36Zm25.89,14.34-1-.45h0Zm-15.81,29,.31.33c-.12-.11-.21-.22-.31-.33ZM169.23,31.07c.26.53.37.76.47,1l-1.15.52,1.13-.52C169.6,31.83,169.49,31.6,169.23,31.07Zm-129,42c-.23,0-.45-.07-.69-.12l.69.12Zm49.2,45.13h0L90.72,117Zm-10.71-3.6h0c0-.25.07-.49.12-.73C78.77,114.14,78.72,114.38,78.69,114.63Zm29.46,27.77a8.7,8.7,0,0,0,1-.13l-.95.16a8.51,8.51,0,0,0-.85,0Zm-40-104c.31-.35.58-.7.89-1-.31.35-.58.7-.89,1Zm81.24,107a1.11,1.11,0,0,0-.11-.93A1.05,1.05,0,0,1,149.35,145.43Zm-23.65,4.4h0l-.84-.14.84.14c0-.08,0-.15,0-.23C125.73,149.68,125.72,149.75,125.71,149.84Zm17.22-7.44-1-.82.3,0-.3,0Zm-21.52-25.32h0l-1.83.61C120.19,117.48,120.8,117.27,121.41,117.08Zm3.51.2,1.34,1.25a3.61,3.61,0,0,0-1.22-.89l.06-.09-.21-.07C124.9,117.37,124.9,117.36,124.92,117.28ZM88.63,46.55a1,1,0,0,0-.47,0h0A1,1,0,0,1,88.63,46.55Zm.6.56a1,1,0,0,0-.49-.55A1,1,0,0,1,89.24,47.11Zm35-1.83h0l-1.43.21Zm-41,44.79.42-.42h0C83.46,89.79,83.32,89.93,83.18,90.07Zm-22-37.52h0l-1.67-.31Zm-1,1.55h0l.86-.82c.06-.25.09-.47.14-.72h0L63,51.94l-1.85.61c0,.24-.09.47-.14.72Zm62.39-5.91.64.14-.64-.14ZM67.92,58.7Zm-1.37-1.86,1,.2h0Zm23.13-4.9-.09.22L86.34,53l3.25-.88A1.3,1.3,0,0,0,89.68,51.94Zm1.07,14.21c1.39-.14,2.76-.3,4.15-.46l-.05,0C93.5,65.85,92.13,66,90.76,66.15Zm22.88,10.27h0c.16-.41.32-.81.49-1.21C114,75.62,113.8,76,113.64,76.42Zm-2.55-14.25-1.69.14h0ZM110,64.68l-1.7-.07h0Zm-.57-2.37c.26-.19.54-.37.81-.55-.28.17-.55.36-.81.55Zm-8.88,24h0c-.43.41-.87.82-1.28,1.25C99.67,87.08,100.11,86.67,100.53,86.26Zm8.57,3.94h0c-.14.18-.26.36-.38.55Zm6.62-33.62h0l-1.11.53,1.11-.53-1.94-.63ZM89.3,59.09,89,59l.31.07c.17.29.34.57.51.85C89.63,59.66,89.46,59.38,89.3,59.09Zm25,31.83h0l.22-.11Zm-1.21-14.43-.68-.64.7.65ZM96.57,64.28l-1.7-.1,1.71.09c0,.08,0,.16-.05.24Zm-8,10.89h0l-1-.21ZM85,77.44,84,77l.93.43-2-.15Zm33.48-25.81c.08.27.17.52.26.76-.08-.23-.16-.48-.26-.76h0l1.71.08Zm-6.71.7-1.16.42,1.16-.43,3.79-.08ZM81.39,58.75h0c-.08-.17-.15-.35-.23-.52C81.25,58.41,81.31,58.59,81.39,58.75Zm-2.57.51,1.48-.18-1.46.18-.67.13Zm2.74,18h0l-.91-.69ZM68.93,58.82h0l-1.1.29Zm20.52,31h0l-1.13.52C88.7,90.16,89.06,90,89.45,89.81Zm43-38.92h0l.74-.37Zm20.31,60.46,1.36-.32h0Zm-12.89,5.36,1.43-.22-1.43.22-.4.18Zm2-10.34h0l-2-.38ZM80.5,72.07l.57.61-.57-.61-.56-.6Zm43.15,12.78-.34-.09h0Zm-2.38-.23,2,.14h0Zm-41-36h0l.95.43ZM62.3,59h0l-.6-.39Zm0,3.71c-.17-.27-.33-.53-.48-.81.15.27.31.54.48.81l-2.11.34Zm45.7,40.46,1.42-.19h0ZM88.13,46.51a3.34,3.34,0,0,1-1.23.14C87.3,46.6,87.72,46.54,88.13,46.51Zm46.38,55.19c0,.23-.1.47-.14.7,0-.23.1-.47.15-.72l3.14-.12Zm14.09-45.16-.33,0,.33,0,.46-.38ZM75,68.47a1.6,1.6,0,0,0,.08-.2,1.35,1.35,0,0,0-.06.21l-5.08,1.25ZM104.45,105l2.89-.4,4.2-.41-4.2.41Zm8.43,6.41,1.81-.38-1.81.39-2.05-.14Zm21.83,29.51-1-.29,1.05.29h0Zm-2.49-50.38a12.75,12.75,0,0,1,2.89.06A12.75,12.75,0,0,0,132.22,90.51Zm-3.71,52.16-.44.41.44-.41,1,0Zm42.28-26.6-1-.18,1,.18ZM144,71.39l3.71.18L144,71.39l-2.13.32Zm13.77-5,.65.09a5.63,5.63,0,0,1,1.41-.53,5.32,5.32,0,0,0-1.39.53Zm-52,46.47h0a1.51,1.51,0,0,0-.67-.49A1.51,1.51,0,0,1,105.76,112.86Zm41.89,27.58-1.34-.26,1.34.26Zm9.28-43.83h0l.69.15ZM83.15,41.17h0l3,1.12ZM60.29,71.09c0,.08,0,.16,0,.23h0C60.26,71.24,60.27,71.17,60.29,71.09Zm36.07,39.79-1.61,1.18h0Zm32.81,37.86h0l-.72-.59.72.59s0,0,.06,0l-.06,0Zm.06.06h0l1.41.13Zm23-8.93h0l.31.32ZM184,117.19l.72-.11h0ZM68.26,43l3.95,1-3.95-1c0-.08,0-.16,0-.25A2.23,2.23,0,0,1,68.26,43ZM39.73,64.8l-.65.08.65-.08c-.07-.26-.13-.53-.19-.8C39.6,64.26,39.66,64.53,39.73,64.8ZM59.53,84.2h0a3,3,0,0,0,0-.31A3,3,0,0,1,59.53,84.2Zm.43,6h0l1.77-.14Zm30.23,20.44-.33-.07h0l.33.07,2.07-.12,1.51-.42-1.5.43Zm18.75,25.9-1.6-.57,1.61.57c-1.07-.07-2.06,0-2.57.74C106.89,136.52,107.88,136.49,108.93,136.56Zm10.69,9.09.6.35-.35.21.35-.21Zm6.09,4.2,1.71.08-1.71-.08Zm32.43-19,3.13,0Zm22.8-13.8-1.94-.64,2,.64-.09.47C180.89,117.41,180.92,117.25,180.94,117.09Zm-5.82-54.54.08-.48c0,.16-.05.32-.08.48l3.47-.06ZM68.63,41.06c.16.28.35.56.52.84-.17-.28-.35-.57-.54-.85l-.3-.08ZM44.55,43.38c.72-.32,1.4-.67,2.26-1.1h0C45.95,42.71,45.27,43.05,44.55,43.38ZM48.38,70c.13.1.23.2.33.29a3.89,3.89,0,0,0-.33-.29l-1.68-.11Zm10.7,14.39-.72.05Zm.47,0c.08.54.15,1.08.23,1.61-.08-.53-.15-1.07-.23-1.61Zm88.74,61.56h0s0,0,0,0,.15.35.21.36S148.38,146,148.29,145.9ZM159.57,41.27l1.16-.51h0ZM138.8,36.19h0l1.13-.52ZM32.22,67.78l.38-.17-.38.18-1.37,0ZM59.36,100.9c.11-.34.58-.44,1.07-.55C59.94,100.45,59.47,100.56,59.36,100.9Zm.09.7h0Zm39.48,12h0c-.4.24-.78.49-1.19.75Zm11.79,31.45c0,.06-.09.12-.07.12l.18-.06,1.6.07a15.93,15.93,0,0,0-1.78,0h0A.48.48,0,0,1,110.72,145.09ZM170.54,140l-1.36-.29,1.39.28ZM49.07,40.17l2.55-.48-2.55.48-3.88.5Zm-9,8.94c.13.14.27.28.42.41l-.42-.4Zm-1.2,13,.79-.34-.78.34h0Zm38.35,49.48,1.18,1-1.18-1-.71.09Zm20.87,4.6c.06-.24.11-.47.16-.71,0,.24-.1.47-.14.71-1.7.57-2.19,1.48-1.68,3.18C95.91,117.67,96.39,116.76,98.08,116.19Zm92.34,5.92c-.94.08-1.91,0-2.86,0-.95-1,.37-1,.94-1.32l.68.13.73-.08,1.12.59C190.84,121.68,190.69,122.09,190.42,122.11Zm-.1-3.42a.85.85,0,0,1,.74-.49A.83.83,0,0,0,190.32,118.69ZM180,102.07a.87.87,0,0,0,.51.1A.87.87,0,0,1,180,102.07ZM40.28,47.91l.76-.32-.76.33-.31,0ZM31.49,64.66l-1.27-.8,1.27.8Zm-6.88,3.11h0l.72-.1Zm-7.91-.3a2.66,2.66,0,0,1,1.37.13A2.66,2.66,0,0,0,16.7,67.47Zm15.18,2-2.19.56c.74-.19,1.48-.37,2.19-.56l1.71.08Zm4.71.91h0l-2.65.67Zm155.5,48.12h0l2,.17Zm.22-1.19a10.64,10.64,0,0,0-1.75-.08,11.42,11.42,0,0,1,1.76.08l.33.06Zm-2.83-26.17c.47.13,1,.47,1.45.59C190.46,91.64,189.95,91.31,189.48,91.18ZM107.42,31.46c0-.31-.21-.61-.41-.9C107.21,30.85,107.47,31.15,107.42,31.46Zm-.31.45,4.19-.14-4.19.15ZM34.61,62.78l-2.58,1h0Zm-16.38,4-.31,0,.31,0-.9-.67ZM50.63,86.62a1.64,1.64,0,0,0,.08-.17c0,.05,0,.11-.08.18l-2,.12Zm145.25,30.16h0c0,.08,0,.17,0,.25C195.85,117,195.87,116.87,195.88,116.78ZM153.11,82.91c.06.26.11.5.18.76-.07-.26-.12-.51-.2-.77.57,0,1.13.07,1.7.1Zm16.62-7.19-1-.2,1,.2c0,.08,0,.16,0,.24C169.7,75.87,169.72,75.79,169.73,75.72ZM33.31,55.26l-.76.37h0Zm12.93,55.46h0l-.41.42Zm0,0,.28.3-.28-.3Zm5.33,2.81-.41.16-.64-.11.64.11Zm39.36,32,2.38.21h0Zm64.54,4.24h0a3,3,0,0,1,1.33.18A3,3,0,0,0,155.48,149.72ZM190.8,144l-.75,0h0ZM155.72,88.92a.74.74,0,0,0-.06.22,1,1,0,0,1,.06-.23ZM133.57,27.44l-1.2.71c.41-.23.81-.47,1.2-.72.16-.06.27-.13.42-.19Zm-102.19,20,.3.31c-.09-.11-.2-.2-.3-.3l-.7.09Zm3.44,5.39c0-.23.1-.46.16-.7-.05.23-.11.47-.16.7l-.77.34Zm12.55,36.4-.91-.66.91.66-1.42.24ZM69.75,114.3l.47-.6-.47.6c-.15.15-.3.31-.46.46C69.45,114.61,69.6,114.45,69.75,114.3ZM114,161.56a1.63,1.63,0,0,0-1,0A1.63,1.63,0,0,1,114,161.56Zm1.07.41-.64-.26.64.26Zm9.92-.66a2.43,2.43,0,0,1-1.9-1.76A2.43,2.43,0,0,0,125,161.31Zm25.59-2.58,1.73.11-1.73-.1-.67-.13Zm40.28-14.17-.76-.46c.82,0,1.44.1,2,.15C191.82,144.62,191.38,144.65,190.87,144.56ZM180,128.67l-2-.18,2,.18Zm29.38-12h0l-2.06-.15,2.06.15-.58-.61ZM187.25,57.24h0a1.75,1.75,0,0,0,0-.25A1.75,1.75,0,0,1,187.25,57.24Zm-11-24.9h0c.9.2,2,.17,2.19,1.18C178.2,32.51,177.12,32.54,176.22,32.34Zm-52.07-6c.29.29.56.59.84.89-.28-.3-.55-.59-.85-.89,0-.09,0-.16,0-.25C124.17,26.15,124.15,26.22,124.15,26.31ZM98,30.61l0,0,0,0c-.05-.26-.12-.52-.17-.79C97.88,30.09,98,30.35,98,30.61ZM18.75,62.38c0-.16.07-.31.1-.47,0,.16-.07.31-.1.47h0l-1.41.2ZM41.44,79a2.91,2.91,0,0,1-1.53.24A3,3,0,0,0,41.44,79ZM29.85,89.77h0l.43.06Zm-.06,0h0l-.24.19Zm10.8,25.08c.92-.56,1.82-1.13,2.74-1.7-.92.56-1.82,1.14-2.74,1.7Zm176.09,24.51-1.61-.64s0-.08,0-.09,0,.09,0,.09Zm-39.44-7-.72.14-.8-.26a.39.39,0,0,0-.09-.21l1.66.09c0-.35,0-.7,0-1.19l1.18.46c.12.17.23.35.34.52-.06.24-.15.45-.22.68Zm3.92-46.12h0l.61.37Zm0,0h0l-1.85.63ZM180.85,37l.94-.07h0ZM65,27.61h0l1.85-.12ZM9.84,74.08a1.15,1.15,0,0,0-.24-.48A1.15,1.15,0,0,1,9.84,74.08Zm-.39-.53a.39.39,0,0,0-.17-.07A.39.39,0,0,1,9.45,73.55Zm-.43,0-.11,0ZM21.11,90.79l0-.23a1.52,1.52,0,0,0,0,.23l1.56.81Zm26.5,8.93,3.62-.55-3.62.55a1.16,1.16,0,0,0-.26,0A1.16,1.16,0,0,1,47.62,99.71ZM78.46,145.5h0a4.07,4.07,0,0,0,1.31.35A4.07,4.07,0,0,1,78.46,145.5Zm6.76.84h0l-.72.09Zm66.93,13.21h0l-.39.18ZM183.65,36.81l-1.79.12h0l-1.2-.71,1.21.72,1.78-.12.72-.09Zm-15.79-9.38a.93.93,0,0,0,.3.06,1.2,1.2,0,0,1-.3,0c0-.08,0-.16,0-.23A2.16,2.16,0,0,1,167.87,27.42ZM102.09,26h0l-.33-.37ZM37,108.39h0l-.64-.38Zm-3.18,2.13a.67.67,0,0,0-.06.23.77.77,0,0,1,.06-.23l1.07-.29Zm55.37,15.4,1,.21h0Zm72.35,32.49h0l.18.07Zm58.89-10.88a1,1,0,0,1-.5-.26A1,1,0,0,0,220.46,147.53Zm-.59-3.3c-.27.27-.54.54-.84.81.3-.27.57-.54.85-.82l.89-.81ZM201.72,135l.55.29c0,.08,0,.16-.05.23a1.47,1.47,0,0,0,0-.23ZM204,124h0c-.28.13-.52.2-.55.29C203.52,124.24,203.75,124.18,204,124Zm0,0h0c.1.25.22.43.17.49S204.15,124.29,204.05,124Zm15.36-10.63-.33-.27c0-.17-.13-.34-.17-.52,0,.17.13.35.17.52ZM136.67,24l2.75,0-2.75,0L135,24Zm-8.13-.88c0,.11,0,.21,0,.31,0-.1,0-.2,0-.31Zm-34.66,2.2a1.43,1.43,0,0,1,0,.25,1.65,1.65,0,0,0,0-.25Zm-15.72-.59h0l-.76-.46Zm-9-.05L72,24.24l-2.84.45a2.78,2.78,0,0,1-.77.35A2.78,2.78,0,0,0,69.12,24.69ZM31.21,38.63c-.09-.17-.41-.29-1-.35C30.8,38.34,31.12,38.46,31.21,38.63ZM3.76,64.44l.56-.66,1-.05,1.22.47-2.18.91-.31-.16C4,64.77,3.86,64.61,3.76,64.44Zm32.77,16.7-1.43.19,1.43-.19,1.06-.31ZM29.64,86c0-.07.06-.14.09-.21a1.39,1.39,0,0,0-.07.22c-.35.09-.73.19-1.08.29Zm67.3,64.2a5,5,0,0,0,.22.51l-.42.43c.15-.14.28-.29.41-.43C97.08,150.51,97,150.34,96.93,150.17Zm15,15.41-3.54.3,3.54-.3,2.45-.27ZM170.39,155l.44-.67c0,.15,0,.32,0,.47A4,4,0,0,1,170.39,155Zm2.45,0-1.06,0c.15-.2.31-.42.46-.62C172.44,154.48,172.65,154.69,172.84,154.91ZM223,142.36h0l.12.27C223.05,142.54,223,142.44,223,142.36Z"/><g class="cls-7"><rect class="cls-4" x="222.96" y="142.36" width="0.13" height="0.27"/><rect class="cls-4" x="171.77" y="154.26" width="1.06" height="0.64"/><rect class="cls-4" x="170.39" y="154.29" width="0.44" height="0.67"/><rect class="cls-4" x="108.36" y="165.3" width="5.99" height="0.57"/><rect class="cls-4" x="96.74" y="150.17" width="0.42" height="0.94"/><rect class="cls-4" x="28.57" y="85.76" width="1.15" height="0.51"/><rect class="cls-4" x="35.1" y="80.83" width="2.49" height="0.5"/><rect class="cls-4" x="3.76" y="63.73" width="2.79" height="1.37"/><rect class="cls-4" x="30.25" y="38.28" width="0.96" height="0.35"/><rect class="cls-4" x="68.35" y="24.24" width="3.6" height="0.8"/><rect class="cls-4" x="77.4" y="24.29" width="0.76" height="0.46"/><rect class="cls-4" x="93.84" y="25.33" width="0.04" height="0.25"/><rect class="cls-4" x="128.49" y="23.13" width="0.04" height="0.31"/><rect class="cls-4" x="134.99" y="23.97" width="4.43" height="0.09"/><rect class="cls-4" x="218.92" y="112.62" width="0.5" height="0.79"/><rect class="cls-4" x="204.05" y="124.04" width="0.22" height="0.49"/><rect class="cls-4" x="203.49" y="124.04" width="0.55" height="0.3"/><rect class="cls-4" x="201.72" y="134.98" width="0.55" height="0.52"/><rect class="cls-4" x="219.03" y="143.42" width="1.73" height="1.62"/><rect class="cls-4" x="219.96" y="147.27" width="0.5" height="0.26"/><rect class="cls-4" x="161.57" y="158.41" width="0.18" height="0.07"/><rect class="cls-4" x="89.22" y="125.92" width="1.04" height="0.22"/><rect class="cls-4" x="33.79" y="110.22" width="1.13" height="0.52"/><rect class="cls-4" x="36.38" y="108.01" width="0.64" height="0.38"/><rect class="cls-4" x="101.74" y="25.6" width="0.35" height="0.37"/><rect class="cls-4" x="167.87" y="27.2" width="0.3" height="0.28"/><rect class="cls-4" x="180.65" y="36.21" width="3.72" height="0.72"/><rect class="cls-4" x="151.77" y="159.55" width="0.39" height="0.18"/><rect class="cls-4" x="84.51" y="146.34" width="0.72" height="0.1"/><rect class="cls-4" x="78.46" y="145.5" width="1.31" height="0.39"/><rect class="cls-4" x="47.36" y="99.16" width="3.88" height="0.55"/><rect class="cls-4" x="21.11" y="90.56" width="1.57" height="1.04"/><rect class="cls-4" x="8.91" y="73.57" width="0.11" height="0.04"/><rect class="cls-4" x="9.28" y="73.48" width="0.17" height="0.07"/><rect class="cls-4" x="9.6" y="73.6" width="0.24" height="0.48"/><rect class="cls-4" x="65.02" y="27.49" width="1.85" height="0.12"/><rect class="cls-4" x="180.85" y="36.93" width="0.96" height="0.07"/><rect class="cls-4" x="179.3" y="86.19" width="1.85" height="0.63"/><rect class="cls-4" x="181.17" y="86.2" width="0.61" height="0.37"/><rect class="cls-4" x="175.63" y="130.88" width="3.16" height="1.66"/><rect class="cls-4" x="215.08" y="138.62" width="1.61" height="0.73"/><rect class="cls-4" x="40.59" y="113.15" width="2.74" height="1.7"/><rect class="cls-4" x="29.56" y="89.76" width="0.24" height="0.19"/><rect class="cls-4" x="29.84" y="89.77" width="0.43" height="0.06"/><rect class="cls-4" x="39.91" y="78.97" width="1.53" height="0.33"/><rect class="cls-4" x="17.34" y="61.92" width="1.51" height="0.67"/><rect class="cls-4" x="97.83" y="29.82" width="0.2" height="0.82"/><rect class="cls-4" x="124.14" y="26.06" width="0.85" height="1.14"/><rect class="cls-4" x="176.22" y="32.34" width="2.19" height="1.18"/><rect class="cls-4" x="187.24" y="56.99" width="0.01" height="0.25"/><rect class="cls-4" x="207.34" y="116.1" width="2.06" height="0.61"/><rect class="cls-4" x="178.01" y="128.48" width="2.02" height="0.18"/><rect class="cls-4" x="190.11" y="144.1" width="1.96" height="0.55"/><rect class="cls-4" x="149.92" y="158.61" width="2.4" height="0.22"/><rect class="cls-4" x="123.1" y="159.55" width="1.9" height="1.76"/><rect class="cls-4" x="114.44" y="161.71" width="0.64" height="0.26"/><rect class="cls-4" x="113.03" y="161.44" width="0.98" height="0.12"/><rect class="cls-4" x="69.29" y="113.7" width="0.93" height="1.06"/><rect class="cls-4" x="45.94" y="88.56" width="1.42" height="0.9"/><rect class="cls-4" x="34.05" y="52.12" width="0.93" height="1.04"/><rect class="cls-4" x="30.68" y="47.43" width="1" height="0.31"/><rect class="cls-4" x="132.37" y="27.24" width="1.62" height="0.91"/><rect class="cls-4" x="155.66" y="88.91" width="0.06" height="0.23"/><rect class="cls-4" x="190.03" y="144.04" width="0.78" height="0.04"/><rect class="cls-4" x="155.48" y="149.71" width="1.33" height="0.19"/><rect class="cls-4" x="90.94" y="145.48" width="2.38" height="0.21"/><rect class="cls-4" x="50.52" y="113.51" width="1.05" height="0.16"/><rect class="cls-4" x="46.25" y="110.71" width="0.28" height="0.3"/><rect class="cls-4" x="45.82" y="110.72" width="0.41" height="0.42"/><rect class="cls-4" x="32.55" y="55.26" width="0.76" height="0.37"/><rect class="cls-4" x="168.74" y="75.52" width="0.99" height="0.44"/><rect class="cls-4" x="153.09" y="82.9" width="1.7" height="0.77"/><rect class="cls-4" x="195.84" y="116.78" width="0.05" height="0.25"/><rect class="cls-4" x="48.6" y="86.45" width="2.11" height="0.3"/><rect class="cls-4" x="17.33" y="66.09" width="0.9" height="0.67"/><rect class="cls-4" x="32.02" y="62.78" width="2.59" height="0.97"/><rect class="cls-4" x="107.1" y="31.77" width="4.19" height="0.15"/><rect class="cls-4" x="107.01" y="30.56" width="0.46" height="0.9"/><rect class="cls-4" x="189.48" y="91.18" width="1.45" height="0.59"/><rect class="cls-4" x="190.56" y="117.2" width="2.09" height="0.2"/><rect class="cls-4" x="192.08" y="118.53" width="2.04" height="0.17"/><rect class="cls-4" x="33.93" y="70.41" width="2.65" height="0.67"/><rect class="cls-4" x="29.68" y="69.49" width="3.9" height="0.56"/><rect class="cls-4" x="16.7" y="67.42" width="1.37" height="0.18"/><rect class="cls-4" x="23.24" y="67.68" width="2.07" height="0.1"/><rect class="cls-4" x="30.23" y="63.87" width="1.27" height="0.8"/><rect class="cls-4" x="39.97" y="47.58" width="1.07" height="0.33"/><rect class="cls-4" x="180.04" y="102.07" width="0.51" height="0.12"/><rect class="cls-4" x="190.32" y="118.2" width="0.74" height="0.49"/><rect class="cls-4" x="186.62" y="120.81" width="4.41" height="1.37"/><rect class="cls-4" x="95.91" y="115.48" width="2.33" height="3.89"/><rect class="cls-4" x="76.49" y="111.59" width="1.89" height="0.98"/><rect class="cls-4" x="37.5" y="61.76" width="2.14" height="0.34"/><rect class="cls-4" x="40.05" y="49.11" width="0.42" height="0.41"/><rect class="cls-4" x="45.19" y="39.69" width="6.43" height="0.98"/><rect class="cls-4" x="169.18" y="139.7" width="1.39" height="0.29"/><rect class="cls-4" x="110.63" y="145.09" width="1.8" height="0.14"/><rect class="cls-4" x="97.75" y="113.64" width="1.19" height="0.75"/><path class="cls-2" d="M59.45,101.6Z"/><rect class="cls-4" x="59.36" y="100.35" width="1.07" height="0.55"/><rect class="cls-4" x="30.85" y="67.61" width="1.75" height="0.18"/><rect class="cls-4" x="138.8" y="35.67" width="1.13" height="0.52"/><rect class="cls-4" x="159.57" y="40.76" width="1.16" height="0.51"/><rect class="cls-4" x="148.29" y="145.88" width="0.26" height="0.36"/><rect class="cls-4" x="59.55" y="84.34" width="0.23" height="1.61"/><rect class="cls-4" x="58.36" y="84.37" width="0.72" height="0.05"/><rect class="cls-4" x="46.7" y="69.88" width="2.01" height="0.4"/><rect class="cls-4" x="44.55" y="42.28" width="2.26" height="1.1"/><rect class="cls-4" x="68.32" y="40.97" width="0.83" height="0.93"/><rect class="cls-4" x="175.11" y="62.07" width="3.47" height="0.48"/><rect class="cls-4" x="179" y="116.45" width="1.95" height="1.12"/><rect class="cls-4" x="158.14" y="130.89" width="3.13" height="0.03"/><rect class="cls-4" x="125.71" y="149.85" width="1.71" height="0.08"/><rect class="cls-4" x="119.62" y="145.65" width="0.6" height="0.56"/><rect class="cls-4" x="106.37" y="135.98" width="2.57" height="1.31"/><rect class="cls-4" x="89.85" y="110.12" width="3.91" height="0.54"/><rect class="cls-4" x="59.96" y="90.07" width="1.77" height="0.14"/><rect class="cls-4" x="59.49" y="83.88" width="0.04" height="0.31"/><rect class="cls-4" x="39.08" y="63.99" width="0.65" height="0.88"/><rect class="cls-4" x="68.26" y="42.73" width="3.95" height="1.26"/><rect class="cls-4" x="184.04" y="117.08" width="0.72" height="0.11"/><rect class="cls-4" x="152.22" y="139.85" width="0.31" height="0.32"/><rect class="cls-4" x="129.22" y="148.78" width="1.41" height="0.13"/><rect class="cls-4" x="128.45" y="148.14" width="0.79" height="0.59"/><rect class="cls-4" x="94.75" y="110.87" width="1.61" height="1.18"/><rect class="cls-4" x="60.25" y="71.09" width="0.04" height="0.23"/><rect class="cls-4" x="83.14" y="41.16" width="3.04" height="1.13"/><rect class="cls-4" x="156.94" y="96.62" width="0.69" height="0.15"/><rect class="cls-4" x="146.31" y="140.19" width="1.34" height="0.26"/><rect class="cls-4" x="105.09" y="112.38" width="0.67" height="0.49"/><rect class="cls-4" x="157.74" y="65.95" width="2.05" height="0.53"/><rect class="cls-4" x="141.83" y="71.39" width="5.85" height="0.32"/><rect class="cls-4" x="169.77" y="115.9" width="1.02" height="0.18"/><rect class="cls-4" x="128.07" y="142.63" width="1.49" height="0.45"/><rect class="cls-4" x="132.22" y="90.42" width="2.89" height="0.16"/><rect class="cls-4" x="133.67" y="140.6" width="1.07" height="0.3"/><rect class="cls-4" x="110.83" y="111" width="3.86" height="0.39"/><rect class="cls-4" x="104.45" y="104.16" width="7.09" height="0.81"/><rect class="cls-4" x="69.89" y="68.26" width="5.15" height="1.46"/><rect class="cls-4" x="148.27" y="56.15" width="0.78" height="0.39"/><rect class="cls-4" x="134.37" y="101.57" width="3.29" height="0.84"/><rect class="cls-4" x="86.9" y="46.51" width="1.23" height="0.24"/><rect class="cls-4" x="107.95" y="102.98" width="2.78" height="0.2"/><rect class="cls-4" x="60.14" y="61.92" width="2.11" height="1.15"/><rect class="cls-4" x="61.7" y="58.62" width="0.6" height="0.39"/><rect class="cls-4" x="80.3" y="48.59" width="0.95" height="0.44"/><rect class="cls-4" x="121.28" y="84.62" width="2.03" height="0.14"/><rect class="cls-4" x="123.32" y="84.76" width="0.34" height="0.09"/><rect class="cls-4" x="79.94" y="71.48" width="1.14" height="1.21"/><rect class="cls-4" x="139.9" y="106" width="2" height="0.38"/><rect class="cls-4" x="139.47" y="116.49" width="1.82" height="0.39"/><rect class="cls-4" x="152.75" y="111.04" width="1.36" height="0.32"/><rect class="cls-4" x="132.43" y="50.51" width="0.74" height="0.38"/><rect class="cls-4" x="88.32" y="89.8" width="1.13" height="0.52"/><rect class="cls-4" x="67.83" y="58.82" width="1.1" height="0.29"/><rect class="cls-4" x="80.64" y="76.59" width="0.91" height="0.69"/><rect class="cls-4" x="78.18" y="59.08" width="2.13" height="0.31"/><rect class="cls-4" x="81.16" y="58.24" width="1.29" height="0.52"/><rect class="cls-4" x="110.58" y="52.24" width="4.95" height="0.51"/><rect class="cls-4" x="118.45" y="51.63" width="1.71" height="0.76"/><rect class="cls-4" x="82.94" y="77.01" width="2.03" height="0.43"/><rect class="cls-4" x="87.55" y="74.96" width="1" height="0.21"/><rect class="cls-4" x="94.86" y="64.18" width="1.71" height="0.34"/><rect class="cls-4" x="112.39" y="75.85" width="0.7" height="0.65"/><rect class="cls-4" x="114.27" y="90.81" width="0.22" height="0.11"/><rect class="cls-4" x="88.98" y="59.02" width="0.83" height="0.91"/><rect class="cls-4" x="113.79" y="55.94" width="1.94" height="1.16"/><rect class="cls-4" x="108.73" y="90.2" width="0.38" height="0.55"/><rect class="cls-4" x="99.27" y="86.26" width="1.28" height="1.25"/><rect class="cls-4" x="108.05" y="61.76" width="2.18" height="0.55"/><rect class="cls-4" x="108.29" y="64.59" width="1.7" height="0.08"/><rect class="cls-4" x="109.41" y="62.17" width="1.69" height="0.14"/><rect class="cls-4" x="113.64" y="75.21" width="0.49" height="1.21"/><rect class="cls-4" x="90.76" y="65.69" width="4.15" height="0.46"/><rect class="cls-4" x="86.34" y="51.94" width="3.34" height="1.09"/><rect class="cls-4" x="66.55" y="56.84" width="1" height="0.2"/><path class="cls-2" d="M67.92,58.7Z"/><rect class="cls-4" x="122.57" y="48.18" width="0.64" height="0.14"/><rect class="cls-4" x="60.18" y="51.94" width="2.85" height="2.15"/><rect class="cls-4" x="59.52" y="52.24" width="1.67" height="0.31"/><rect class="cls-4" x="83.18" y="89.65" width="0.43" height="0.42"/><rect class="cls-4" x="122.77" y="45.28" width="1.43" height="0.22"/><rect class="cls-4" x="88.74" y="46.56" width="0.49" height="0.55"/><rect class="cls-4" x="88.16" y="46.48" width="0.47" height="0.07"/><rect class="cls-4" x="124.88" y="117.28" width="1.38" height="1.25"/><rect class="cls-4" x="119.59" y="117.08" width="1.83" height="0.61"/><rect class="cls-4" x="141.9" y="141.57" width="1.03" height="0.82"/><rect class="cls-4" x="124.86" y="149.6" width="0.88" height="0.23"/><rect class="cls-4" x="149.24" y="144.51" width="0.24" height="0.93"/><rect class="cls-4" x="68.11" y="37.4" width="0.89" height="1.05"/><rect class="cls-4" x="107.32" y="142.27" width="1.8" height="0.16"/><rect class="cls-4" x="78.69" y="113.9" width="0.12" height="0.73"/><rect class="cls-4" x="89.39" y="116.96" width="1.33" height="1.27"/><rect class="cls-4" x="39.51" y="72.98" width="0.69" height="0.12"/><rect class="cls-4" x="168.56" y="31.07" width="1.15" height="1.51"/><rect class="cls-4" x="198.29" y="139.43" width="0.31" height="0.33"/><rect class="cls-4" x="213.12" y="109.95" width="0.98" height="0.45"/><rect class="cls-4" x="187.64" y="95.47" width="3.06" height="0.6"/><rect class="cls-4" x="133.24" y="158.71" width="0.77" height="0.34"/><rect class="cls-4" x="184" y="126.17" width="1.55" height="0.56"/><rect class="cls-4" x="106.25" y="25.61" width="0.4" height="0.21"/><rect class="cls-4" x="43.96" y="91.89" width="0.58" height="0.67"/><rect class="cls-4" x="49.32" y="97.34" width="3.57" height="1.09"/><rect class="cls-4" x="27.17" y="59.97" width="2.01" height="0.45"/><rect class="cls-4" x="189.78" y="147.76" width="2.21" height="0.85"/><rect class="cls-4" x="203.09" y="87.83" width="4.19" height="0.82"/><rect class="cls-4" x="56.95" y="27.89" width="0.7" height="0.45"/><rect class="cls-4" x="30.91" y="39.32" width="3.38" height="0.45"/><rect class="cls-4" x="45.14" y="115.96" width="1.09" height="0.3"/><rect class="cls-4" y="22.76" width="0.43" height="143.72"/><rect class="cls-4" x="0.43" y="22.76" width="227.67" height="143.72"/><path class="cls-2" d="M228.09,166.47v0Z"/></g><path class="cls-2" d="M193.83,128.87l-1.45.17.37.4C193.3,129.43,194.19,129.74,193.83,128.87Z"/><g class="cls-8"><path class="cls-4" d="M192.38,128.87v0Z"/><rect class="cls-4" x="192.38" y="128.87" width="1.53" height="0.87"/><rect class="cls-4" x="193.91" y="128.87" width="0.27" height="0.87"/></g><path class="cls-9" d="M161.78,53.6c-14.45,0-21.94,14.07-25.8,19.55s-8.91,13.63-16.15,13.63c-5.21,0-9.44-4.65-9.44-10.37S114.63,66,119.83,66c4.41,0,9,4.12,12.19,8,1.81-2.41,3.81-5.49,7-10h0c-4.58-5.13-11.26-10.47-19.24-10.47-11.45,0-20.77,10.23-20.77,22.81s9.32,22.81,20.77,22.81c14.45,0,20.67-12.59,25.8-19.55S154.84,66,161.78,66c5.21,0,9.44,4.65,9.44,10.37S167,86.78,161.78,86.78c-4.48,0-11-6.14-14.23-10.08,0,0-4.91,7.09-6.94,10l0,0c4.58,5.16,13.19,12.46,21.21,12.46,11.45,0,20.77-10.23,20.77-22.81S173.23,53.6,161.78,53.6Z"/><path class="cls-9" d="M71,65.67a6.59,6.59,0,0,0-3.05-2.1,11,11,0,0,0-3.65-.68,9.6,9.6,0,0,0-2.07.24,8,8,0,0,0-2,.74,4.39,4.39,0,0,0-1.54,1.33,3.38,3.38,0,0,0-.59,2,3.34,3.34,0,0,0,1.42,2.9,13.46,13.46,0,0,0,3.59,1.72q2.16.71,4.65,1.42a19.22,19.22,0,0,1,4.65,2A11,11,0,0,1,76,78.77a10.66,10.66,0,0,1,1.42,5.87,13.5,13.5,0,0,1-1.3,6.11,12.38,12.38,0,0,1-3.53,4.33,15,15,0,0,1-5.16,2.55,23.65,23.65,0,0,1-13.78-.42,19,19,0,0,1-6.52-4l6.58-7.23a9.59,9.59,0,0,0,3.59,2.93,10.23,10.23,0,0,0,4.48,1A10.13,10.13,0,0,0,64,89.65a7.44,7.44,0,0,0,2.07-.8,4.48,4.48,0,0,0,1.48-1.36,3.4,3.4,0,0,0,.56-2,3.55,3.55,0,0,0-1.45-3A13.41,13.41,0,0,0,63,80.67q-2.19-.77-4.74-1.54A21.23,21.23,0,0,1,53.55,77a11.41,11.41,0,0,1-3.65-3.44A9.83,9.83,0,0,1,48.46,68a12.61,12.61,0,0,1,1.33-5.93,12.88,12.88,0,0,1,3.56-4.27,15.47,15.47,0,0,1,5.13-2.58,21,21,0,0,1,6-.86,23.55,23.55,0,0,1,6.88,1,15.88,15.88,0,0,1,6,3.38Z"/><path class="cls-9" d="M61.2,101a25.08,25.08,0,0,1-8.43-1.39A21.57,21.57,0,0,1,45.4,95l-1.83-1.68L53.86,82l1.81,2.42a7.07,7.07,0,0,0,2.67,2.18,7.51,7.51,0,0,0,5.12.59,5,5,0,0,0,1.38-.53,2,2,0,0,0,.67-.6.92.92,0,0,0,.13-.55,1.07,1.07,0,0,0-.46-1,11,11,0,0,0-3-1.5c-1.42-.5-3-1-4.64-1.51a23.81,23.81,0,0,1-5.3-2.32A13.94,13.94,0,0,1,47.84,75,12.29,12.29,0,0,1,46,68a15.13,15.13,0,0,1,1.62-7.09,15.42,15.42,0,0,1,4.24-5.09,18,18,0,0,1,5.95-3,25.27,25.27,0,0,1,14.3.15A18.44,18.44,0,0,1,79,56.86l1.9,1.68-10,11L69,67.22a4.11,4.11,0,0,0-1.93-1.3,8.53,8.53,0,0,0-2.81-.54,7.18,7.18,0,0,0-1.54.18,5.52,5.52,0,0,0-1.38.51,1.91,1.91,0,0,0-.68.58.89.89,0,0,0-.13.56c0,.56.17.72.37.86a11.06,11.06,0,0,0,2.92,1.38c1.41.46,2.95.93,4.56,1.39a21.81,21.81,0,0,1,5.26,2.28,13.57,13.57,0,0,1,4.39,4.28,13.12,13.12,0,0,1,1.83,7.23,16,16,0,0,1-1.57,7.22A14.92,14.92,0,0,1,74.08,97a17.54,17.54,0,0,1-6,3A25.29,25.29,0,0,1,61.2,101Zm-10.48-8a15.58,15.58,0,0,0,3.73,1.95A20.08,20.08,0,0,0,61.2,96a20.29,20.29,0,0,0,5.52-.74A12.57,12.57,0,0,0,71,93.09a9.83,9.83,0,0,0,2.82-3.47,11.1,11.1,0,0,0,1-5,8.33,8.33,0,0,0-1-4.51,8.48,8.48,0,0,0-2.78-2.72,16.81,16.81,0,0,0-4-1.75c-1.68-.48-3.27-1-4.75-1.45A16,16,0,0,1,58,72.15a6.19,6.19,0,0,1-1.42-8.41A6.89,6.89,0,0,1,59,61.65a10.52,10.52,0,0,1,2.64-1,12.17,12.17,0,0,1,2.62-.3,13.5,13.5,0,0,1,4.48.82,10,10,0,0,1,2,1l2.83-3.1a13.22,13.22,0,0,0-3-1.34,20.23,20.23,0,0,0-11.43-.14,13.06,13.06,0,0,0-4.31,2.16A9.9,9.9,0,0,0,51,68a7.49,7.49,0,0,0,1,4.22,8.85,8.85,0,0,0,2.86,2.7A18.86,18.86,0,0,0,59,76.73c1.72.52,3.35,1.05,4.85,1.58a16,16,0,0,1,4.32,2.23,6,6,0,0,1,2.45,5,5.87,5.87,0,0,1-1,3.36A7,7,0,0,1,67.35,91a10,10,0,0,1-2.77,1.07,12.57,12.57,0,0,1-8.4-1,12.29,12.29,0,0,1-2.44-1.54Z"/><path class="cls-9" d="M84.14,55.41h9.25v42H84.14Z"/><path class="cls-9" d="M95.89,99.88H81.64v-47H95.89Zm-9.25-5h4.25v-37H86.64Z"/><path class="cls-9" d="M56.61,112.36a1,1,0,0,0-.47-.33,1.69,1.69,0,0,0-.56-.11,1.47,1.47,0,0,0-.32,0,1.22,1.22,0,0,0-.31.11.68.68,0,0,0-.24.21.52.52,0,0,0-.09.31.52.52,0,0,0,.22.45,2.09,2.09,0,0,0,.55.27l.72.22a3,3,0,0,1,.72.31,1.7,1.7,0,0,1,.55.54,1.65,1.65,0,0,1,.22.91,2.09,2.09,0,0,1-.2.94,1.91,1.91,0,0,1-.54.67,2.31,2.31,0,0,1-.8.39,3.65,3.65,0,0,1-2.13-.06,2.94,2.94,0,0,1-1-.62l1-1.12a1.48,1.48,0,0,0,.55.45,1.56,1.56,0,0,0,1,.12,1.15,1.15,0,0,0,.32-.12.69.69,0,0,0,.23-.21.52.52,0,0,0,.09-.3.55.55,0,0,0-.22-.46,2.07,2.07,0,0,0-.56-.29l-.73-.24a3.29,3.29,0,0,1-.73-.32,1.76,1.76,0,0,1-.56-.53,1.51,1.51,0,0,1-.22-.87,2,2,0,0,1,.21-.92,2,2,0,0,1,.55-.66,2.38,2.38,0,0,1,.79-.4,3.25,3.25,0,0,1,.92-.13,3.63,3.63,0,0,1,1.06.16,2.45,2.45,0,0,1,.92.52Z"/><path class="cls-9" d="M58.64,110.77h1.43v6.48H58.64Z"/><path class="cls-9" d="M64.57,112.36a1,1,0,0,0-.47-.33,1.69,1.69,0,0,0-.56-.11,1.47,1.47,0,0,0-.32,0,1.22,1.22,0,0,0-.31.11.68.68,0,0,0-.24.21.52.52,0,0,0-.09.31.52.52,0,0,0,.22.45,2.09,2.09,0,0,0,.55.27l.72.22a3,3,0,0,1,.72.31,1.7,1.7,0,0,1,.55.54,1.65,1.65,0,0,1,.22.91,2.09,2.09,0,0,1-.2.94,1.91,1.91,0,0,1-.54.67,2.31,2.31,0,0,1-.8.39,3.65,3.65,0,0,1-2.13-.06,2.94,2.94,0,0,1-1-.62l1-1.12a1.48,1.48,0,0,0,.55.45,1.56,1.56,0,0,0,1,.12,1.15,1.15,0,0,0,.32-.12.69.69,0,0,0,.23-.21.52.52,0,0,0,.09-.3.55.55,0,0,0-.22-.46,2.07,2.07,0,0,0-.56-.29l-.73-.24a3.29,3.29,0,0,1-.73-.32,1.76,1.76,0,0,1-.56-.53,1.51,1.51,0,0,1-.22-.87,2,2,0,0,1,.21-.92,2,2,0,0,1,.55-.66,2.38,2.38,0,0,1,.79-.4,3.25,3.25,0,0,1,.92-.13,3.63,3.63,0,0,1,1.06.16,2.45,2.45,0,0,1,.92.52Z"/><path class="cls-9" d="M67.88,112H66v-1.26h5.13V112H69.3v5.22H67.88Z"/><path class="cls-9" d="M71.93,110.77h4.4v1.32h-3v1.21h2.81v1.32H73.36v1.32H76.5v1.32H71.93Z"/><path class="cls-9" d="M77.64,110.77H79.8L81.29,115h0l1.5-4.23H85v6.48H83.54v-5h0l-1.7,5H80.73l-1.64-5h0v5H77.64Z"/><path class="cls-9" d="M88.41,110.77H89.6l2.82,6.48H90.8l-.56-1.37H87.73l-.54,1.37H85.61Zm.55,1.89-.79,2h1.58Z"/><path class="cls-9" d="M95.77,110.77h2.14a6.11,6.11,0,0,1,1.48.17,3.38,3.38,0,0,1,1.22.56,2.76,2.76,0,0,1,.83,1,3.39,3.39,0,0,1,.31,1.51,3.08,3.08,0,0,1-.3,1.39,3,3,0,0,1-.8,1,3.54,3.54,0,0,1-1.16.62,4.51,4.51,0,0,1-1.38.21H95.77Zm1.43,5.16h.74a4,4,0,0,0,.92-.1,2,2,0,0,0,.74-.33,1.6,1.6,0,0,0,.49-.61,2.17,2.17,0,0,0,.18-.93,1.81,1.81,0,0,0-.18-.83,1.66,1.66,0,0,0-.48-.58,2.11,2.11,0,0,0-.71-.34,3.16,3.16,0,0,0-.86-.11H97.2Z"/><path class="cls-9" d="M102.78,110.77h4.4v1.32h-3v1.21H107v1.32H104.2v1.32h3.14v1.32h-4.57Z"/><path class="cls-9" d="M111.18,110.77h1.43v6.48h-1.43Z"/><path class="cls-9" d="M113.91,110.77h1.94l2.75,4.5h0v-4.5H120v6.48h-1.87l-2.83-4.61h0v4.61h-1.43Z"/><path class="cls-9" d="M121.42,110.77h4.35v1.32h-2.92v1.32h2.7v1.32h-2.7v2.53h-1.43Z"/><path class="cls-9" d="M126.45,114a3.66,3.66,0,0,1,.26-1.41,3.1,3.1,0,0,1,.73-1.08,3.21,3.21,0,0,1,1.11-.68,4.25,4.25,0,0,1,2.8,0,3.21,3.21,0,0,1,1.11.68,3.1,3.1,0,0,1,.73,1.08,3.94,3.94,0,0,1,0,2.82,3.1,3.1,0,0,1-.73,1.08,3.21,3.21,0,0,1-1.11.68,4.25,4.25,0,0,1-2.8,0,3.2,3.2,0,0,1-1.11-.68,3.1,3.1,0,0,1-.73-1.08A3.66,3.66,0,0,1,126.45,114Zm1.48,0a2.37,2.37,0,0,0,.14.84,1.91,1.91,0,0,0,.41.66,1.85,1.85,0,0,0,.64.43,2.28,2.28,0,0,0,1.66,0,1.86,1.86,0,0,0,.64-.43,1.92,1.92,0,0,0,.41-.66,2.52,2.52,0,0,0,0-1.67,1.92,1.92,0,0,0-.41-.66,1.86,1.86,0,0,0-.64-.43,2.28,2.28,0,0,0-1.66,0,1.85,1.85,0,0,0-.64.43,1.91,1.91,0,0,0-.41.66A2.38,2.38,0,0,0,127.93,114Z"/><path class="cls-9" d="M134.41,110.77h2.51a4.4,4.4,0,0,1,.94.1,2.23,2.23,0,0,1,.78.32,1.6,1.6,0,0,1,.53.6,2,2,0,0,1,.2.95,1.9,1.9,0,0,1-.36,1.17,1.61,1.61,0,0,1-1,.61l1.65,2.74H137.9l-1.35-2.59h-.7v2.59h-1.43Zm1.43,2.68h1.25a1.28,1.28,0,0,0,.39-.08.67.67,0,0,0,.29-.22.65.65,0,0,0,.11-.41.68.68,0,0,0-.1-.39.67.67,0,0,0-.26-.22,1.15,1.15,0,0,0-.36-.11l-.39,0h-.93Z"/><path class="cls-9" d="M140.34,110.77h2.16L144,115h0l1.5-4.23h2.15v6.48h-1.43v-5h0l-1.7,5h-1.09l-1.64-5h0v5h-1.43Z"/><path class="cls-9" d="M151.11,110.77h1.18l2.82,6.48H153.5l-.56-1.37h-2.52l-.54,1.37h-1.57Zm.55,1.89-.79,2h1.58Z"/><path class="cls-9" d="M160,112.46a1.39,1.39,0,0,0-.52-.39,1.72,1.72,0,0,0-.71-.14,1.78,1.78,0,0,0-1.34.59,2,2,0,0,0-.39.66,2.52,2.52,0,0,0,0,1.67,2.07,2.07,0,0,0,.39.66,1.76,1.76,0,0,0,.58.43,1.68,1.68,0,0,0,.72.16,1.6,1.6,0,0,0,.78-.18,1.54,1.54,0,0,0,.56-.51l1.19.89a2.48,2.48,0,0,1-1,.85,3.23,3.23,0,0,1-1.3.27h-.17l-.27.39.41,0a1.17,1.17,0,0,1,.37.1.68.68,0,0,1,.27.23.7.7,0,0,1,.11.41.67.67,0,0,1-.13.42,1,1,0,0,1-.33.27,1.66,1.66,0,0,1-.42.15,2,2,0,0,1-.39,0,2.49,2.49,0,0,1-.59-.08,2.68,2.68,0,0,1-.55-.2l.23-.43.29.1a1.42,1.42,0,0,0,.42.06h.21l.19,0a.39.39,0,0,0,.14-.09.2.2,0,0,0,.06-.15.25.25,0,0,0-.16-.24.72.72,0,0,0-.3-.07.85.85,0,0,0-.33.07l-.29-.27.49-.75A3.59,3.59,0,0,1,157,117a3,3,0,0,1-.86-.71,3.18,3.18,0,0,1-.56-1,3.69,3.69,0,0,1-.2-1.25,3.66,3.66,0,0,1,.26-1.41,3.1,3.1,0,0,1,.73-1.08,3.21,3.21,0,0,1,1.11-.68,4,4,0,0,1,1.4-.24,3.43,3.43,0,0,1,.57.05,3.1,3.1,0,0,1,.59.16,2.63,2.63,0,0,1,.55.29,2.21,2.21,0,0,1,.48.45Z"/><path class="cls-9" d="M164.17,110.77h1.18l2.82,6.48h-1.61l-.56-1.37h-2.52l-.54,1.37h-1.57Zm-1.19-.53a2.15,2.15,0,0,1,.13-.46,1.61,1.61,0,0,1,.23-.41,1.12,1.12,0,0,1,.34-.29.94.94,0,0,1,.46-.11,1.43,1.43,0,0,1,.41.06l.38.14.25.09a.74.74,0,0,0,.26,0,.33.33,0,0,0,.25-.1.88.88,0,0,0,.16-.23h.71a2.92,2.92,0,0,1-.13.49,1.3,1.3,0,0,1-.22.4,1,1,0,0,1-.35.27,1.1,1.1,0,0,1-.49.1,1.19,1.19,0,0,1-.38-.06l-.33-.13-.3-.13a.71.71,0,0,0-.28-.06.29.29,0,0,0-.25.13,1.05,1.05,0,0,0-.14.26Zm1.74,2.42-.79,2h1.58Z"/><path class="cls-9" d="M168.47,114a3.66,3.66,0,0,1,.26-1.41,3.1,3.1,0,0,1,.73-1.08,3.21,3.21,0,0,1,1.11-.68,4.25,4.25,0,0,1,2.8,0,3.21,3.21,0,0,1,1.11.68,3.1,3.1,0,0,1,.73,1.08,3.94,3.94,0,0,1,0,2.82,3.1,3.1,0,0,1-.73,1.08,3.21,3.21,0,0,1-1.11.68,4.25,4.25,0,0,1-2.8,0,3.2,3.2,0,0,1-1.11-.68,3.1,3.1,0,0,1-.73-1.08A3.66,3.66,0,0,1,168.47,114Zm1.48,0a2.37,2.37,0,0,0,.14.84,1.91,1.91,0,0,0,.41.66,1.85,1.85,0,0,0,.64.43,2.28,2.28,0,0,0,1.66,0,1.86,1.86,0,0,0,.64-.43,1.92,1.92,0,0,0,.41-.66,2.52,2.52,0,0,0,0-1.67,1.92,1.92,0,0,0-.41-.66,1.86,1.86,0,0,0-.64-.43,2.28,2.28,0,0,0-1.66,0,1.85,1.85,0,0,0-.64.43,1.91,1.91,0,0,0-.41.66A2.38,2.38,0,0,0,169.95,114Z"/><path class="cls-9" d="M46.64,121.76h2.14a6.11,6.11,0,0,1,1.48.17,3.38,3.38,0,0,1,1.22.56,2.76,2.76,0,0,1,.83,1,3.4,3.4,0,0,1,.31,1.51,3.08,3.08,0,0,1-.3,1.39,3,3,0,0,1-.8,1,3.54,3.54,0,0,1-1.16.62,4.51,4.51,0,0,1-1.38.21H46.64Zm1.43,5.16h.74a4,4,0,0,0,.92-.1,2,2,0,0,0,.74-.33,1.6,1.6,0,0,0,.49-.61,2.17,2.17,0,0,0,.18-.93,1.81,1.81,0,0,0-.18-.83,1.66,1.66,0,0,0-.48-.58,2.11,2.11,0,0,0-.71-.34,3.16,3.16,0,0,0-.86-.11h-.84Z"/><path class="cls-9" d="M53.24,125a3.66,3.66,0,0,1,.26-1.41,3.09,3.09,0,0,1,.73-1.08,3.21,3.21,0,0,1,1.11-.68,4.24,4.24,0,0,1,2.8,0,3.21,3.21,0,0,1,1.11.68,3.1,3.1,0,0,1,.73,1.08,3.94,3.94,0,0,1,0,2.82,3.1,3.1,0,0,1-.73,1.08,3.2,3.2,0,0,1-1.11.68,4.24,4.24,0,0,1-2.8,0,3.2,3.2,0,0,1-1.11-.68,3.09,3.09,0,0,1-.73-1.08A3.66,3.66,0,0,1,53.24,125Zm1.48,0a2.38,2.38,0,0,0,.14.84,1.91,1.91,0,0,0,.41.66,1.85,1.85,0,0,0,.64.43,2.28,2.28,0,0,0,1.66,0,1.86,1.86,0,0,0,.64-.43,1.92,1.92,0,0,0,.41-.66,2.53,2.53,0,0,0,0-1.67,1.92,1.92,0,0,0-.41-.66,1.86,1.86,0,0,0-.64-.43,2.28,2.28,0,0,0-1.66,0,1.85,1.85,0,0,0-.64.43,1.91,1.91,0,0,0-.41.66A2.39,2.39,0,0,0,54.72,125Z"/><path class="cls-9" d="M64.41,123.34a1,1,0,0,0-.47-.33,1.69,1.69,0,0,0-.56-.11,1.47,1.47,0,0,0-.32,0,1.23,1.23,0,0,0-.31.11.67.67,0,0,0-.24.21.57.57,0,0,0,.13.76,2.09,2.09,0,0,0,.55.27l.72.22a3,3,0,0,1,.72.31,1.7,1.7,0,0,1,.55.54,1.65,1.65,0,0,1,.22.91,2.09,2.09,0,0,1-.2.94,1.91,1.91,0,0,1-.54.67,2.31,2.31,0,0,1-.8.39,3.65,3.65,0,0,1-2.13-.06,2.94,2.94,0,0,1-1-.62l1-1.12a1.48,1.48,0,0,0,.55.45,1.56,1.56,0,0,0,1,.12,1.14,1.14,0,0,0,.32-.12.69.69,0,0,0,.23-.21.52.52,0,0,0,.09-.3.55.55,0,0,0-.22-.46,2.07,2.07,0,0,0-.56-.29l-.73-.24a3.28,3.28,0,0,1-.73-.32,1.76,1.76,0,0,1-.56-.53,1.52,1.52,0,0,1-.22-.87,2,2,0,0,1,.21-.92,2,2,0,0,1,.55-.66,2.39,2.39,0,0,1,.79-.4,3.25,3.25,0,0,1,.92-.13,3.62,3.62,0,0,1,1.06.16,2.44,2.44,0,0,1,.92.52Z"/><path class="cls-9" d="M73.4,123.44a1.4,1.4,0,0,0-.52-.39,1.72,1.72,0,0,0-.71-.14,1.78,1.78,0,0,0-1.34.59,2,2,0,0,0-.39.66,2.53,2.53,0,0,0,0,1.67,2.08,2.08,0,0,0,.39.66,1.76,1.76,0,0,0,.58.43,1.68,1.68,0,0,0,.72.16,1.61,1.61,0,0,0,.78-.18,1.54,1.54,0,0,0,.56-.51l1.19.89a2.48,2.48,0,0,1-1,.85,3.23,3.23,0,0,1-1.3.27,4,4,0,0,1-1.4-.24,3.2,3.2,0,0,1-1.11-.68,3.1,3.1,0,0,1-.73-1.08,3.94,3.94,0,0,1,0-2.82,3.1,3.1,0,0,1,.73-1.08,3.21,3.21,0,0,1,1.11-.68,4,4,0,0,1,1.4-.24,3.43,3.43,0,0,1,.57.05,3.1,3.1,0,0,1,.59.16,2.63,2.63,0,0,1,.55.29,2.21,2.21,0,0,1,.48.45Z"/><path class="cls-9" d="M75.49,121.76h4.4v1.32h-3v1.21h2.81v1.32H76.92v1.32h3.14v1.32H75.49Z"/><path class="cls-9" d="M81.2,121.76h2.51a4.4,4.4,0,0,1,.94.1,2.23,2.23,0,0,1,.78.32,1.6,1.6,0,0,1,.53.6,2,2,0,0,1,.2.95,1.9,1.9,0,0,1-.36,1.17,1.61,1.61,0,0,1-1,.61l1.65,2.74H84.69l-1.35-2.59h-.7v2.59H81.2Zm1.43,2.68h1.25a1.28,1.28,0,0,0,.39-.08.68.68,0,0,0,.29-.22.65.65,0,0,0,.11-.41.68.68,0,0,0-.1-.39.67.67,0,0,0-.26-.22A1.15,1.15,0,0,0,84,123l-.39,0h-.93Z"/><path class="cls-9" d="M88.22,123H86.37v-1.26H91.5V123H89.65v5.22H88.22Z"/><path class="cls-9" d="M92.2,121.76h1.43v6.48H92.2Z"/><path class="cls-9" d="M95,121.76h4.35v1.32H96.41v1.32h2.7v1.32h-2.7v2.53H95Z"/><path class="cls-9" d="M100.34,121.76h1.43v6.48h-1.43Z"/><path class="cls-9" d="M107.31,123.44a1.4,1.4,0,0,0-.52-.39,1.72,1.72,0,0,0-.71-.14,1.78,1.78,0,0,0-1.34.59,2,2,0,0,0-.39.66,2.53,2.53,0,0,0,0,1.67,2.08,2.08,0,0,0,.39.66,1.76,1.76,0,0,0,.58.43,1.68,1.68,0,0,0,.72.16,1.61,1.61,0,0,0,.78-.18,1.54,1.54,0,0,0,.56-.51l1.19.89a2.48,2.48,0,0,1-1,.85,3.23,3.23,0,0,1-1.3.27,4,4,0,0,1-1.4-.24,3.2,3.2,0,0,1-1.11-.68,3.1,3.1,0,0,1-.73-1.08,3.94,3.94,0,0,1,0-2.82,3.1,3.1,0,0,1,.73-1.08,3.21,3.21,0,0,1,1.11-.68,4,4,0,0,1,1.4-.24,3.43,3.43,0,0,1,.57.05,3.1,3.1,0,0,1,.59.16,2.63,2.63,0,0,1,.55.29,2.21,2.21,0,0,1,.48.45Z"/><path class="cls-9" d="M111.47,121.76h1.18l2.82,6.48h-1.61l-.56-1.37h-2.52l-.54,1.37h-1.57Zm.55,1.89-.79,2h1.58Z"/><path class="cls-9" d="M116.12,121.76h2.14a6.11,6.11,0,0,1,1.48.17,3.38,3.38,0,0,1,1.22.56,2.76,2.76,0,0,1,.83,1,3.4,3.4,0,0,1,.31,1.51,3.08,3.08,0,0,1-.3,1.39,3,3,0,0,1-.8,1,3.54,3.54,0,0,1-1.16.62,4.51,4.51,0,0,1-1.38.21h-2.33Zm1.43,5.16h.74a4,4,0,0,0,.92-.1,2,2,0,0,0,.74-.33,1.6,1.6,0,0,0,.49-.61,2.18,2.18,0,0,0,.18-.93,1.82,1.82,0,0,0-.18-.83,1.66,1.66,0,0,0-.48-.58,2.11,2.11,0,0,0-.71-.34,3.16,3.16,0,0,0-.86-.11h-.84Z"/><path class="cls-9" d="M122.72,125a3.66,3.66,0,0,1,.26-1.41,3.1,3.1,0,0,1,.73-1.08,3.21,3.21,0,0,1,1.11-.68,4.25,4.25,0,0,1,2.8,0,3.21,3.21,0,0,1,1.11.68,3.1,3.1,0,0,1,.73,1.08,3.94,3.94,0,0,1,0,2.82,3.1,3.1,0,0,1-.73,1.08,3.21,3.21,0,0,1-1.11.68,4.25,4.25,0,0,1-2.8,0,3.2,3.2,0,0,1-1.11-.68,3.1,3.1,0,0,1-.73-1.08A3.66,3.66,0,0,1,122.72,125Zm1.48,0a2.37,2.37,0,0,0,.14.84,1.91,1.91,0,0,0,.41.66,1.85,1.85,0,0,0,.64.43,2.28,2.28,0,0,0,1.66,0,1.86,1.86,0,0,0,.64-.43,1.92,1.92,0,0,0,.41-.66,2.52,2.52,0,0,0,0-1.67,1.92,1.92,0,0,0-.41-.66,1.86,1.86,0,0,0-.64-.43,2.28,2.28,0,0,0-1.66,0,1.85,1.85,0,0,0-.64.43,1.91,1.91,0,0,0-.41.66A2.38,2.38,0,0,0,124.2,125Z"/><path class="cls-9" d="M133.89,123.34a1,1,0,0,0-.47-.33,1.69,1.69,0,0,0-.56-.11,1.47,1.47,0,0,0-.32,0,1.22,1.22,0,0,0-.31.11.68.68,0,0,0-.24.21.52.52,0,0,0-.09.31.52.52,0,0,0,.22.45,2.09,2.09,0,0,0,.55.27l.72.22a3,3,0,0,1,.72.31,1.7,1.7,0,0,1,.55.54,1.65,1.65,0,0,1,.22.91,2.08,2.08,0,0,1-.2.94,1.9,1.9,0,0,1-.54.67,2.31,2.31,0,0,1-.8.39,3.65,3.65,0,0,1-2.13-.06,2.94,2.94,0,0,1-1-.62l1-1.12a1.48,1.48,0,0,0,.55.45,1.56,1.56,0,0,0,1,.12,1.15,1.15,0,0,0,.32-.12.69.69,0,0,0,.23-.21.52.52,0,0,0,.09-.3.55.55,0,0,0-.22-.46,2.07,2.07,0,0,0-.56-.29l-.73-.24a3.28,3.28,0,0,1-.73-.32,1.76,1.76,0,0,1-.56-.53,1.52,1.52,0,0,1-.22-.87,2,2,0,0,1,.21-.92,2,2,0,0,1,.55-.66,2.38,2.38,0,0,1,.79-.4,3.25,3.25,0,0,1,.92-.13,3.63,3.63,0,0,1,1.06.16,2.45,2.45,0,0,1,.92.52Z"/><path class="cls-9" d="M138.65,121.76h2.14a6.11,6.11,0,0,1,1.48.17,3.38,3.38,0,0,1,1.22.56,2.76,2.76,0,0,1,.83,1,3.4,3.4,0,0,1,.31,1.51,3.08,3.08,0,0,1-.3,1.39,3,3,0,0,1-.8,1,3.54,3.54,0,0,1-1.16.62,4.51,4.51,0,0,1-1.38.21h-2.33Zm1.43,5.16h.74a4,4,0,0,0,.92-.1,2,2,0,0,0,.74-.33,1.6,1.6,0,0,0,.49-.61,2.18,2.18,0,0,0,.18-.93,1.82,1.82,0,0,0-.18-.83,1.66,1.66,0,0,0-.48-.58,2.11,2.11,0,0,0-.71-.34,3.16,3.16,0,0,0-.86-.11h-.84Z"/><path class="cls-9" d="M145.65,121.76h4.4v1.32h-3v1.21h2.81v1.32h-2.81v1.32h3.14v1.32h-4.57Z"/><path class="cls-9" d="M153.72,125a3.66,3.66,0,0,1,.26-1.41,3.1,3.1,0,0,1,.73-1.08,3.21,3.21,0,0,1,1.11-.68,4.25,4.25,0,0,1,2.8,0,3.21,3.21,0,0,1,1.11.68,3.1,3.1,0,0,1,.73,1.08,3.94,3.94,0,0,1,0,2.82,3.1,3.1,0,0,1-.73,1.08,3.21,3.21,0,0,1-1.11.68,4.25,4.25,0,0,1-2.8,0,3.2,3.2,0,0,1-1.11-.68,3.1,3.1,0,0,1-.73-1.08A3.66,3.66,0,0,1,153.72,125Zm1.48,0a2.37,2.37,0,0,0,.14.84,1.91,1.91,0,0,0,.41.66,1.85,1.85,0,0,0,.64.43,2.28,2.28,0,0,0,1.66,0,1.86,1.86,0,0,0,.64-.43,1.92,1.92,0,0,0,.41-.66,2.52,2.52,0,0,0,0-1.67,1.92,1.92,0,0,0-.41-.66,1.86,1.86,0,0,0-.64-.43,2.28,2.28,0,0,0-1.66,0,1.85,1.85,0,0,0-.64.43,1.91,1.91,0,0,0-.41.66A2.38,2.38,0,0,0,155.2,125Zm2-5h1.87l-1.58,1.32H156.3Z"/><path class="cls-9" d="M161.68,121.76h2.42a6.13,6.13,0,0,1,.85.06,2.32,2.32,0,0,1,.76.24,1.47,1.47,0,0,1,.55.5,1.53,1.53,0,0,1,.21.85,1.36,1.36,0,0,1-.31.91,1.68,1.68,0,0,1-.81.52v0a1.84,1.84,0,0,1,.58.18,1.56,1.56,0,0,1,.45.34,1.44,1.44,0,0,1,.29.48,1.69,1.69,0,0,1,.1.59,1.56,1.56,0,0,1-.22.86,1.73,1.73,0,0,1-.57.55,2.49,2.49,0,0,1-.78.3,4.19,4.19,0,0,1-.87.09h-2.65Zm1.43,2.59h1a1.45,1.45,0,0,0,.32,0,.89.89,0,0,0,.29-.12A.62.62,0,0,0,165,124a.66.66,0,0,0,.08-.33.6.6,0,0,0-.09-.33.61.61,0,0,0-.22-.21,1.07,1.07,0,0,0-.31-.11,1.86,1.86,0,0,0-.34,0h-1Zm0,2.68h1.28a1.57,1.57,0,0,0,.33,0,.88.88,0,0,0,.31-.13.72.72,0,0,0,.22-.24.69.69,0,0,0,.09-.36.57.57,0,0,0-.11-.37.73.73,0,0,0-.29-.21,1.46,1.46,0,0,0-.38-.1l-.38,0h-1.08Z"/><path class="cls-9" d="M167.6,121.76H169v6.48H167.6Z"/><path class="cls-9" d="M171.58,123h-1.85v-1.26h5.13V123H173v5.22h-1.43Z"/><path class="cls-9" d="M175.23,125a3.66,3.66,0,0,1,.26-1.41,3.1,3.1,0,0,1,.73-1.08,3.21,3.21,0,0,1,1.11-.68,4.25,4.25,0,0,1,2.8,0,3.21,3.21,0,0,1,1.11.68,3.1,3.1,0,0,1,.73,1.08,3.94,3.94,0,0,1,0,2.82,3.1,3.1,0,0,1-.73,1.08,3.21,3.21,0,0,1-1.11.68,4.25,4.25,0,0,1-2.8,0,3.2,3.2,0,0,1-1.11-.68,3.1,3.1,0,0,1-.73-1.08A3.66,3.66,0,0,1,175.23,125Zm1.48,0a2.37,2.37,0,0,0,.14.84,1.91,1.91,0,0,0,.41.66,1.85,1.85,0,0,0,.64.43,2.28,2.28,0,0,0,1.66,0,1.86,1.86,0,0,0,.64-.43,1.92,1.92,0,0,0,.41-.66,2.52,2.52,0,0,0,0-1.67,1.92,1.92,0,0,0-.41-.66,1.86,1.86,0,0,0-.64-.43,2.28,2.28,0,0,0-1.66,0,1.85,1.85,0,0,0-.64.43,1.91,1.91,0,0,0-.41.66A2.38,2.38,0,0,0,176.71,125Z"/><path class="cls-9" d="M36.24,90H35A81.64,81.64,0,0,1,116.57,8.5V9.71A80.43,80.43,0,0,0,36.24,90Z"/><path class="cls-9" d="M116.57,171.59v-1.21A80.43,80.43,0,0,0,196.91,90h1.21A81.64,81.64,0,0,1,116.57,171.59Z"/><path class="cls-9" d="M33.21,124.14A90.06,90.06,0,0,1,192.88,42.23l-1,.64A88.43,88.43,0,0,0,116.58,1.21h0A88.89,88.89,0,0,0,34.33,123.68Z"/><path class="cls-9" d="M116.57,180.09a89.09,89.09,0,0,1-41.14-9.92l.55-1.07a88.91,88.91,0,0,0,122.44-44.46l1.11.47A89.91,89.91,0,0,1,116.57,180.09Z"/></g></g></svg>