<svg xmlns="http://www.w3.org/2000/svg" viewBox="0 0 21.4 21.4"><defs><style>.cls-1{fill:#333;}</style></defs><title>lupa</title><g id="Camada_2" data-name="Camada 2"><g id="Camada_1-2" data-name="Camada 1"><path class="cls-1" d="M21.4,19.76a1.67,1.67,0,0,1-1.65,1.65,1.53,1.53,0,0,1-1.16-.49l-4.41-4.4a8.81,8.81,0,0,1-5.13,1.59,8.9,8.9,0,0,1-3.52-.71A8.87,8.87,0,0,1,.71,12.57a9,9,0,0,1,0-7A8.87,8.87,0,0,1,5.54.71a9,9,0,0,1,7,0A8.87,8.87,0,0,1,17.4,5.54a8.9,8.9,0,0,1,.71,3.52,8.81,8.81,0,0,1-1.59,5.13l4.41,4.41A1.57,1.57,0,0,1,21.4,19.76Zm-8.28-6.63a5.55,5.55,0,0,0,1.69-4.07A5.55,5.55,0,0,0,13.13,5,5.55,5.55,0,0,0,9.06,3.29,5.55,5.55,0,0,0,5,5,5.55,5.55,0,0,0,3.29,9.06,5.55,5.55,0,0,0,5,13.13a5.55,5.55,0,0,0,4.07,1.69A5.55,5.55,0,0,0,13.13,13.13Z"/></g></g></svg>