<svg xmlns="http://www.w3.org/2000/svg" viewBox="0 0 40.11 40.11"><defs><style>.cls-1{fill:#d3dadf;}</style></defs><title>msg</title><g id="Camada_2" data-name="Camada 2"><g id="Camada_1-2" data-name="Camada 1"><path class="cls-1" d="M20.05,2.51A17.55,17.55,0,1,1,2.51,20.05,17.57,17.57,0,0,1,20.05,2.51m0-2.51A20.05,20.05,0,1,0,40.11,20.05,20.05,20.05,0,0,0,20.05,0Z"/><path class="cls-1" d="M20.05,23.49l-3-2.61-8.51,7.3a1.74,1.74,0,0,0,1.19.47h20.6a1.73,1.73,0,0,0,1.18-.47L23,20.89Z"/><path class="cls-1" d="M31.54,11.93a1.73,1.73,0,0,0-1.19-.47H9.75a1.72,1.72,0,0,0-1.18.47l11.49,9.84Z"/><polygon class="cls-1" points="8.02 12.97 8.02 27.25 16.33 20.19 8.02 12.97"/><polygon class="cls-1" points="23.78 20.19 32.09 27.25 32.09 12.96 23.78 20.19"/></g></g></svg>