<svg xmlns="http://www.w3.org/2000/svg" viewBox="0 0 125 125"><defs><style>.cls-1{fill:#e6e6e6;}.cls-2{fill:#333;}</style></defs><title>pdfdownload</title><g id="Camada_2" data-name="Camada 2"><g id="Camada_1-2" data-name="Camada 1"><rect class="cls-1" width="125" height="125"/><path class="cls-2" d="M27.78,71V42.64H39.7a7.8,7.8,0,0,1,3.54.8A8.92,8.92,0,0,1,46,45.54a9.84,9.84,0,0,1,1.82,3,9,9,0,0,1,.66,3.38,9.9,9.9,0,0,1-.62,3.46,9.67,9.67,0,0,1-1.74,3,8.5,8.5,0,0,1-2.7,2.08,7.79,7.79,0,0,1-3.5.78H32.26V71ZM32.26,57.2h7.4a3.84,3.84,0,0,0,1.74-.4,4,4,0,0,0,1.34-1.12A5.59,5.59,0,0,0,43.62,54a6.78,6.78,0,0,0,.32-2.12,6.12,6.12,0,0,0-.36-2.16,4.94,4.94,0,0,0-1-1.66A4.47,4.47,0,0,0,41.12,47a3.9,3.9,0,0,0-1.7-.38H32.26Z"/><path class="cls-2" d="M52.7,71V42.64H62.78a15,15,0,0,1,6,1.12,12.31,12.31,0,0,1,4.32,3,12.79,12.79,0,0,1,2.62,4.5,17.82,17.82,0,0,1-.1,11.36,12.81,12.81,0,0,1-2.78,4.48A12.3,12.3,0,0,1,68.5,70a15.33,15.33,0,0,1-5.72,1ZM72.06,56.8a13.14,13.14,0,0,0-.62-4.12,8.84,8.84,0,0,0-1.82-3.22,8.25,8.25,0,0,0-2.92-2.1,9.55,9.55,0,0,0-3.92-.76h-5.6V67.08h5.6a9.65,9.65,0,0,0,4-.78,8.22,8.22,0,0,0,2.92-2.16,9.28,9.28,0,0,0,1.78-3.26A13.37,13.37,0,0,0,72.06,56.8Z"/><path class="cls-2" d="M81.34,71V42.64h18.92v4H85.82v8.48H97.9V58.8H85.82V71Z"/><path class="cls-2" d="M34.48,85.44V76.92h3a4.6,4.6,0,0,1,1.81.33,3.68,3.68,0,0,1,2.08,2.27,4.92,4.92,0,0,1,.27,1.65,4.87,4.87,0,0,1-.3,1.75,3.62,3.62,0,0,1-2.14,2.21,4.47,4.47,0,0,1-1.72.31Zm5.81-4.27a3.79,3.79,0,0,0-.19-1.24,2.62,2.62,0,0,0-.54-1,2.82,2.82,0,0,0-.88-.63,2.92,2.92,0,0,0-1.18-.22H35.82v6.14H37.5A3,3,0,0,0,38.7,84a2.49,2.49,0,0,0,.87-.65,2.75,2.75,0,0,0,.54-1A4,4,0,0,0,40.29,81.17Z"/><path class="cls-2" d="M45.72,85.56a3.16,3.16,0,0,1-1.33-.27,3.09,3.09,0,0,1-1-.7,3.38,3.38,0,0,1-.65-1,3.63,3.63,0,0,1,0-2.49,3.08,3.08,0,0,1,.66-1,3,3,0,0,1,1-.71,3.15,3.15,0,0,1,1.32-.27,3.19,3.19,0,0,1,1.33.27,3,3,0,0,1,1,.71,3.06,3.06,0,0,1,.65,1,3.48,3.48,0,0,1,0,2.49,3.2,3.2,0,0,1-.65,1,3.09,3.09,0,0,1-1,.7A3.19,3.19,0,0,1,45.72,85.56Zm-1.87-3.24a2.32,2.32,0,0,0,.15.84,1.94,1.94,0,0,0,1,1.11,1.63,1.63,0,0,0,.73.16,1.67,1.67,0,0,0,.74-.16,1.89,1.89,0,0,0,.6-.45,2.23,2.23,0,0,0,.39-.67,2.43,2.43,0,0,0,0-1.68,2.28,2.28,0,0,0-.39-.68,1.89,1.89,0,0,0-.6-.45,1.82,1.82,0,0,0-.74-.16,1.65,1.65,0,0,0-.72.17,1.79,1.79,0,0,0-.6.46,2.27,2.27,0,0,0-.55,1.51Z"/><path class="cls-2" d="M57.73,79.16H59l-2.64,6.28H55.25l-1.16-2.92-1.17,2.92H51.83l-2.65-6.28h1.26l2,5,.91-2.33-1.09-2.67h1.08l.72,2,.71-2h1.08L54.8,81.84l.91,2.33Z"/><path class="cls-2" d="M65.49,85.44H64.17V81.92a2.37,2.37,0,0,0-.28-1.29,1,1,0,0,0-.84-.4,1.65,1.65,0,0,0-.57.11,1.78,1.78,0,0,0-.54.3,2.51,2.51,0,0,0-.45.47,1.9,1.9,0,0,0-.31.6v3.73H59.86V79.16h1.2v1.26a2.57,2.57,0,0,1,1-1,3.22,3.22,0,0,1,1.52-.37,1.82,1.82,0,0,1,.92.21,1.46,1.46,0,0,1,.57.56,2.23,2.23,0,0,1,.29.81,5.18,5.18,0,0,1,.09,1Z"/><path class="cls-2" d="M67,76.68h1.32v6.95a.77.77,0,0,0,.18.54.64.64,0,0,0,.5.2,1.32,1.32,0,0,0,.31-.05l.33-.11.19,1a4.07,4.07,0,0,1-.69.21,3.76,3.76,0,0,1-.7.07,1.47,1.47,0,0,1-1.07-.37,1.42,1.42,0,0,1-.37-1Z"/><path class="cls-2" d="M73.46,85.56a3.18,3.18,0,0,1-1.34-.27,3.09,3.09,0,0,1-1-.7,3.18,3.18,0,0,1-.64-1,3.48,3.48,0,0,1,0-2.49,3.06,3.06,0,0,1,.65-1,3,3,0,0,1,1-.71,3.19,3.19,0,0,1,1.33-.27,3.15,3.15,0,0,1,1.32.27,3,3,0,0,1,1,.71,3.08,3.08,0,0,1,.66,1,3.63,3.63,0,0,1,0,2.49,3.23,3.23,0,0,1-.66,1,3.09,3.09,0,0,1-1,.7A3.15,3.15,0,0,1,73.46,85.56Zm-1.88-3.24a2.32,2.32,0,0,0,.15.84,2.06,2.06,0,0,0,.39.66,1.89,1.89,0,0,0,.6.45,1.67,1.67,0,0,0,.74.16,1.63,1.63,0,0,0,.73-.16,1.89,1.89,0,0,0,.6-.45,2,2,0,0,0,.39-.67,2.43,2.43,0,0,0,0-1.68,2.08,2.08,0,0,0-.39-.68,1.89,1.89,0,0,0-.6-.45,1.77,1.77,0,0,0-.73-.16,1.74,1.74,0,0,0-1.32.63,2.15,2.15,0,0,0-.41.67A2.32,2.32,0,0,0,71.58,82.32Z"/><path class="cls-2" d="M79.53,85.56a2.34,2.34,0,0,1-.85-.15A2,2,0,0,1,78,85a1.71,1.71,0,0,1-.44-.62,1.85,1.85,0,0,1-.17-.78,1.64,1.64,0,0,1,.2-.8,1.89,1.89,0,0,1,.54-.63,3,3,0,0,1,.84-.41,4,4,0,0,1,1.08-.14,5.12,5.12,0,0,1,.87.08,4,4,0,0,1,.78.21v-.43a1.47,1.47,0,0,0-.39-1.09A1.58,1.58,0,0,0,80.18,80a2.6,2.6,0,0,0-1,.19,4.93,4.93,0,0,0-1,.53l-.4-.84a4.45,4.45,0,0,1,2.52-.82,2.86,2.86,0,0,1,2,.66,2.46,2.46,0,0,1,.72,1.9v2.27c0,.28.12.42.35.43v1.13l-.33,0h-.27a.87.87,0,0,1-.59-.19.84.84,0,0,1-.26-.5l0-.39a2.66,2.66,0,0,1-1,.84A3,3,0,0,1,79.53,85.56Zm.36-1a2.26,2.26,0,0,0,.9-.18,1.55,1.55,0,0,0,.67-.48.62.62,0,0,0,.25-.46v-.83a3.9,3.9,0,0,0-.71-.2,3.78,3.78,0,0,0-.74-.07,2.06,2.06,0,0,0-1.16.3,1,1,0,0,0-.45.81,1,1,0,0,0,.35.79A1.28,1.28,0,0,0,79.89,84.59Z"/><path class="cls-2" d="M87.18,85.56A2.71,2.71,0,0,1,86,85.3a3.08,3.08,0,0,1-.94-.7,3.38,3.38,0,0,1-.62-1,3.82,3.82,0,0,1-.22-1.28A3.63,3.63,0,0,1,84.44,81,3.38,3.38,0,0,1,85,80a2.88,2.88,0,0,1,.89-.7,2.56,2.56,0,0,1,2.45.11,2.5,2.5,0,0,1,.9.93V76.68h1.32v7.2a.51.51,0,0,0,.08.32.36.36,0,0,0,.28.11v1.13l-.33,0h-.21a1,1,0,0,1-.65-.21.71.71,0,0,1-.27-.52l0-.47a2.44,2.44,0,0,1-.94.92A2.64,2.64,0,0,1,87.18,85.56Zm.33-1.13a1.63,1.63,0,0,0,.57-.1,1.87,1.87,0,0,0,.53-.26,1.77,1.77,0,0,0,.42-.4,1.49,1.49,0,0,0,.24-.49V81.54A1.83,1.83,0,0,0,89,81a2.66,2.66,0,0,0-.45-.44,2,2,0,0,0-.54-.27,1.63,1.63,0,0,0-.57-.1,1.48,1.48,0,0,0-.72.18,1.87,1.87,0,0,0-.57.48,2.31,2.31,0,0,0-.38.69,2.35,2.35,0,0,0-.14.79,2.16,2.16,0,0,0,.15.81,2.33,2.33,0,0,0,.41.68,2.05,2.05,0,0,0,.61.45A1.68,1.68,0,0,0,87.51,84.43Z"/></g></g></svg>