<svg xmlns="http://www.w3.org/2000/svg" viewBox="0 0 24.81 27.07"><defs><style>.cls-1{fill:#223647;}</style></defs><title>perfil</title><g id="Camada_2" data-name="Camada 2"><g id="Camada_1-2" data-name="Camada 1"><path class="cls-1" d="M12.41,13.53a6.52,6.52,0,0,0,4.78-2,6.52,6.52,0,0,0,2-4.78,6.52,6.52,0,0,0-2-4.78,6.52,6.52,0,0,0-4.78-2A6.52,6.52,0,0,0,7.62,2a6.52,6.52,0,0,0-2,4.78,6.52,6.52,0,0,0,2,4.78A6.52,6.52,0,0,0,12.41,13.53Z"/><path class="cls-1" d="M24.75,20.68a18,18,0,0,0-.25-1.92A14.94,14.94,0,0,0,24,16.85a9.07,9.07,0,0,0-.76-1.72,6.19,6.19,0,0,0-1.09-1.43,4.6,4.6,0,0,0-1.51-.94,5.3,5.3,0,0,0-2-.35,2.15,2.15,0,0,0-.74.38l-1.31.85a8.34,8.34,0,0,1-1.9.85,7.49,7.49,0,0,1-4.7,0,8.33,8.33,0,0,1-1.9-.85l-1.31-.85a2.15,2.15,0,0,0-.74-.38,5.29,5.29,0,0,0-2,.35,4.6,4.6,0,0,0-1.51.94,6.2,6.2,0,0,0-1.09,1.43,9.08,9.08,0,0,0-.76,1.72,14.94,14.94,0,0,0-.47,1.91,17.93,17.93,0,0,0-.25,1.92Q0,21.57,0,22.5a4.39,4.39,0,0,0,1.29,3.34A4.75,4.75,0,0,0,4.7,27.07h15.4a4.75,4.75,0,0,0,3.42-1.22,4.39,4.39,0,0,0,1.29-3.34Q24.81,21.57,24.75,20.68Z"/></g></g></svg>