<svg xmlns="http://www.w3.org/2000/svg" viewBox="0 0 16.06 19.27"><defs><style>.cls-1{fill:#ccc;}</style></defs><title>Ativo 11</title><g id="Camada_2" data-name="Camada 2"><g id="Camada_1-2" data-name="Camada 1"><path class="cls-1" d="M16.06,15.94a3.63,3.63,0,0,1-.78,2.35,2.35,2.35,0,0,1-1.89,1H2.67a2.35,2.35,0,0,1-1.89-1A3.63,3.63,0,0,1,0,15.94a18.07,18.07,0,0,1,.11-2A10.79,10.79,0,0,1,.5,12a6.34,6.34,0,0,1,.73-1.64A3.52,3.52,0,0,1,2.41,9.26,3.26,3.26,0,0,1,4.1,8.83,5.42,5.42,0,0,0,8,10.44,5.42,5.42,0,0,0,12,8.83a3.26,3.26,0,0,1,1.69.43,3.52,3.52,0,0,1,1.18,1.12A6.36,6.36,0,0,1,15.55,12a10.83,10.83,0,0,1,.4,1.91A18.07,18.07,0,0,1,16.06,15.94ZM11.43,1.41a4.64,4.64,0,0,1,1.41,3.41,4.64,4.64,0,0,1-1.41,3.41A4.64,4.64,0,0,1,8,9.63,4.64,4.64,0,0,1,4.62,8.22,4.64,4.64,0,0,1,3.21,4.82,4.64,4.64,0,0,1,4.62,1.41,4.64,4.64,0,0,1,8,0,4.64,4.64,0,0,1,11.43,1.41Z"/></g></g></svg>