<svg xmlns="http://www.w3.org/2000/svg" viewBox="0 0 28.51 30"><defs><style>.cls-1{fill:#567485;}</style></defs><title>print</title><g id="Camada_2" data-name="Camada 2"><g id="Camada_1-2" data-name="Camada 1"><path class="cls-1" d="M24.08,6.15h-.77V4.43A4.44,4.44,0,0,0,18.88,0H9.57A4.44,4.44,0,0,0,5.14,4.43V6.15h-.7A4.44,4.44,0,0,0,0,10.58v7.15a4.44,4.44,0,0,0,4.43,4.43h.7v5.62A2.22,2.22,0,0,0,7.34,30H21.09a2.22,2.22,0,0,0,2.21-2.21V22.17h.78a4.44,4.44,0,0,0,4.43-4.43V10.58A4.44,4.44,0,0,0,24.08,6.15ZM6.81,4.43A2.76,2.76,0,0,1,9.56,1.68h9.3a2.76,2.76,0,0,1,2.75,2.75V6.15H6.81ZM21.62,27.8a.54.54,0,0,1-.53.53H7.34a.54.54,0,0,1-.53-.53V18.53H21.62Zm5.21-10.06a2.76,2.76,0,0,1-2.75,2.75h-.77v-2h1.11a.84.84,0,1,0,0-1.68H3.9a.84.84,0,0,0,0,1.68H5.14v2h-.7a2.76,2.76,0,0,1-2.75-2.75V10.59A2.76,2.76,0,0,1,4.43,7.83H24.08a2.76,2.76,0,0,1,2.75,2.75Z"/><path class="cls-1" d="M8.84,22.66H19.53a.84.84,0,0,0,0-1.68H8.84a.84.84,0,0,0,0,1.68Z"/><path class="cls-1" d="M19.6,24.41H8.9a.84.84,0,0,0,0,1.68H19.59a.84.84,0,0,0,0-1.68Z"/><path class="cls-1" d="M24.06,9.44h-1.7a.84.84,0,1,0,0,1.68h1.7a.84.84,0,1,0,0-1.68Z"/></g></g></svg>