<svg xmlns="http://www.w3.org/2000/svg" viewBox="0 0 28.53 28.53"><defs><style>.cls-1{fill:#fff;}</style></defs><title>registerclick</title><g id="Camada_2" data-name="Camada 2"><g id="Camada_1-2" data-name="Camada 1"><path class="cls-1" d="M14.26,1.78A12.48,12.48,0,1,1,1.78,14.26,12.5,12.5,0,0,1,14.26,1.78m0-1.78A14.26,14.26,0,1,0,28.53,14.26,14.26,14.26,0,0,0,14.26,0Z"/><path class="cls-1" d="M25.36,14.55l-2.79-2.79a.92.92,0,0,0-1.31,0l-.56.56V5.64a.92.92,0,0,0-.92-.92H8.09a.92.92,0,0,0-.92.92V20.42a.92.92,0,0,0,.92.92h5.23v1.54a.92.92,0,0,0,.92.92H17a.92.92,0,0,0,.65-.27l7.68-7.68A.92.92,0,0,0,25.36,14.55ZM9,6.57h9.85v7.6l-5.27,5.27-.05.06H9ZM16.65,22H15.17V20.47l6.75-6.75,1.48,1.48Z"/></g></g></svg>