<svg xmlns="http://www.w3.org/2000/svg" viewBox="0 0 27 26.99"><defs><style>.cls-1{fill:#567485;}</style></defs><title>saveicon</title><g id="Camada_2" data-name="Camada 2"><g id="Camada_1-2" data-name="Camada 1"><path class="cls-1" d="M26.32,27A.68.68,0,0,0,27,26.3v-20a.68.68,0,0,0-.24-.52L20.17.16l0,0,0,0L20,.07l0,0-.07,0H.68A.68.68,0,0,0,0,.68V26.31A.68.68,0,0,0,.68,27H26.32Zm-5-1.36H5.64V15.39A.37.37,0,0,1,6,15H21a.37.37,0,0,1,.37.37ZM9,1.36H19v7.1a.08.08,0,0,1-.08.08H9.07A.08.08,0,0,1,9,8.46V1.36Zm-7.62,0H7.63v7.1A1.44,1.44,0,0,0,9.07,9.89H19A1.44,1.44,0,0,0,20.4,8.46V2.15l5.23,4.48v19H22.72V15.39A1.73,1.73,0,0,0,21,13.67H6a1.73,1.73,0,0,0-1.73,1.73V25.63H1.37Z"/><path class="cls-1" d="M12.63,4.31h3V6.12a.68.68,0,1,0,1.37,0V3.63a.68.68,0,0,0-.68-.68H12.63a.68.68,0,1,0,0,1.36Z"/><path class="cls-1" d="M16.92,17.93H10.08a.68.68,0,1,0,0,1.37h6.83a.68.68,0,0,0,0-1.37Z"/><path class="cls-1" d="M16.92,21.54H10.08a.68.68,0,1,0,0,1.37h6.83a.68.68,0,0,0,0-1.37Z"/></g></g></svg>