<svg xmlns="http://www.w3.org/2000/svg" viewBox="0 0 113.16 26.99"><defs><style>.cls-1{fill:#567485;}</style></defs><title>save</title><g id="Camada_2" data-name="Camada 2"><g id="Camada_1-2" data-name="Camada 1"><path class="cls-1" d="M50.12,16.89A4.2,4.2,0,0,1,47,18.28a4.48,4.48,0,0,1-2-.44,5.11,5.11,0,0,1-1.59-1.19,5.57,5.57,0,0,1-1.06-1.74A5.7,5.7,0,0,1,42,12.84a5.58,5.58,0,0,1,.38-2.05,5.43,5.43,0,0,1,1.06-1.71A5,5,0,0,1,45,7.91a5.27,5.27,0,0,1,4.59.21A4.13,4.13,0,0,1,51.2,9.81l-1.29.93a3,3,0,0,0-1.2-1.31A3.35,3.35,0,0,0,47,9a2.9,2.9,0,0,0-1.37.32,3.35,3.35,0,0,0-1,.86,3.83,3.83,0,0,0-.67,1.24,4.65,4.65,0,0,0-.23,1.47A4.32,4.32,0,0,0,44,14.4a4,4,0,0,0,.72,1.23,3.42,3.42,0,0,0,1.09.83,3.07,3.07,0,0,0,1.37.31,3.38,3.38,0,0,0,1.55-.37,4.54,4.54,0,0,0,1.42-1.18V14.07H47.88V12.82h3.65v5.38H50.12Z"/><path class="cls-1" d="M57.89,16.77a2.7,2.7,0,0,0,1.4-.33,2.65,2.65,0,0,0,.89-.86,3.63,3.63,0,0,0,.48-1.21A6.86,6.86,0,0,0,60.8,13V7.56h1.7V13A8.06,8.06,0,0,1,62.24,15a4.78,4.78,0,0,1-.81,1.7A3.88,3.88,0,0,1,60,17.86a4.84,4.84,0,0,1-2.11.42,4.75,4.75,0,0,1-2.15-.44,3.88,3.88,0,0,1-1.42-1.19,4.87,4.87,0,0,1-.78-1.7,8.18,8.18,0,0,1-.24-2V7.56H55V13a6.94,6.94,0,0,0,.14,1.42,3.62,3.62,0,0,0,.48,1.21,2.54,2.54,0,0,0,.9.85A2.74,2.74,0,0,0,57.89,16.77Z"/><path class="cls-1" d="M67.41,7.56h1.47l4.2,10.65H71.31l-1.12-2.89H66.08L65,18.21H63.18Zm2.44,6.51L68.15,9.49l-1.77,4.58Z"/><path class="cls-1" d="M74.4,18.21V7.56H79a3,3,0,0,1,1.33.3,3.4,3.4,0,0,1,1,.79,3.72,3.72,0,0,1,.68,1.11A3.4,3.4,0,0,1,82.34,11a3.53,3.53,0,0,1-.15,1,3.58,3.58,0,0,1-.42.92,2.91,2.91,0,0,1-.66.73,2.71,2.71,0,0,1-.85.46l2.5,4H80.85L78.54,14.5H76.08v3.71ZM76.08,13H79a1.35,1.35,0,0,0,.65-.16,1.54,1.54,0,0,0,.5-.43,2.22,2.22,0,0,0,.33-.64,2.4,2.4,0,0,0,.12-.76,2.07,2.07,0,0,0-.14-.77,2.17,2.17,0,0,0-.37-.63,1.79,1.79,0,0,0-.54-.43A1.39,1.39,0,0,0,78.93,9H76.08Z"/><path class="cls-1" d="M84.32,18.21V7.56H88.1A5.64,5.64,0,0,1,90.36,8,4.66,4.66,0,0,1,92,9.12a4.77,4.77,0,0,1,1,1.69,6.35,6.35,0,0,1,.33,2.06,6.25,6.25,0,0,1-.37,2.2,4.81,4.81,0,0,1-1,1.68,4.61,4.61,0,0,1-1.63,1.08,5.76,5.76,0,0,1-2.15.38Zm7.26-5.34a4.92,4.92,0,0,0-.23-1.54,3.37,3.37,0,0,0-.68-1.21,3.17,3.17,0,0,0-1.09-.79A3.6,3.6,0,0,0,88.1,9H86v7.68h2.1a3.61,3.61,0,0,0,1.49-.29,3.07,3.07,0,0,0,1.09-.81,3.48,3.48,0,0,0,.67-1.22A5,5,0,0,0,91.58,12.87Z"/><path class="cls-1" d="M97.82,7.56h1.47l4.2,10.65h-1.77l-1.12-2.89H96.48l-1.11,2.89H93.59Zm2.45,6.51L98.55,9.49l-1.77,4.58Z"/><path class="cls-1" d="M104.81,18.21V7.56h4.63a3,3,0,0,1,1.33.3,3.4,3.4,0,0,1,1,.79,3.72,3.72,0,0,1,.68,1.11,3.4,3.4,0,0,1,.25,1.27,3.56,3.56,0,0,1-.15,1,3.65,3.65,0,0,1-.42.92,3,3,0,0,1-.66.73,2.71,2.71,0,0,1-.86.46l2.51,4h-1.91l-2.31-3.71h-2.46v3.71ZM106.49,13h2.94a1.35,1.35,0,0,0,.65-.16,1.55,1.55,0,0,0,.5-.43,2.24,2.24,0,0,0,.33-.64A2.43,2.43,0,0,0,111,11a2.07,2.07,0,0,0-.14-.77,2.22,2.22,0,0,0-.37-.63A1.8,1.8,0,0,0,110,9.2a1.39,1.39,0,0,0-.64-.16h-2.85Z"/><path class="cls-1" d="M26.32,27A.68.68,0,0,0,27,26.3v-20a.68.68,0,0,0-.24-.52L20.17.16l0,0,0,0L20,.07l0,0-.07,0H.68A.68.68,0,0,0,0,.68V26.31A.68.68,0,0,0,.68,27H26.32Zm-5-1.36H5.64V15.39A.37.37,0,0,1,6,15H21a.37.37,0,0,1,.37.37ZM9,1.36H19v7.1a.08.08,0,0,1-.08.08H9.07A.08.08,0,0,1,9,8.46V1.36Zm-7.62,0H7.63v7.1A1.44,1.44,0,0,0,9.07,9.89H19A1.44,1.44,0,0,0,20.4,8.46V2.15l5.23,4.48v19H22.72V15.39A1.73,1.73,0,0,0,21,13.67H6a1.73,1.73,0,0,0-1.73,1.73V25.63H1.37Z"/><path class="cls-1" d="M12.63,4.31h3V6.12a.68.68,0,1,0,1.37,0V3.63a.68.68,0,0,0-.68-.68H12.63a.68.68,0,1,0,0,1.36Z"/><path class="cls-1" d="M16.92,17.93H10.08a.68.68,0,1,0,0,1.37h6.83a.68.68,0,0,0,0-1.37Z"/><path class="cls-1" d="M16.92,21.54H10.08a.68.68,0,1,0,0,1.37h6.83a.68.68,0,0,0,0-1.37Z"/></g></g></svg>