<svg xmlns="http://www.w3.org/2000/svg" viewBox="0 0 320 51"><defs><style>.cls-1{fill:#f2f2f2;}.cls-2{fill:#567485;}</style></defs><title>savebutton</title><g id="Camada_2" data-name="Camada 2"><g id="Camada_1-2" data-name="Camada 1"><rect class="cls-1" width="320" height="51"/><path class="cls-2" d="M154.12,28.39a4.2,4.2,0,0,1-3.11,1.4,4.48,4.48,0,0,1-2-.44,5.11,5.11,0,0,1-1.59-1.19,5.57,5.57,0,0,1-1.06-1.74,5.7,5.7,0,0,1-.38-2.07,5.58,5.58,0,0,1,.38-2.05,5.43,5.43,0,0,1,1.06-1.71,5,5,0,0,1,1.6-1.16,5.27,5.27,0,0,1,4.59.21,4.13,4.13,0,0,1,1.56,1.69l-1.29.93a3,3,0,0,0-1.2-1.31A3.35,3.35,0,0,0,151,20.5a2.9,2.9,0,0,0-1.37.32,3.35,3.35,0,0,0-1,.86,3.83,3.83,0,0,0-.67,1.24,4.65,4.65,0,0,0-.23,1.47A4.32,4.32,0,0,0,148,25.9a4,4,0,0,0,.72,1.23,3.42,3.42,0,0,0,1.09.83,3.07,3.07,0,0,0,1.37.31,3.38,3.38,0,0,0,1.55-.37,4.54,4.54,0,0,0,1.42-1.18V25.57h-2.24V24.33h3.65v5.38h-1.41Z"/><path class="cls-2" d="M161.89,28.27a2.7,2.7,0,0,0,1.4-.33,2.65,2.65,0,0,0,.89-.86,3.63,3.63,0,0,0,.48-1.21,6.86,6.86,0,0,0,.14-1.4v-5.4h1.7v5.4a8.06,8.06,0,0,1-.25,2.06,4.78,4.78,0,0,1-.81,1.7A3.88,3.88,0,0,1,164,29.37a4.84,4.84,0,0,1-2.11.42,4.75,4.75,0,0,1-2.15-.44,3.88,3.88,0,0,1-1.42-1.19,4.87,4.87,0,0,1-.78-1.7,8.18,8.18,0,0,1-.24-2v-5.4H159v5.4a6.94,6.94,0,0,0,.14,1.42,3.62,3.62,0,0,0,.48,1.21,2.54,2.54,0,0,0,.9.85A2.74,2.74,0,0,0,161.89,28.27Z"/><path class="cls-2" d="M171.41,19.06h1.47l4.2,10.65h-1.77l-1.12-2.89h-4.11L169,29.71h-1.79Zm2.44,6.51L172.15,21l-1.77,4.58Z"/><path class="cls-2" d="M178.4,29.71V19.06H183a3,3,0,0,1,1.33.3,3.4,3.4,0,0,1,1,.79,3.72,3.72,0,0,1,.68,1.11,3.4,3.4,0,0,1,.25,1.27,3.53,3.53,0,0,1-.15,1,3.58,3.58,0,0,1-.42.92,2.91,2.91,0,0,1-.66.73,2.71,2.71,0,0,1-.85.46l2.5,4h-1.91L182.54,26h-2.46v3.71Zm1.68-5.19H183a1.35,1.35,0,0,0,.65-.16,1.54,1.54,0,0,0,.5-.43,2.22,2.22,0,0,0,.33-.64,2.4,2.4,0,0,0,.12-.76,2.07,2.07,0,0,0-.14-.77,2.17,2.17,0,0,0-.37-.63,1.79,1.79,0,0,0-.54-.43,1.39,1.39,0,0,0-.64-.16h-2.85Z"/><path class="cls-2" d="M188.32,29.71V19.06h3.78a5.64,5.64,0,0,1,2.26.42A4.66,4.66,0,0,1,196,20.62a4.77,4.77,0,0,1,1,1.69,6.35,6.35,0,0,1,.33,2.06,6.25,6.25,0,0,1-.37,2.2,4.81,4.81,0,0,1-1,1.68,4.61,4.61,0,0,1-1.63,1.08,5.76,5.76,0,0,1-2.15.38Zm7.26-5.34a4.92,4.92,0,0,0-.23-1.54,3.37,3.37,0,0,0-.68-1.21,3.17,3.17,0,0,0-1.09-.79,3.6,3.6,0,0,0-1.47-.29H190v7.68h2.1a3.61,3.61,0,0,0,1.49-.29,3.07,3.07,0,0,0,1.09-.81,3.48,3.48,0,0,0,.67-1.22A5,5,0,0,0,195.58,24.37Z"/><path class="cls-2" d="M201.82,19.06h1.47l4.2,10.65h-1.77l-1.12-2.89h-4.11l-1.11,2.89h-1.79Zm2.45,6.51L202.55,21l-1.77,4.58Z"/><path class="cls-2" d="M208.81,29.71V19.06h4.63a3,3,0,0,1,1.33.3,3.4,3.4,0,0,1,1,.79,3.72,3.72,0,0,1,.68,1.11,3.4,3.4,0,0,1,.25,1.27,3.56,3.56,0,0,1-.15,1,3.65,3.65,0,0,1-.42.92,3,3,0,0,1-.66.73,2.71,2.71,0,0,1-.86.46l2.51,4h-1.91L212.95,26h-2.46v3.71Zm1.68-5.19h2.94a1.35,1.35,0,0,0,.65-.16,1.55,1.55,0,0,0,.5-.43,2.24,2.24,0,0,0,.33-.64,2.43,2.43,0,0,0,.12-.76,2.07,2.07,0,0,0-.14-.77,2.22,2.22,0,0,0-.37-.63,1.8,1.8,0,0,0-.54-.43,1.39,1.39,0,0,0-.64-.16h-2.85Z"/><path class="cls-2" d="M130.32,38.49a.68.68,0,0,0,.68-.68v-20a.68.68,0,0,0-.24-.52l-6.59-5.64,0,0,0,0-.06,0,0,0-.07,0H104.68a.68.68,0,0,0-.68.68V37.81a.68.68,0,0,0,.68.68h25.63Zm-5-1.36H109.64V26.9a.37.37,0,0,1,.37-.37h15a.37.37,0,0,1,.37.37ZM113,12.86H123V20A.08.08,0,0,1,123,20h-9.89A.08.08,0,0,1,113,20v-7.1Zm-7.62,0h6.27V20a1.44,1.44,0,0,0,1.44,1.44H123A1.44,1.44,0,0,0,124.4,20V13.65l5.23,4.48v19h-2.91V26.9A1.73,1.73,0,0,0,125,25.17H110a1.73,1.73,0,0,0-1.73,1.73V37.13h-2.91Z"/><path class="cls-2" d="M116.63,15.81h3v1.81a.68.68,0,1,0,1.37,0V15.14a.68.68,0,0,0-.68-.68h-3.67a.68.68,0,1,0,0,1.36Z"/><path class="cls-2" d="M120.92,29.44h-6.83a.68.68,0,1,0,0,1.37h6.83a.68.68,0,0,0,0-1.37Z"/><path class="cls-2" d="M120.92,33h-6.83a.68.68,0,1,0,0,1.37h6.83a.68.68,0,0,0,0-1.37Z"/></g></g></svg>