<svg xmlns="http://www.w3.org/2000/svg" viewBox="0 0 20.43 22"><defs><style>.cls-1{fill:#999;}</style></defs><title>schedule</title><g id="Camada_2" data-name="Camada 2"><g id="Camada_1-2" data-name="Camada 1"><path class="cls-1" d="M20.43,4.71V20.43A1.59,1.59,0,0,1,18.86,22H1.57a1.51,1.51,0,0,1-1.11-.47A1.51,1.51,0,0,1,0,20.43V4.71A1.51,1.51,0,0,1,.47,3.61a1.51,1.51,0,0,1,1.11-.47H3.14V2A1.89,1.89,0,0,1,3.72.58,1.89,1.89,0,0,1,5.11,0h.79A1.89,1.89,0,0,1,7.28.58,1.9,1.9,0,0,1,7.86,2V3.14h4.71V2A1.89,1.89,0,0,1,13.15.58,1.89,1.89,0,0,1,14.54,0h.79a1.89,1.89,0,0,1,1.39.58A1.89,1.89,0,0,1,17.29,2V3.14h1.57a1.59,1.59,0,0,1,1.57,1.57ZM1.57,11.39H5.11V7.86H1.57Zm0,4.71H5.11V12.18H1.57Zm0,4.32H5.11V16.89H1.57ZM6.29,5.5V2a.4.4,0,0,0-.39-.39H5.11A.4.4,0,0,0,4.71,2V5.5a.4.4,0,0,0,.39.39h.79a.4.4,0,0,0,.39-.39Zm-.39,5.89H9.82V7.86H5.89Zm0,4.71H9.82V12.18H5.89Zm0,4.32H9.82V16.89H5.89Zm4.71-9h3.93V7.86H10.61Zm0,4.71h3.93V12.18H10.61Zm0,4.32h3.93V16.89H10.61ZM15.71,5.5V2a.4.4,0,0,0-.39-.39h-.79a.4.4,0,0,0-.39.39V5.5a.4.4,0,0,0,.39.39h.79a.4.4,0,0,0,.39-.39Zm-.39,5.89h3.54V7.86H15.32Zm0,4.71h3.54V12.18H15.32Zm0,4.32h3.54V16.89H15.32Z"/></g></g></svg>