<svg xmlns="http://www.w3.org/2000/svg" viewBox="0 0 11.14 12.07"><defs><style>.cls-1{fill:#fff;}</style></defs><title>shutdown</title><g id="Camada_2" data-name="Camada 2"><g id="Camada_1-2" data-name="Camada 1"><path class="cls-1" d="M11.14,6.5a5.42,5.42,0,0,1-.44,2.16,5.51,5.51,0,0,1-3,3,5.5,5.5,0,0,1-4.32,0,5.51,5.51,0,0,1-3-3A5.42,5.42,0,0,1,0,6.5,5.52,5.52,0,0,1,2.23,2.05a.92.92,0,0,1,.69-.18.86.86,0,0,1,.61.36.89.89,0,0,1,.18.69.9.9,0,0,1-.36.61,3.71,3.71,0,0,0-1.1,1.31,3.7,3.7,0,0,0-.09,3.09,3.68,3.68,0,0,0,2,2A3.67,3.67,0,0,0,7,9.92a3.67,3.67,0,0,0,2-2A3.61,3.61,0,0,0,9.29,6.5,3.65,3.65,0,0,0,8.9,4.85,3.71,3.71,0,0,0,7.8,3.53a.9.9,0,0,1-.36-.61.88.88,0,0,1,.18-.69.86.86,0,0,1,.61-.36.9.9,0,0,1,.69.18A5.52,5.52,0,0,1,11.14,6.5ZM6.5.93V5.57a.92.92,0,0,1-1.58.65.89.89,0,0,1-.28-.65V.93A.89.89,0,0,1,4.92.28a.91.91,0,0,1,1.31,0A.89.89,0,0,1,6.5.93Z"/></g></g></svg>