<svg xmlns="http://www.w3.org/2000/svg" xmlns:xlink="http://www.w3.org/1999/xlink" viewBox="0 0 207.99 67.02"><defs><style>.cls-1{fill:#504f51;}.cls-2{fill:url(#linear-gradient);}.cls-3{fill:url(#linear-gradient-2);}.cls-4{fill:url(#linear-gradient-3);}</style><linearGradient id="linear-gradient" x1="43.11" y1="27.91" x2="71.49" y2="11.62" gradientUnits="userSpaceOnUse"><stop offset="0" stop-color="#cd190f"/><stop offset="1" stop-color="#831216"/></linearGradient><linearGradient id="linear-gradient-2" x1="3.44" y1="60.04" x2="20.83" y2="44.61" gradientUnits="userSpaceOnUse"><stop offset="0" stop-color="#006c33"/><stop offset="0.7" stop-color="#089149"/></linearGradient><linearGradient id="linear-gradient-3" x1="6.71" y1="52.22" x2="63.21" y2="14.67" gradientUnits="userSpaceOnUse"><stop offset="0" stop-color="#007e38"/><stop offset="0.04" stop-color="#318b35"/><stop offset="0.07" stop-color="#5c9632"/><stop offset="0.12" stop-color="#83a130"/><stop offset="0.16" stop-color="#a3a92e"/><stop offset="0.21" stop-color="#bdb02d"/><stop offset="0.26" stop-color="#d2b52c"/><stop offset="0.31" stop-color="#e0b92b"/><stop offset="0.38" stop-color="#e8bb2a"/><stop offset="0.5" stop-color="#ebbc2a"/><stop offset="0.56" stop-color="#eab729"/><stop offset="0.65" stop-color="#e7a727"/><stop offset="0.74" stop-color="#e28e22"/><stop offset="0.83" stop-color="#dc6a1c"/><stop offset="0.93" stop-color="#d43d15"/><stop offset="1" stop-color="#cd190f"/></linearGradient></defs><title>SNS2</title><g id="Camada_2" data-name="Camada 2"><g id="Layer_1" data-name="Layer 1"><polygon class="cls-1" points="81.41 67.02 80.78 67.02 80.78 0.41 81.41 0.43 81.41 67.02"/><path class="cls-2" d="M33.32.19A33.32,33.32,0,0,0,1.79,22.75c2-.91,18.31-13.58,35.14-3.66,26,14.74,11,41.55,9.85,44.93A33.34,33.34,0,0,0,33.32.19Z"/><path class="cls-3" d="M33.34,66.84A33.33,33.33,0,0,0,64.87,44.29c-2,.9-26.1,16.63-43.48,2-7.72-6.52-8-17.42-6.34-28.18C16.46,9.16,18.71,6.39,19.86,3A33.33,33.33,0,0,0,33.34,66.84Z"/><path class="cls-4" d="M17.19,22.79c-6.42,8-6,18.22-11.3,19.06C3.8,42.18.38,40.36,0,34.74a33.33,33.33,0,0,0,24,30.8c-3.17-4.37-4.35-6.53-4.35-12.36,0-14.6,11.69-25.37,25.84-26.66,11-1,16.29,1.42,21,8.13,0-.36,0-.77,0-1.14A33,33,0,0,0,56.75,9.83C54.64,7.74,32.75,3.5,17.19,22.79Z"/><path class="cls-1" d="M105.43,31.65a10.43,10.43,0,0,1-6.07-1.79v0l-1-.8a9.48,9.48,0,0,1-2.85-5.7l-.09-.59,4.91-1.07.13.63a5,5,0,0,0,5,4.21,5.15,5.15,0,0,0,3.95-1.69,4.55,4.55,0,0,0,.78-2.18,2.44,2.44,0,0,0-.4-1.59l0-.05A33.78,33.78,0,0,0,106,18.23a5.77,5.77,0,0,1-1.61-1.2c-3.27-2.16-5.46-3.74-6.26-4.89A8.1,8.1,0,0,1,96.71,8,8.26,8.26,0,0,1,99,2.51c2-2.09,4.17-2.51,7-2.51a9.62,9.62,0,0,1,5.62,1.94,10.3,10.3,0,0,1,3.36,6l.12.61-4.93,1.07L110,9c-.42-2.11-2.27-3.89-4-3.89-2.07,0-2.69.29-3.29.93a3.07,3.07,0,0,0-.85,1.93,4.18,4.18,0,0,0,.51,1.26,40.69,40.69,0,0,0,3.87,2.92c.61.42,1.21.84,1.79,1.26a34.16,34.16,0,0,1,5.53,4.46,7.76,7.76,0,0,1,1.64,5.13,8.79,8.79,0,0,1-1.85,5.15A10.5,10.5,0,0,1,105.43,31.65Z"/><path class="cls-1" d="M141.11,31.49H136.7l-13.17-20.8v20.8h-5V.27h4.41L136,20.85V.27h5.12Z"/><path class="cls-1" d="M154.25,31.65a10.43,10.43,0,0,1-6.07-1.79v0l-1-.8a9.48,9.48,0,0,1-2.85-5.7l-.09-.59,4.91-1.07.13.63a5,5,0,0,0,5,4.21,5.15,5.15,0,0,0,3.95-1.69,4.55,4.55,0,0,0,.78-2.18,2.44,2.44,0,0,0-.4-1.59l0-.05a33.78,33.78,0,0,0-3.72-2.84,5.77,5.77,0,0,1-1.61-1.2c-3.27-2.16-5.46-3.74-6.26-4.89A8.1,8.1,0,0,1,145.53,8a8.26,8.26,0,0,1,2.26-5.46c2-2.09,4.17-2.51,7-2.51a9.62,9.62,0,0,1,5.62,1.94,10.3,10.3,0,0,1,3.36,6l.12.61L158.9,9.59,158.78,9c-.42-2.11-2.27-3.89-4-3.89-2.07,0-2.69.29-3.29.93a3.07,3.07,0,0,0-.85,1.93,4.18,4.18,0,0,0,.51,1.26A40.69,40.69,0,0,0,155,12.1c.61.42,1.21.84,1.79,1.26a34.16,34.16,0,0,1,5.53,4.46,7.76,7.76,0,0,1,1.64,5.13,8.79,8.79,0,0,1-1.85,5.15A10.5,10.5,0,0,1,154.25,31.65Z"/><path class="cls-1" d="M100.8,39.59c0-1.39-.65-2.23-2-2.23a2,2,0,0,0-2.14,2c0,3.38,5.48,1.52,5.48,5.5a3.08,3.08,0,0,1-3.42,3.31c-2.12,0-3.3-1.14-3.3-3.36v-.33h1v.43a2.35,2.35,0,1,0,4.69.11c0-3.36-5.48-1.44-5.48-5.55a2.86,2.86,0,0,1,3.12-3c2.11,0,3.07,1.08,3.07,3.09Z"/><path class="cls-1" d="M103.44,36.69h5.61v.86h-4.6v4.12h4.29v.86h-4.29v4.63h4.74V48h-5.75Z"/><path class="cls-1" d="M110.48,36.69h3.38a2.64,2.64,0,0,1,2.93,2.84,2.58,2.58,0,0,1-2,2.87v0c1.41.13,1.89.94,1.93,2.68l0,1.24a2.49,2.49,0,0,0,.48,1.66H116a3.42,3.42,0,0,1-.3-1.59l0-1c-.06-2-.43-2.63-2.25-2.63h-1.92V48h-1Zm1,5.29h1.74c1.6,0,2.54-.73,2.54-2.22s-.59-2.22-2.42-2.22h-1.85Z"/><path class="cls-1" d="M117.56,36.69h1.08l2.52,10.24h0l2.52-10.24h1.08l-3,11.32h-1.27Z"/><path class="cls-1" d="M125.78,36.69h1V48h-1Z"/><path class="cls-1" d="M132,48.2c-2.22-.11-3.44-1.9-3.44-5.85s1.3-5.85,3.61-5.85,3.25,1.63,3.25,3.49h-1c0-1.54-.78-2.63-2.23-2.63-1.62,0-2.6,1.33-2.6,5s1,5,2.6,5c1.43,0,2.23-1.22,2.35-3.17h1c-.13,2.39-1.17,3.82-2.95,4l-.55.73,0,0a1.39,1.39,0,0,1,.54-.08,1.14,1.14,0,0,1,1.22,1.06c0,.89-1,1.35-1.68,1.35a3.64,3.64,0,0,1-1.41-.32l.19-.49a2.21,2.21,0,0,0,1,.24c.76,0,1.09-.32,1.09-.7s-.41-.57-.84-.57a1.27,1.27,0,0,0-.7.16l-.21-.27Z"/><path class="cls-1" d="M140.38,36.5c2.31,0,3.61,1.79,3.61,5.85s-1.3,5.85-3.61,5.85-3.61-1.79-3.61-5.85S138.06,36.5,140.38,36.5Zm0,10.84c1.62,0,2.6-1.33,2.6-5s-1-5-2.6-5-2.6,1.33-2.6,5S138.76,47.34,140.38,47.34Z"/><path class="cls-1" d="M149.47,36.69h1.36l4.33,9.86h0V36.69h1V48h-1.36l-4.33-9.86h0V48h-1Z"/><path class="cls-1" d="M160.42,36.69h1.27L165,48H164l-.92-3.3h-4l-.92,3.3h-1.08Zm2.39,7.16-1.74-6.37h0l-1.74,6.37Z"/><path class="cls-1" d="M172.78,44.17c-.14,2.58-1.33,4-3.36,4-2.31,0-3.61-1.79-3.61-5.85s1.3-5.85,3.61-5.85,3.25,1.63,3.25,3.49h-1c0-1.54-.78-2.63-2.23-2.63-1.62,0-2.6,1.33-2.6,5s1,5,2.6,5c1.43,0,2.23-1.22,2.35-3.17Z"/><path class="cls-1" d="M174.19,36.69h1V48h-1Z"/><path class="cls-1" d="M180.56,36.5c2.31,0,3.61,1.79,3.61,5.85s-1.3,5.85-3.61,5.85-3.61-1.79-3.61-5.85S178.24,36.5,180.56,36.5Zm0,10.84c1.62,0,2.6-1.33,2.6-5s-1-5-2.6-5-2.6,1.33-2.6,5S178.94,47.34,180.56,47.34Z"/><path class="cls-1" d="M185.85,36.69h1.36l4.33,9.86h0V36.69h1V48h-1.36l-4.33-9.86h0V48h-1Z"/><path class="cls-1" d="M196.8,36.69h1.27L201.41,48h-1.08l-.92-3.3h-4l-.92,3.3h-1.08Zm2.39,7.16-1.74-6.37h0l-1.74,6.37Z"/><path class="cls-1" d="M202.28,36.69h1V47.15H208V48h-5.71Z"/><path class="cls-1" d="M95.84,55.33h2.73c3.3,0,4.1,2,4.1,5.66s-.81,5.66-4.1,5.66H95.84Zm1,10.46H98.5c2.22,0,3.15-1.11,3.15-4.79s-.93-4.82-3.15-4.82H96.85Z"/><path class="cls-1" d="M104.34,55.33H110v.86h-4.6v4.12h4.3v.86h-4.3v4.63h4.74v.86h-5.75Z"/><path class="cls-1" d="M120.14,58.23c0-1.39-.65-2.23-2-2.23A2,2,0,0,0,116,58c0,3.38,5.48,1.52,5.48,5.5A3.08,3.08,0,0,1,118,66.84c-2.12,0-3.3-1.14-3.3-3.36v-.33h1v.43a2.35,2.35,0,1,0,4.69.11c0-3.36-5.48-1.44-5.48-5.55a2.86,2.86,0,0,1,3.12-3c2.11,0,3.07,1.08,3.07,3.09Z"/><path class="cls-1" d="M125.23,55.33h1.27l3.34,11.32h-1.08l-.92-3.3h-4l-.92,3.3h-1.08Zm2.39,7.16-1.74-6.37h0L124.1,62.5Z"/><path class="cls-1" d="M130.65,55.33h1v8.13c0,1.7.73,2.52,2.22,2.52s2.22-.82,2.22-2.52V55.33h1v8.15c0,2.38-1.16,3.36-3.23,3.36s-3.23-1-3.23-3.36Zm4.87-2.77L134,54.79h-.76l1.19-2.23Z"/><path class="cls-1" d="M138.73,55.33h2.73c3.3,0,4.1,2,4.1,5.66s-.81,5.66-4.1,5.66h-2.73Zm1,10.46h1.65c2.22,0,3.15-1.11,3.15-4.79s-.93-4.82-3.15-4.82h-1.65Z"/><path class="cls-1" d="M147.24,55.33h5.61v.86h-4.6v4.12h4.29v.86h-4.29v4.63H153v.86h-5.75Z"/></g></g></svg>