<svg xmlns="http://www.w3.org/2000/svg" viewBox="0 0 28.53 28.53"><defs><style>.cls-1{fill:#fff;}</style></defs><title>sobreclick</title><g id="Camada_2" data-name="Camada 2"><g id="Camada_1-2" data-name="Camada 1"><path class="cls-1" d="M14.26,1.78A12.48,12.48,0,1,1,1.78,14.26,12.5,12.5,0,0,1,14.26,1.78m0-1.78A14.26,14.26,0,1,0,28.53,14.26,14.26,14.26,0,0,0,14.26,0Z"/><path class="cls-1" d="M19.88,8.16C16,8.16,14,11.92,13,13.39S10.59,17,8.65,17a2.66,2.66,0,0,1-2.53-2.78,2.66,2.66,0,0,1,2.53-2.78c1.18,0,2.4,1.1,3.26,2.15.48-.64,1-1.47,1.88-2.67h0c-1.23-1.37-3-2.8-5.15-2.8a5.86,5.86,0,0,0-5.56,6.11,5.86,5.86,0,0,0,5.56,6.11c3.87,0,5.53-3.37,6.91-5.23s2.47-3.65,4.32-3.65a2.66,2.66,0,0,1,2.53,2.78A2.66,2.66,0,0,1,19.88,17c-1.2,0-2.94-1.64-3.81-2.7L14.21,17h0c1.23,1.38,3.53,3.34,5.68,3.34a5.86,5.86,0,0,0,5.56-6.11A5.86,5.86,0,0,0,19.88,8.16Z"/></g></g></svg>