<svg xmlns="http://www.w3.org/2000/svg" viewBox="0 0 40.11 40.11"><defs><style>.cls-1{fill:#d3dadf;}</style></defs><title>tlf</title><g id="Camada_2" data-name="Camada 2"><g id="Camada_1-2" data-name="Camada 1"><path class="cls-1" d="M20.05,2.51A17.55,17.55,0,1,1,2.51,20.05,17.57,17.57,0,0,1,20.05,2.51m0-2.51A20.05,20.05,0,1,0,40.11,20.05,20.05,20.05,0,0,0,20.05,0ZM31.23,26.76l-.11-.34a3.18,3.18,0,0,0-1.94-1.83l-3-.81a2.9,2.9,0,0,0-2.54.67l-1.07,1.07a11.39,11.39,0,0,1-8-8l1.07-1.07a2.91,2.91,0,0,0,.66-2.54l-.81-3A3.17,3.17,0,0,0,13.69,9l-.34-.11a2.68,2.68,0,0,0-2.51.59L9.24,11.07a3,3,0,0,0-.47,1.1A18.94,18.94,0,0,0,27.88,31.33,3,3,0,0,0,29,30.87l1.61-1.61A2.69,2.69,0,0,0,31.23,26.76Z"/></g></g></svg>